<svg width="650" height="365" viewBox="0 0 650 365" fill="none" xmlns="http://www.w3.org/2000/svg">
<mask id="mask0" style="mask-type:alpha" maskUnits="userSpaceOnUse" x="0" y="0" width="650" height="365">
<rect width="650" height="365" rx="25" fill="#252525"/>
</mask>
<g mask="url(#mask0)">
<circle cx="715" cy="482" r="333.5" stroke="#E6AE6A" stroke-opacity="0.5"/>
<circle cx="343" cy="635" r="333.5" stroke="#E6AE6A" stroke-opacity="0.5"/>
<circle cx="489" cy="-193" r="262.5" stroke="#E6AE6A" stroke-opacity="0.5"/>
<circle cx="-68" cy="335" r="262.5" stroke="#E6AE6A" stroke-opacity="0.5"/>
<circle cx="-68" cy="-99" r="262.5" stroke="#E6AE6A" stroke-opacity="0.5"/>
</g>
<g filter="url(#filter0_d)">
<path d="M339.095 117H182.905C180.757 117 179 118.757 179 120.905V214.619C179 216.767 180.757 218.524 182.905 218.524H248.114L211.995 242.616C210.199 243.827 209.73 246.248 210.902 248.044C211.644 249.137 212.893 249.762 214.143 249.762C214.885 249.762 215.627 249.567 216.29 249.098L257.095 221.921V245.857C257.095 248.005 258.852 249.762 261 249.762C263.148 249.762 264.905 248.005 264.905 245.857V221.921L305.71 249.098C307.506 250.309 309.927 249.801 311.137 248.005C312.348 246.209 311.84 243.788 310.044 242.577L273.886 218.524H339.095C341.243 218.524 343 216.767 343 214.619V120.905C343 118.757 341.243 117 339.095 117ZM335.19 210.714H186.81V124.81H335.19V210.714Z" fill="#DCAD76"/>
<path d="M300.047 195.096H315.666C317.814 195.096 319.571 193.338 319.571 191.191V167.762C319.571 165.615 317.814 163.857 315.666 163.857H300.047C297.9 163.857 296.143 165.615 296.143 167.762V191.191C296.143 193.338 297.9 195.096 300.047 195.096ZM303.952 171.667H311.762V187.286H303.952V171.667Z" fill="#DCAD76"/>
<path d="M268.809 195.095H284.428C286.576 195.095 288.333 193.338 288.333 191.191V159.953C288.333 157.805 286.576 156.048 284.428 156.048H268.809C266.661 156.048 264.904 157.805 264.904 159.953V191.191C264.904 193.338 266.661 195.095 268.809 195.095ZM272.714 163.857H280.523V187.286H272.714V163.857Z" fill="#DCAD76"/>
<path d="M237.571 195.095H253.19C255.337 195.095 257.095 193.338 257.095 191.191V144.333C257.095 142.186 255.337 140.429 253.19 140.429H237.571C235.423 140.429 233.666 142.186 233.666 144.333V191.191C233.666 193.338 235.423 195.095 237.571 195.095ZM241.476 148.238H249.285V187.286H241.476V148.238Z" fill="#DCAD76"/>
<path d="M206.332 195.095H221.952C224.099 195.095 225.856 193.338 225.856 191.191V152.143C225.856 149.995 224.099 148.238 221.952 148.238H206.332C204.185 148.238 202.428 149.995 202.428 152.143V191.191C202.428 193.338 204.185 195.095 206.332 195.095ZM210.237 156.048H218.047V187.286H210.237V156.048Z" fill="#DCAD76"/>
<path d="M440.578 148.396V181.984H448.446V165.19L470.084 181.984V148.786H462.215V165.385L440.578 148.396Z" fill="#DCAD76"/>
<path fill-rule="evenodd" clip-rule="evenodd" d="M407.094 182.022V148.391H426.06C432.317 148.391 436.033 153.866 436.033 159.536C436.033 165.206 432.513 170.681 426.06 170.681H414.915V182.022H407.094ZM414.915 155.821H425.669C427.233 155.821 428.211 157.385 428.211 159.341C428.211 161.687 427.429 163.251 425.669 163.251H414.915V155.821Z" fill="#DCAD76"/>
<path fill-rule="evenodd" clip-rule="evenodd" d="M385.011 182.023C394.406 182.023 402.023 174.406 402.023 165.011C402.023 155.616 394.406 148 385.011 148C375.616 148 368 155.616 368 165.011C368 174.406 375.616 182.023 385.011 182.023ZM384.816 174.593C389.999 174.593 394.201 170.391 394.201 165.207C394.201 160.024 389.999 155.822 384.816 155.822C379.632 155.822 375.43 160.024 375.43 165.207C375.43 170.391 379.632 174.593 384.816 174.593Z" fill="#DCAD76"/>
<path d="M373.755 194.336V197H372.158V189.439H375.181C375.763 189.439 376.274 189.543 376.714 189.751C377.157 189.959 377.498 190.255 377.736 190.639C377.973 191.02 378.092 191.454 378.092 191.942C378.092 192.683 377.831 193.268 377.31 193.697C376.792 194.123 376.073 194.336 375.154 194.336H373.755ZM373.755 193.074H375.181C375.603 193.074 375.924 192.977 376.144 192.784C376.368 192.59 376.48 192.313 376.48 191.953C376.48 191.582 376.368 191.283 376.144 191.054C375.921 190.826 375.612 190.708 375.218 190.701H373.755V193.074Z" fill="#DCAD76"/>
<path d="M391.016 195.442H388.158L387.614 197H385.881L388.826 189.439H390.337L393.298 197H391.565L391.016 195.442ZM388.598 194.18H390.576L389.581 191.35L388.598 194.18Z" fill="#DCAD76"/>
<path d="M405.762 194.232H404.511V197H402.941V189.439H405.772C406.672 189.439 407.367 189.639 407.855 190.037C408.343 190.435 408.588 190.997 408.588 191.724C408.588 192.24 408.474 192.671 408.247 193.017C408.024 193.36 407.684 193.633 407.227 193.838L408.875 196.927V197H407.19L405.762 194.232ZM404.511 192.971H405.778C406.172 192.971 406.477 192.872 406.693 192.675C406.91 192.474 407.018 192.199 407.018 191.849C407.018 191.492 406.915 191.212 406.709 191.008C406.507 190.803 406.194 190.701 405.772 190.701H404.511V192.971Z" fill="#DCAD76"/>
<path d="M423.709 190.701H421.338V197H419.743V190.701H417.404V189.439H423.709V190.701Z" fill="#DCAD76"/>
<path d="M439.656 197H438.059L434.949 192.025V197H433.352V189.439H434.949L438.064 194.424V189.439H439.656V197Z" fill="#DCAD76"/>
<path d="M454.33 193.723H451.266V195.749H454.862V197H449.67V189.439H454.851V190.701H451.266V192.503H454.33V193.723Z" fill="#DCAD76"/>
<path d="M466.955 194.232H465.705V197H464.135V189.439H466.966C467.866 189.439 468.56 189.639 469.048 190.037C469.537 190.435 469.781 190.997 469.781 191.724C469.781 192.24 469.667 192.671 469.441 193.017C469.217 193.36 468.877 193.633 468.42 193.838L470.069 196.927V197H468.384L466.955 194.232ZM465.705 192.971H466.971C467.365 192.971 467.67 192.872 467.887 192.675C468.103 192.474 468.211 192.199 468.211 191.849C468.211 191.492 468.108 191.212 467.902 191.008C467.7 190.803 467.388 190.701 466.966 190.701H465.705V192.971Z" fill="#DCAD76"/>
</g>
<defs>
<filter id="filter0_d" x="139" y="97" width="371.083" height="212.762" filterUnits="userSpaceOnUse" color-interpolation-filters="sRGB">
<feFlood flood-opacity="0" result="BackgroundImageFix"/>
<feColorMatrix in="SourceAlpha" type="matrix" values="0 0 0 0 0 0 0 0 0 0 0 0 0 0 0 0 0 0 127 0" result="hardAlpha"/>
<feOffset dy="20"/>
<feGaussianBlur stdDeviation="20"/>
<feComposite in2="hardAlpha" operator="out"/>
<feColorMatrix type="matrix" values="0 0 0 0 1 0 0 0 0 0.870588 0 0 0 0 0.717647 0 0 0 0.25 0"/>
<feBlend mode="normal" in2="BackgroundImageFix" result="effect1_dropShadow"/>
<feBlend mode="normal" in="SourceGraphic" in2="effect1_dropShadow" result="shape"/>
</filter>
</defs>
</svg>
