<svg width="47" height="35" viewBox="0 0 47 35" fill="none" xmlns="http://www.w3.org/2000/svg">
<path d="M40.271 0.697266C37.0673 0.697266 34.4461 3.31846 34.4461 6.52214C34.4461 8.31814 35.2228 9.87144 36.4849 10.9393L31.9706 20.162C31.6793 20.1135 31.3881 20.065 31.0483 20.065C30.0775 20.065 29.2038 20.3077 28.3786 20.696L21.2916 15.1138C21.9227 14.1916 22.311 13.0751 22.311 11.8616C22.311 8.65793 19.6898 6.03673 16.4861 6.03673C13.2824 6.03673 10.6612 8.65793 10.6612 11.8616C10.6612 13.6091 11.4379 15.1624 12.6514 16.2303L8.47692 22.7832C7.94297 22.6376 7.36049 22.5405 6.778 22.5405C3.57432 22.5405 0.953125 25.1617 0.953125 28.3654C0.953125 31.5691 3.57432 34.1903 6.778 34.1903C9.98168 34.1903 12.6029 31.5691 12.6029 28.3654C12.6029 26.8121 11.9718 25.3559 10.9525 24.3365L15.2241 17.5894C15.6124 17.6865 16.0493 17.735 16.4861 17.735C17.4084 17.735 18.2821 17.4923 19.0588 17.104L26.1457 22.7832C25.5147 23.7055 25.1749 24.8219 25.1749 25.9869C25.1749 29.1906 27.7961 31.8118 30.9998 31.8118C34.2034 31.8118 36.8246 29.1906 36.8246 25.9869C36.8246 24.1424 35.9509 22.492 34.5918 21.4241L39.0575 12.2985C39.4458 12.3956 39.8342 12.3956 40.2225 12.3956C43.4262 12.3956 46.0474 9.77436 46.0474 6.57068C46.0474 3.367 43.4747 0.697266 40.271 0.697266ZM6.778 31.2778C5.17616 31.2778 3.86556 29.9673 3.86556 28.3654C3.86556 26.7636 5.17616 25.453 6.778 25.453C8.37984 25.453 9.69043 26.7636 9.69043 28.3654C9.69043 29.9673 8.37984 31.2778 6.778 31.2778ZM13.5737 11.8616C13.5737 10.2598 14.8843 8.94917 16.4861 8.94917C18.088 8.94917 19.3986 10.2598 19.3986 11.8616C19.3986 13.4634 18.088 14.774 16.4861 14.774C14.8843 14.774 13.5737 13.4634 13.5737 11.8616ZM31.0483 28.8508C29.4465 28.8508 28.1359 27.5402 28.1359 25.9384C28.1359 24.3365 29.4465 23.0259 31.0483 23.0259C32.6501 23.0259 33.9607 24.3365 33.9607 25.9384C33.9607 27.5402 32.6501 28.8508 31.0483 28.8508ZM40.271 9.43458C38.6692 9.43458 37.3586 8.12398 37.3586 6.52214C37.3586 4.9203 38.6692 3.6097 40.271 3.6097C41.8729 3.6097 43.1835 4.9203 43.1835 6.52214C43.1835 8.12398 41.8729 9.43458 40.271 9.43458Z" fill="#DCAD76"/>
</svg>
