<svg width="43" height="45" viewBox="0 0 43 45" fill="none" xmlns="http://www.w3.org/2000/svg">
<path fill-rule="evenodd" clip-rule="evenodd" d="M6.82108 9.62458C8.5625 9.62458 9.97419 8.21289 9.97419 6.47147C9.97419 4.73006 8.5625 3.31836 6.82108 3.31836C5.07967 3.31836 3.66797 4.73006 3.66797 6.47147C3.66797 8.21289 5.07967 9.62458 6.82108 9.62458ZM6.82108 12.6246C10.2194 12.6246 12.9742 9.86974 12.9742 6.47147C12.9742 3.0732 10.2194 0.318359 6.82108 0.318359C3.42281 0.318359 0.667969 3.0732 0.667969 6.47147C0.667969 9.86974 3.42281 12.6246 6.82108 12.6246Z" fill="#DCAD76"/>
<path fill-rule="evenodd" clip-rule="evenodd" d="M36.1765 9.62458C37.918 9.62458 39.3297 8.21289 39.3297 6.47147C39.3297 4.73006 37.918 3.31836 36.1765 3.31836C34.4351 3.31836 33.0234 4.73006 33.0234 6.47147C33.0234 8.21289 34.4351 9.62458 36.1765 9.62458ZM36.1765 12.6246C39.5748 12.6246 42.3297 9.86974 42.3297 6.47147C42.3297 3.0732 39.5748 0.318359 36.1765 0.318359C32.7783 0.318359 30.0234 3.0732 30.0234 6.47147C30.0234 9.86974 32.7783 12.6246 36.1765 12.6246Z" fill="#DCAD76"/>
<path d="M20.25 28.6973H23.25V42.25H20.25V28.6973Z" fill="#DCAD76"/>
<path d="M25.9863 36.0273L28.064 38.1914L21.9876 44.0251L19.91 41.8611L25.9863 36.0273Z" fill="#DCAD76"/>
<path d="M17.75 36.0273L15.6723 38.1914L21.7487 44.0251L23.8264 41.8611L17.75 36.0273Z" fill="#DCAD76"/>
<path d="M34.6777 10.5H37.6777V22.5004H34.6777V10.5Z" fill="#DCAD76"/>
<path d="M36.1777 19.9023L37.6777 22.5004L22.4447 31.2952L20.9447 28.6971L36.1777 19.9023Z" fill="#DCAD76"/>
<path d="M6.82031 19.9023L5.32031 22.5004L20.4868 31.2568L21.9868 28.6587L6.82031 19.9023Z" fill="#DCAD76"/>
<path d="M5.32031 10.5H8.32031V22.5004H5.32031V10.5Z" fill="#DCAD76"/>
</svg>
