<svg width="45" height="46" viewBox="0 0 45 46" fill="none" xmlns="http://www.w3.org/2000/svg">
<path fill-rule="evenodd" clip-rule="evenodd" d="M5.36391 23.7006L25.707 17.5913C26.559 17.3354 27.3962 17.7345 27.575 18.4825C27.7538 19.2305 27.2066 20.0453 26.3546 20.3012L4.17396 26.9623C3.32129 27.2184 2.4848 26.8195 2.30595 26.0711C1.78571 23.8943 2.57247 21.4686 4.4534 19.1561C6.96599 16.0662 11.5003 13.144 17.0252 11.4848C22.5501 9.82557 27.7804 9.81537 31.3345 11.0833C33.9948 12.0321 35.758 13.692 36.2782 15.8688C36.4571 16.6171 35.9105 17.4314 35.0579 17.6875L32.7496 18.3807C31.897 18.6367 31.0604 18.2374 30.8816 17.4895C30.7029 16.7415 31.2493 15.9269 32.102 15.6708L32.5726 15.5295C31.9773 14.7637 31.0379 14.1809 29.8799 13.7679C26.8498 12.687 22.3826 12.7802 17.6728 14.1946C12.963 15.609 9.0526 18.0317 6.91036 20.666C6.09171 21.6726 5.53801 22.7038 5.36391 23.7006Z" fill="#DCAD76"/>
<path fill-rule="evenodd" clip-rule="evenodd" d="M25.5614 20.7571C26.4326 20.4887 26.9908 19.6358 26.8081 18.8521C26.0608 15.6471 24.2704 13.1682 22.1913 11.9226C20.5626 10.9468 18.7423 10.6908 16.9971 11.2285C15.2519 11.7663 13.7871 13.0347 12.8012 14.816C11.5426 17.0901 11.0705 20.2662 11.8177 23.4712C12.0004 24.2549 12.8548 24.6725 13.726 24.4041L25.5614 20.7571ZM23.2318 18.4333C22.5626 16.656 21.4872 15.263 20.2204 14.5039C19.4085 14.0176 18.5286 13.7983 17.6587 14.0664C16.7888 14.3344 16.1223 15.0302 15.6308 15.9181C14.864 17.3038 14.5387 19.1285 14.7324 21.0523L23.2318 18.4333Z" fill="#DCAD76"/>
<path fill-rule="evenodd" clip-rule="evenodd" d="M14.7149 9.88391L15.4025 12.8158C15.5923 13.625 16.4804 14.0566 17.3848 13.7793C18.2893 13.5019 18.8694 12.6201 18.6796 11.8109L17.992 8.879C17.8022 8.0698 16.9141 7.63816 16.0096 7.91552C15.1052 8.19287 14.5251 9.07471 14.7149 9.88391Z" fill="#DCAD76"/>
<path fill-rule="evenodd" clip-rule="evenodd" d="M17.9903 22.0584L23.2141 43.0693C23.42 43.8977 24.3828 44.3394 25.363 44.0553C26.3432 43.7711 26.9716 42.8681 26.7657 42.0397L21.5419 21.0288C21.3359 20.2004 20.3732 19.7587 19.393 20.0428C18.4127 20.327 17.7843 21.23 17.9903 22.0584Z" fill="#DCAD76"/>
<path fill-rule="evenodd" clip-rule="evenodd" d="M24.9076 37.1907L15.2945 37.9409C14.897 37.9715 14.5035 37.8508 14.1931 37.6023L6.35394 31.331C5.6782 30.7901 5.56846 29.8031 6.10858 29.1274C6.64948 28.4517 7.63645 28.3419 8.31218 28.882L15.6676 34.7668L25.0973 34.0308C25.3811 34.0088 25.6656 34.0645 25.9204 34.1915L36.8952 39.6788C37.6689 40.0661 37.9832 41.0084 37.596 41.7821C37.2095 42.5566 36.2665 42.8709 35.4927 42.4837L24.9076 37.1907Z" fill="#DCAD76"/>
<path fill-rule="evenodd" clip-rule="evenodd" d="M12.1372 34.6065L7.68223 40.0938C7.13741 40.7656 7.23931 41.7542 7.91112 42.2998C8.58294 42.8446 9.57142 42.7427 10.117 42.0708L14.572 36.5835C15.1176 35.9116 15.0149 34.9231 14.3431 34.3775C13.6713 33.8327 12.6828 33.9346 12.1372 34.6065Z" fill="#DCAD76"/>
<path fill-rule="evenodd" clip-rule="evenodd" d="M32.7151 16.7131C31.6247 14.838 29.168 13.6919 26.1695 13.2513C25.5463 13.1596 25.0383 12.7042 24.8799 12.0951C24.6832 11.3386 24.5781 10.5437 24.5781 9.7253C24.5781 4.53345 28.7932 0.318359 33.9851 0.318359C39.1769 0.318359 43.392 4.53345 43.392 9.7253C43.392 14.8983 39.2075 19.1017 34.0407 19.1322C33.2521 19.1369 32.5827 18.5553 32.4776 17.7737C32.4259 17.3904 32.5176 17.0172 32.7151 16.7131ZM35.7379 15.7481C38.3476 14.9885 40.2564 12.578 40.2564 9.7253C40.2564 6.26433 37.446 3.45401 33.9851 3.45401C30.5241 3.45401 27.7138 6.26433 27.7138 9.7253C27.7138 9.93539 27.724 10.1439 27.7443 10.3485C31.5785 11.1567 34.4711 13.0946 35.7379 15.7481Z" fill="#DCAD76"/>
<path fill-rule="evenodd" clip-rule="evenodd" d="M2.62837 44.2187H43.3918C44.2572 44.2187 44.9596 43.5163 44.9596 42.6508C44.9596 41.7854 44.2572 41.083 43.3918 41.083H2.62837C1.76293 41.083 1.06055 41.7854 1.06055 42.6508C1.06055 43.5163 1.76293 44.2187 2.62837 44.2187Z" fill="#DCAD76"/>
</svg>
