<svg width="43" height="49" viewBox="0 0 43 49" fill="none" xmlns="http://www.w3.org/2000/svg">
<path d="M4.68637 14.4638H12.3815L8.70121 11.8001C7.49088 10.9225 8.20686 9.01517 9.67922 9.11974L17.6186 9.13519L20.0892 1.48044C20.5295 0.10611 22.473 0.125718 22.9091 1.48044L25.3803 9.13519L33.4272 9.11974C34.8657 9.11974 35.4421 10.9647 34.2953 11.7971L30.612 14.4655L38.3131 14.4638C40.5252 14.4638 42.3303 16.2724 42.3303 18.4816V44.4137C42.3303 46.6217 40.5217 48.4309 38.3131 48.4309H4.68578C2.47248 48.4309 0.667969 46.6276 0.667969 44.4137V18.4816C0.667969 16.2766 2.4808 14.4638 4.68578 14.4638H4.68637ZM16.962 20.7234C22.3245 16.8119 20.6738 16.8119 26.0363 20.7234C23.9846 14.4483 23.4498 15.9896 28.8408 12.0876C22.4492 12.1001 23.5235 13.0276 21.4991 6.75433C19.47 13.0413 20.7737 12.1007 14.1581 12.0876C19.6899 16.0912 18.9406 14.6729 16.962 20.7234ZM28.0808 17.4346L29.2609 21.0431L30.281 24.1637H30.2816L30.2923 24.1999L30.2941 24.2047L30.2995 24.2255L30.3048 24.2462L30.3102 24.267L30.3119 24.2736L30.3149 24.2878L30.3197 24.3086L30.3203 24.3104L30.3238 24.3294C30.6025 25.7055 28.981 26.6503 27.915 25.7549L21.4991 21.0751L15.0832 25.7549C13.9537 26.7038 12.2562 25.5843 12.7172 24.1637L14.9181 17.4346H4.68637C4.10586 17.4346 3.63944 17.9011 3.63944 18.4816V44.4137C3.63944 44.9859 4.11418 45.4601 4.68637 45.4601H38.3137C38.8871 45.4601 39.36 44.9883 39.36 44.4137V18.4816C39.36 17.9064 38.8906 17.4346 38.3137 17.4346H28.0814H28.0808ZM11.6525 39.8267C9.69883 39.8267 9.69883 36.8558 11.6525 36.8558H30.0273C31.981 36.8558 31.981 39.8267 30.0273 39.8267H11.6525ZM11.6525 32.9616C9.69883 32.9616 9.69883 29.9907 11.6525 29.9907H30.0273C31.981 29.9907 31.981 32.9616 30.0273 32.9616H11.6525Z" fill="#DCAD76"/>
</svg>
