<svg width="34" height="29" viewBox="0 0 34 29" fill="none" xmlns="http://www.w3.org/2000/svg">
<path d="M5.02578 9.9498C3.74245 9.9498 2.69245 9.51647 1.87578 8.64981C1.07578 7.76647 0.675781 6.59147 0.675781 5.1248C0.675781 3.65814 1.07578 2.49147 1.87578 1.62481C2.69245 0.741473 3.74245 0.299805 5.02578 0.299805C6.30911 0.299805 7.35078 0.741473 8.15078 1.62481C8.95078 2.49147 9.35078 3.65814 9.35078 5.1248C9.35078 6.59147 8.95078 7.76647 8.15078 8.64981C7.35078 9.51647 6.30911 9.9498 5.02578 9.9498ZM15.4508 0.499804H18.4258L6.47578 17.9998H3.50078L15.4508 0.499804ZM5.02578 7.89981C5.59245 7.89981 6.03411 7.66647 6.35078 7.1998C6.68411 6.73314 6.85078 6.04147 6.85078 5.1248C6.85078 4.20814 6.68411 3.51647 6.35078 3.0498C6.03411 2.58314 5.59245 2.3498 5.02578 2.3498C4.47578 2.3498 4.03411 2.59147 3.70078 3.07481C3.36745 3.54147 3.20078 4.2248 3.20078 5.1248C3.20078 6.0248 3.36745 6.71647 3.70078 7.1998C4.03411 7.66647 4.47578 7.89981 5.02578 7.89981ZM16.9008 18.1998C16.0674 18.1998 15.3174 18.0081 14.6508 17.6248C14.0008 17.2248 13.4924 16.6581 13.1258 15.9248C12.7591 15.1915 12.5758 14.3415 12.5758 13.3748C12.5758 12.4081 12.7591 11.5581 13.1258 10.8248C13.4924 10.0915 14.0008 9.53314 14.6508 9.14981C15.3174 8.7498 16.0674 8.5498 16.9008 8.5498C18.1841 8.5498 19.2258 8.99147 20.0258 9.87481C20.8424 10.7415 21.2508 11.9081 21.2508 13.3748C21.2508 14.8415 20.8424 16.0165 20.0258 16.8998C19.2258 17.7665 18.1841 18.1998 16.9008 18.1998ZM16.9008 16.1498C17.4674 16.1498 17.9091 15.9165 18.2258 15.4498C18.5591 14.9665 18.7258 14.2748 18.7258 13.3748C18.7258 12.4748 18.5591 11.7915 18.2258 11.3248C17.9091 10.8415 17.4674 10.5998 16.9008 10.5998C16.3508 10.5998 15.9091 10.8331 15.5758 11.2998C15.2424 11.7665 15.0758 12.4581 15.0758 13.3748C15.0758 14.2915 15.2424 14.9831 15.5758 15.4498C15.9091 15.9165 16.3508 16.1498 16.9008 16.1498Z" fill="#DCAD76"/>
<rect x="21" y="22" width="3" height="7" rx="1.5" fill="#DCAD76"/>
<rect x="26" y="12" width="3" height="17" rx="1.5" fill="#DCAD76"/>
<rect x="31" y="5" width="3" height="24" rx="1.5" fill="#DCAD76"/>
</svg>
