<svg width="26" height="36" viewBox="0 0 26 36" fill="none" xmlns="http://www.w3.org/2000/svg">
<path d="M13.3268 27.3238C15.6737 27.3238 17.1421 26.3323 17.1421 24.3745C17.1421 22.4041 15.6737 21.4126 13.3268 21.4126H9.52402V28.0266H8.30664V29.0683H9.52402V30.1978H11.5697V29.0683H14.2806V28.0266H11.5697V27.3238H13.3268ZM15.0838 24.387C15.0838 25.253 14.4438 25.7299 13.3142 25.7299H11.5697V23.0692H13.3142C14.4438 23.0692 15.0838 23.5336 15.0838 24.387Z" fill="#DCAD76"/>
<path d="M2.42403 25.7965C2.42403 29.573 3.96007 33.576 8.32685 33.576H17.6652C22.0319 33.576 23.5685 29.573 23.5685 25.7965C23.5685 21.3245 19.6256 12.166 14.771 11.1229C14.6206 11.1615 14.444 11.1708 14.2888 11.1881C14.6723 11.7905 15.1731 12.5997 15.8137 13.6736C16.6286 15.0359 14.5549 16.2761 13.74 14.9138C13.2285 14.0561 12.8157 13.382 12.4863 12.855C12.0628 14.051 11.6128 15.7724 11.4889 17.8978C11.4022 19.4861 8.98749 19.3537 9.07461 17.7655C9.22695 15.1435 9.84007 13.0228 10.3744 11.6218C10.2039 11.6405 10.026 11.6661 9.85591 11.6777C5.55201 15.0158 2.42403 20.2566 2.42403 25.7965ZM13.9646 8.78968L16.008 2.90548C13.0426 3.17663 12.3661 5.4376 8.68047 4.36279L10.2389 9.20246L13.9646 8.78968ZM0 25.7965C0 19.699 3.29524 13.8954 7.9574 10.1026L5.02975 0.586283C13.8365 4.80539 11.9529 -1.99056 19.3195 0.613305L16.4077 9.11114C21.8023 11.2738 25.992 20.3279 25.992 25.7965C25.992 30.967 23.4343 36 17.6652 36H8.32685C2.55774 36 0 30.967 0 25.7965Z" fill="#DCAD76"/>
</svg>
