<svg width="36" height="36" viewBox="0 0 36 36" fill="none" xmlns="http://www.w3.org/2000/svg">
<path d="M25.5 13.5H4.5C3.30653 13.5 2.16193 13.0259 1.31802 12.182C0.474106 11.3381 0 10.1935 0 9L0 4.5C0 3.30653 0.474106 2.16193 1.31802 1.31802C2.16193 0.474106 3.30653 0 4.5 0L25.5 0C26.6935 0 27.8381 0.474106 28.682 1.31802C29.5259 2.16193 30 3.30653 30 4.5V9C30 10.1935 29.5259 11.3381 28.682 12.182C27.8381 13.0259 26.6935 13.5 25.5 13.5ZM4.5 3C4.10218 3 3.72064 3.15804 3.43934 3.43934C3.15804 3.72064 3 4.10218 3 4.5V9C3 9.39782 3.15804 9.77936 3.43934 10.0607C3.72064 10.342 4.10218 10.5 4.5 10.5H25.5C25.8978 10.5 26.2794 10.342 26.5607 10.0607C26.842 9.77936 27 9.39782 27 9V4.5C27 4.10218 26.842 3.72064 26.5607 3.43934C26.2794 3.15804 25.8978 3 25.5 3H4.5Z" fill="#DCAD76"/>
<path d="M16.5 24C16.1022 24 15.7206 23.842 15.4393 23.5607C15.158 23.2794 15 22.8978 15 22.5V19.5C15 18.3065 15.4741 17.1619 16.318 16.318C17.1619 15.4741 18.3065 15 19.5 15H31.5C31.8978 15 32.2794 14.842 32.5607 14.5607C32.842 14.2794 33 13.8978 33 13.5V9C33 8.60218 32.842 8.22064 32.5607 7.93934C32.2794 7.65804 31.8978 7.5 31.5 7.5H28.5C28.1022 7.5 27.7206 7.34196 27.4393 7.06066C27.158 6.77936 27 6.39782 27 6C27 5.60218 27.158 5.22064 27.4393 4.93934C27.7206 4.65804 28.1022 4.5 28.5 4.5H31.5C32.6935 4.5 33.8381 4.97411 34.682 5.81802C35.5259 6.66193 36 7.80653 36 9V13.5C36 14.6935 35.5259 15.8381 34.682 16.682C33.8381 17.5259 32.6935 18 31.5 18H19.5C19.1022 18 18.7206 18.158 18.4393 18.4393C18.158 18.7206 18 19.1022 18 19.5V22.5C18 22.8978 17.842 23.2794 17.5607 23.5607C17.2794 23.842 16.8978 24 16.5 24Z" fill="#DCAD76"/>
<path d="M21 36H12C11.6022 36 11.2206 35.842 10.9393 35.5607C10.658 35.2794 10.5 34.8978 10.5 34.5V25.5C10.5 24.3065 10.9741 23.1619 11.818 22.318C12.6619 21.4741 13.8065 21 15 21H18C19.1935 21 20.3381 21.4741 21.182 22.318C22.0259 23.1619 22.5 24.3065 22.5 25.5V34.5C22.5 34.8978 22.342 35.2794 22.0607 35.5607C21.7794 35.842 21.3978 36 21 36ZM13.5 33H19.5V25.5C19.5 25.1022 19.342 24.7206 19.0607 24.4393C18.7794 24.158 18.3978 24 18 24H15C14.6022 24 14.2206 24.158 13.9393 24.4393C13.658 24.7206 13.5 25.1022 13.5 25.5V33Z" fill="#DCAD76"/>
</svg>
