<svg width="36" height="25" viewBox="0 0 36 25" fill="none" xmlns="http://www.w3.org/2000/svg">
<path d="M34.8002 3.59998H30.497L27.2486 0.351599C27.0242 0.126 26.7194 0 26.4002 0H18.0003C17.6811 0 17.3763 0.126 17.1519 0.351599L11.6487 5.85477C10.2447 7.25877 10.2447 9.54115 11.6487 10.9451L11.8551 11.1515C13.2591 12.5555 15.5415 12.5555 16.9455 11.1515L21.2487 6.84837C21.7178 6.37917 21.7178 5.62077 21.2487 5.15158C20.7795 4.68238 20.0211 4.68238 19.5519 5.15158L15.2487 9.45475C14.7987 9.90235 14.0019 9.90235 13.5519 9.45475L13.3455 9.24836C13.1211 9.02276 12.9975 8.72276 12.9975 8.39996C12.9975 8.07716 13.1223 7.77596 13.3455 7.55156L18.4971 2.39999H25.9034L29.1518 5.64837C29.3762 5.87397 29.681 5.99997 30.0002 5.99997H33.6002V15.5999H30.0002C29.3366 15.5999 28.8002 16.1363 28.8002 16.7999C28.8002 17.4635 29.3366 17.9999 30.0002 17.9999H34.8002C35.4638 17.9999 36.0002 17.4635 36.0002 16.7999V4.79998C36.0002 4.13638 35.4638 3.59998 34.8002 3.59998Z" fill="#DCAD76"/>
<path d="M22.4483 9.95155C21.9791 9.48236 21.2207 9.48236 20.7515 9.95155C20.2823 10.4208 20.2823 11.1791 20.7515 11.6483L25.0595 15.9563C25.4135 16.3103 25.5515 16.6907 25.4819 17.1203C25.3547 17.9123 24.5615 18.7787 23.4635 19.3271C22.0379 20.0411 20.2127 20.3723 19.3427 20.2643C18.9647 20.2139 18.5879 20.3555 18.3263 20.6327C17.3147 21.7067 15.8771 22.3583 14.4803 22.3787C13.6703 22.3871 13.0691 22.1723 12.8483 21.9527L6.84957 15.9539C6.73917 15.8423 6.60597 15.7547 6.45837 15.6935C6.31197 15.6311 6.15597 15.5999 5.99997 15.5999H2.39999V5.99997H5.99997C6.31917 5.99997 6.62397 5.87397 6.84837 5.64837L10.0968 2.39999H13.1999C13.8635 2.39999 14.3999 1.86359 14.3999 1.19999C14.3999 0.536398 13.8635 0 13.1999 0H9.59995C9.28076 0 8.97596 0.126 8.75156 0.351599L5.50317 3.59998H1.19999C0.536398 3.59998 0 4.13638 0 4.79998V16.7999C0 17.4635 0.536398 17.9999 1.19999 17.9999H5.50317L11.1515 23.6483C11.8727 24.3695 13.0583 24.7775 14.4179 24.7775C14.4503 24.7775 14.4839 24.7775 14.5163 24.7763C16.3931 24.7499 18.2411 23.9927 19.6643 22.6823C19.6751 22.6823 19.6859 22.6823 19.6943 22.6823C21.1343 22.6823 23.0579 22.2119 24.5363 21.4727C26.3555 20.5631 27.5951 19.0787 27.8507 17.5031C28.0439 16.3103 27.6551 15.1571 26.7563 14.2583L22.4483 9.95155Z" fill="#DCAD76"/>
</svg>
