<svg width="37" height="36" viewBox="0 0 37 36" fill="none" xmlns="http://www.w3.org/2000/svg">
<path d="M32.142 32.1568C34.8134 32.1568 36.4849 31.0282 36.4849 28.7997C36.4849 26.5568 34.8134 25.4282 32.142 25.4282H27.8134V32.9568H26.4277V34.1425H27.8134V35.4282H30.142V34.1425H33.2277V32.9568H30.142V32.1568H32.142ZM34.142 28.8139C34.142 29.7997 33.4134 30.3425 32.1277 30.3425H30.142V27.3139H32.1277C33.4134 27.3139 34.142 27.8425 34.142 28.8139Z" fill="#DCAD76"/>
<path d="M26.0723 13.5H5.07227C3.87879 13.5 2.7342 13.0259 1.89029 12.182C1.04637 11.3381 0.572266 10.1935 0.572266 9L0.572266 4.5C0.572266 3.30653 1.04637 2.16193 1.89029 1.31802C2.7342 0.474106 3.87879 0 5.07227 0L26.0723 0C27.2657 0 28.4103 0.474106 29.2542 1.31802C30.0982 2.16193 30.5723 3.30653 30.5723 4.5V9C30.5723 10.1935 30.0982 11.3381 29.2542 12.182C28.4103 13.0259 27.2657 13.5 26.0723 13.5ZM5.07227 3C4.67444 3 4.29291 3.15804 4.01161 3.43934C3.7303 3.72064 3.57227 4.10218 3.57227 4.5V9C3.57227 9.39782 3.7303 9.77936 4.01161 10.0607C4.29291 10.342 4.67444 10.5 5.07227 10.5H26.0723C26.4701 10.5 26.8516 10.342 27.1329 10.0607C27.4142 9.77936 27.5723 9.39782 27.5723 9V4.5C27.5723 4.10218 27.4142 3.72064 27.1329 3.43934C26.8516 3.15804 26.4701 3 26.0723 3H5.07227Z" fill="#DCAD76"/>
<path d="M17.0723 24C16.6744 24 16.2929 23.842 16.0116 23.5607C15.7303 23.2794 15.5723 22.8978 15.5723 22.5V19.5C15.5723 18.3065 16.0464 17.1619 16.8903 16.318C17.7342 15.4741 18.8788 15 20.0723 15H32.0723C32.4701 15 32.8516 14.842 33.1329 14.5607C33.4142 14.2794 33.5723 13.8978 33.5723 13.5V9C33.5723 8.60218 33.4142 8.22064 33.1329 7.93934C32.8516 7.65804 32.4701 7.5 32.0723 7.5H29.0723C28.6744 7.5 28.2929 7.34196 28.0116 7.06066C27.7303 6.77936 27.5723 6.39782 27.5723 6C27.5723 5.60218 27.7303 5.22064 28.0116 4.93934C28.2929 4.65804 28.6744 4.5 29.0723 4.5H32.0723C33.2657 4.5 34.4103 4.97411 35.2542 5.81802C36.0982 6.66193 36.5723 7.80653 36.5723 9V13.5C36.5723 14.6935 36.0982 15.8381 35.2542 16.682C34.4103 17.5259 33.2657 18 32.0723 18H20.0723C19.6744 18 19.2929 18.158 19.0116 18.4393C18.7303 18.7206 18.5723 19.1022 18.5723 19.5V22.5C18.5723 22.8978 18.4142 23.2794 18.1329 23.5607C17.8516 23.842 17.4701 24 17.0723 24Z" fill="#DCAD76"/>
<path d="M21.5723 36H12.5723C12.1744 36 11.7929 35.842 11.5116 35.5607C11.2303 35.2794 11.0723 34.8978 11.0723 34.5V25.5C11.0723 24.3065 11.5464 23.1619 12.3903 22.318C13.2342 21.4741 14.3788 21 15.5723 21H18.5723C19.7657 21 20.9103 21.4741 21.7542 22.318C22.5982 23.1619 23.0723 24.3065 23.0723 25.5V34.5C23.0723 34.8978 22.9142 35.2794 22.6329 35.5607C22.3516 35.842 21.9701 36 21.5723 36ZM14.0723 33H20.0723V25.5C20.0723 25.1022 19.9142 24.7206 19.6329 24.4393C19.3516 24.158 18.9701 24 18.5723 24H15.5723C15.1744 24 14.7929 24.158 14.5116 24.4393C14.2303 24.7206 14.0723 25.1022 14.0723 25.5V33Z" fill="#DCAD76"/>
<rect width="2.85714" height="16.2857" transform="matrix(1 0 0 -1 2.85742 33.1426)" fill="#DCAD76"/>
<path d="M4.28571 36L7.99725 29.5714H0.574177L4.28571 36Z" fill="#DCAD76"/>
</svg>
