<svg width="36" height="36" viewBox="0 0 36 36" fill="none" xmlns="http://www.w3.org/2000/svg">
<path fill-rule="evenodd" clip-rule="evenodd" d="M32.9999 23.9999C32.9999 24.829 32.329 25.4999 31.4999 25.4999C30.6709 25.4999 30 24.829 30 23.9999C30 23.1709 30.6709 22.5 31.4999 22.5C32.329 22.5 32.9999 23.1709 32.9999 23.9999ZM35.9999 23.9999C35.9999 21.514 33.9858 19.5 31.4999 19.5C29.014 19.5 27 21.514 27 23.9999C27 26.4858 29.014 28.4999 31.4999 28.4999C33.9858 28.4999 35.9999 26.4858 35.9999 23.9999Z" fill="#DCAD76"/>
<path fill-rule="evenodd" clip-rule="evenodd" d="M15.6822 25.4996C15.4272 25.4996 14.9998 24.9122 14.9998 23.9996C14.9998 23.087 15.4272 22.4996 15.6822 22.4996H17.9997C18.8281 22.4996 19.4997 21.8281 19.4997 20.9997V1.49998C19.4997 0.671562 18.8281 0 17.9997 0H1.49997C0.671562 0 0 0.671562 0 1.49998V34.4994C0 35.3278 0.671562 35.9994 1.49997 35.9994H17.9997C18.8281 35.9994 19.4997 35.3278 19.4997 34.4994V26.9996C19.4997 26.1711 18.8281 25.4996 17.9997 25.4996H15.6822ZM16.4997 32.9995H2.99995V2.99995H16.4997V19.4997H15.6822C13.5274 19.4997 11.9998 21.5985 11.9998 23.9996C11.9998 26.4007 13.5274 28.4995 15.6822 28.4995H16.4997V32.9995Z" fill="#DCAD76"/>
<path fill-rule="evenodd" clip-rule="evenodd" d="M29.9997 23.9999C29.9997 23.1709 30.6706 22.5 31.4997 22.5V19.5H15.6824C13.5264 19.5 12 21.5982 12 23.9999C12 26.4016 13.5264 28.4999 15.6824 28.4999H31.4997V25.4999C30.6706 25.4999 29.9997 24.829 29.9997 23.9999ZM15.6824 25.4999C15.4267 25.4999 14.9999 24.9133 14.9999 23.9999C14.9999 23.0865 15.4267 22.5 15.6824 22.5H27.2556C27.0899 22.9691 26.9998 23.4739 26.9998 23.9999C26.9998 24.5259 27.0899 25.0308 27.2556 25.4999H15.6824Z" fill="#DCAD76"/>
<path fill-rule="evenodd" clip-rule="evenodd" d="M16.5 1.49997V20.9996C16.5 21.8281 17.1716 22.4996 18 22.4996H31.4998C32.3288 22.4996 32.9997 23.1705 32.9997 23.9996H35.9997V1.49997C35.9997 0.671562 35.3281 0 34.4997 0H18C17.1716 0 16.5 0.671562 16.5 1.49997ZM32.9997 2.99995V19.7556C32.5306 19.5898 32.0257 19.4997 31.4998 19.4997H19.4999V2.99995H32.9997Z" fill="#DCAD76"/>
</svg>
