<svg width="29" height="29" viewBox="0 0 29 29" fill="none" xmlns="http://www.w3.org/2000/svg">
<path d="M24.1667 0H4.83333C3.55145 0 2.32208 0.509225 1.41565 1.41565C0.509225 2.32208 0 3.55145 0 4.83333L0 24.1667C0 25.4485 0.509225 26.6779 1.41565 27.5843C2.32208 28.4908 3.55145 29 4.83333 29H24.1667C25.4485 29 26.6779 28.4908 27.5843 27.5843C28.4908 26.6779 29 25.4485 29 24.1667V4.83333C29 3.55145 28.4908 2.32208 27.5843 1.41565C26.6779 0.509225 25.4485 0 24.1667 0V0ZM26.5833 24.1667C26.5833 24.8076 26.3287 25.4223 25.8755 25.8755C25.4223 26.3287 24.8076 26.5833 24.1667 26.5833H4.83333C4.19239 26.5833 3.5777 26.3287 3.12449 25.8755C2.67128 25.4223 2.41667 24.8076 2.41667 24.1667V4.83333C2.41667 4.19239 2.67128 3.5777 3.12449 3.12449C3.5777 2.67128 4.19239 2.41667 4.83333 2.41667H24.1667C24.8076 2.41667 25.4223 2.67128 25.8755 3.12449C26.3287 3.5777 26.5833 4.19239 26.5833 4.83333V24.1667Z" fill="white"/>
<path d="M14.5 7C13.0166 7 11.5666 7.43987 10.3332 8.26398C9.09986 9.08809 8.13856 10.2594 7.57091 11.6299C7.00325 13.0003 6.85472 14.5083 7.14411 15.9632C7.4335 17.418 8.14781 18.7544 9.1967 19.8033C10.2456 20.8522 11.582 21.5665 13.0368 21.8559C14.4917 22.1453 15.9997 21.9968 17.3701 21.4291C18.7406 20.8614 19.9119 19.9001 20.736 18.6668C21.5601 17.4334 22 15.9834 22 14.5C22 12.5109 21.2098 10.6032 19.8033 9.1967C18.3968 7.79018 16.4891 7 14.5 7ZM14.5 19.5C13.5111 19.5 12.5444 19.2068 11.7222 18.6573C10.8999 18.1079 10.259 17.327 9.8806 16.4134C9.50217 15.4998 9.40315 14.4945 9.59608 13.5245C9.789 12.5546 10.2652 11.6637 10.9645 10.9645C11.6637 10.2652 12.5546 9.789 13.5246 9.59607C14.4945 9.40315 15.4998 9.50216 16.4134 9.8806C17.3271 10.259 18.1079 10.8999 18.6573 11.7221C19.2068 12.5444 19.5 13.5111 19.5 14.5C19.5 15.8261 18.9732 17.0979 18.0355 18.0355C17.0979 18.9732 15.8261 19.5 14.5 19.5Z" fill="white"/>
<path d="M22 9C23.1046 9 24 8.10457 24 7C24 5.89543 23.1046 5 22 5C20.8954 5 20 5.89543 20 7C20 8.10457 20.8954 9 22 9Z" fill="white"/>
</svg>
