<svg width="103" height="49" viewBox="0 0 103 49" fill="none" xmlns="http://www.w3.org/2000/svg">
<path d="M72.5781 0.39502V33.9837H80.4462V17.1894L102.084 33.9837V0.785586H94.2154V17.3847L72.5781 0.39502Z" fill="#DCAD76"/>
<path fill-rule="evenodd" clip-rule="evenodd" d="M39.0938 34.0227V0.391113H58.0604C64.3175 0.391113 68.0326 5.86603 68.0326 11.5365C68.0326 17.2069 64.513 22.6818 58.0604 22.6818H46.9151V34.0227H39.0938ZM46.9149 7.82157H57.6692C59.2335 7.82157 60.2111 9.38583 60.2111 11.3412C60.2111 13.6876 59.429 15.2518 57.6692 15.2518H46.9149V7.82157Z" fill="#DCAD76"/>
<path fill-rule="evenodd" clip-rule="evenodd" d="M17.0113 34.0227C26.4065 34.0227 34.0227 26.4065 34.0227 17.0113C34.0227 7.61624 26.4065 0 17.0113 0C7.61624 0 0 7.61624 0 17.0113C0 26.4065 7.61624 34.0227 17.0113 34.0227ZM16.8155 26.5927C21.999 26.5927 26.2011 22.3907 26.2011 17.2071C26.2011 12.0236 21.999 7.82157 16.8155 7.82157C11.632 7.82157 7.42996 12.0236 7.42996 17.2071C7.42996 22.3907 11.632 26.5927 16.8155 26.5927Z" fill="#DCAD76"/>
<path d="M5.75477 46.3357V48.9996H4.1582V41.439H7.18103C7.76289 41.439 8.2738 41.5428 8.71374 41.7505C9.15723 41.9582 9.49783 42.2542 9.73554 42.6385C9.97325 43.0193 10.0921 43.4537 10.0921 43.9419C10.0921 44.6827 9.83133 45.2677 9.30979 45.697C8.79179 46.1228 8.07334 46.3357 7.15443 46.3357H5.75477ZM5.75477 45.0739H7.18103C7.60324 45.0739 7.92432 44.9769 8.1443 44.7831C8.36782 44.5892 8.47957 44.3123 8.47957 43.9522C8.47957 43.5818 8.36782 43.2824 8.1443 43.0539C7.92078 42.8254 7.61211 42.7077 7.21829 42.7008H5.75477V45.0739Z" fill="#DCAD76"/>
<path d="M23.016 47.4417H20.1577L19.6143 48.9996H17.8809L20.8261 41.439H22.3367L25.2982 48.9996H23.5648L23.016 47.4417ZM20.5978 46.1799H22.5758L21.5814 43.3499L20.5978 46.1799Z" fill="#DCAD76"/>
<path d="M37.7618 46.2318H36.5112V48.9996H34.9414V41.439H37.7723C38.6723 41.439 39.3665 41.638 39.8549 42.0361C40.3433 42.4342 40.5875 42.9968 40.5875 43.7238C40.5875 44.2396 40.4741 44.6706 40.2474 45.0167C40.0241 45.3595 39.684 45.633 39.227 45.8372L40.8753 48.9269V48.9996H39.1904L37.7618 46.2318ZM36.5112 44.97H37.7775C38.1717 44.97 38.477 44.8714 38.6933 44.674C38.9096 44.4732 39.0177 44.198 39.0177 43.8484C39.0177 43.4918 38.9148 43.2114 38.709 43.0072C38.5066 42.8029 38.1944 42.7008 37.7723 42.7008H36.5112V44.97Z" fill="#DCAD76"/>
<path d="M55.7091 42.7008H53.3381V48.9996H51.7433V42.7008H49.4043V41.439H55.7091V42.7008Z" fill="#DCAD76"/>
<path d="M71.6563 48.9996H70.0588L66.9491 44.0249V48.9996H65.3516V41.439H66.9491L70.0642 46.424V41.439H71.6563V48.9996Z" fill="#DCAD76"/>
<path d="M86.3301 45.723H83.2659V47.7481H86.8621V48.9996H81.6699V41.439H86.8514V42.7008H83.2659V44.5027H86.3301V45.723Z" fill="#DCAD76"/>
<path d="M98.9552 46.2318H97.7046V48.9996H96.1348V41.439H98.9657C99.8657 41.439 100.56 41.638 101.048 42.0361C101.537 42.4342 101.781 42.9968 101.781 43.7238C101.781 44.2396 101.667 44.6706 101.441 45.0167C101.217 45.3595 100.877 45.633 100.42 45.8372L102.069 48.9269V48.9996H100.384L98.9552 46.2318ZM97.7046 44.97H98.9709C99.3651 44.97 99.6703 44.8714 99.8866 44.674C100.103 44.4732 100.211 44.198 100.211 43.8484C100.211 43.4918 100.108 43.2114 99.9023 43.0072C99.7 42.8029 99.3878 42.7008 98.9657 42.7008H97.7046V44.97Z" fill="#DCAD76"/>
</svg>
