<svg width="50" height="58" viewBox="0 0 50 58" fill="none" xmlns="http://www.w3.org/2000/svg">
<path d="M24.9997 36C11.1924 36 0 40.2179 0 45.4206V58L10.0137 52.9615C14.19 54.1419 19.3782 54.8413 25.0003 54.8413C38.8069 54.8413 50 50.6234 50 45.4206C50 40.2179 38.8063 36 24.9997 36Z" fill="black" fill-opacity="0.5"/>
<path d="M24.9997 0C11.1924 0 0 11.1199 0 24.8362V58L10.0137 44.7167C14.19 47.8287 19.3782 49.6725 25.0003 49.6725C38.8069 49.6725 50 38.5526 50 24.8362C50 11.1199 38.8063 0 24.9997 0Z" fill="#DCAD76"/>
<path d="M19 27V41H22.2V34L31 41V27.1628H27.8V34.0814L19 27Z" fill="#1C1C1C"/>
<path fill-rule="evenodd" clip-rule="evenodd" d="M27.8105 25.166V11H35.7995C38.435 11 39.9999 13.3061 39.9999 15.6945C39.9999 18.083 38.5174 20.3891 35.7995 20.3891H31.105V25.166H27.8105ZM31.1049 14.1294H35.6347C36.2936 14.1294 36.7054 14.7883 36.7054 15.6119C36.7054 16.6002 36.376 17.2591 35.6347 17.2591H31.1049V14.1294Z" fill="#1C1C1C"/>
<path fill-rule="evenodd" clip-rule="evenodd" d="M17.1653 25.3307C21.1226 25.3307 24.3307 22.1226 24.3307 18.1653C24.3307 14.208 21.1226 11 17.1653 11C13.208 11 10 14.208 10 18.1653C10 22.1226 13.208 25.3307 17.1653 25.3307ZM17.0828 22.201C19.2661 22.201 21.0361 20.4311 21.0361 18.2478C21.0361 16.0644 19.2661 14.2945 17.0828 14.2945C14.8995 14.2945 13.1295 16.0644 13.1295 18.2478C13.1295 20.4311 14.8995 22.201 17.0828 22.201Z" fill="#1C1C1C"/>
</svg>
