<svg width="372" height="213" viewBox="0 0 372 213" fill="none" xmlns="http://www.w3.org/2000/svg">
<g filter="url(#filter0_d)">
<path d="M200.095 20H43.9048C41.7571 20 40 21.7571 40 23.9048V117.619C40 119.767 41.7571 121.524 43.9048 121.524H109.114L72.9952 145.616C71.199 146.827 70.7305 149.248 71.9019 151.044C72.6438 152.137 73.8933 152.762 75.1429 152.762C75.8848 152.762 76.6267 152.567 77.2905 152.098L118.095 124.921V148.857C118.095 151.005 119.852 152.762 122 152.762C124.148 152.762 125.905 151.005 125.905 148.857V124.921L166.71 152.098C168.506 153.309 170.927 152.801 172.137 151.005C173.348 149.209 172.84 146.788 171.044 145.577L134.886 121.524H200.095C202.243 121.524 204 119.767 204 117.619V23.9048C204 21.7571 202.243 20 200.095 20ZM196.19 113.714H47.8095V27.8095H196.19V113.714Z" fill="#DCAD76"/>
<path d="M161.047 98.0955H176.666C178.814 98.0955 180.571 96.3384 180.571 94.1908V70.7622C180.571 68.6146 178.814 66.8574 176.666 66.8574H161.047C158.9 66.8574 157.143 68.6146 157.143 70.7622V94.1908C157.143 96.3384 158.9 98.0955 161.047 98.0955ZM164.952 74.6669H172.762V90.286H164.952V74.6669Z" fill="#DCAD76"/>
<path d="M129.809 98.0955H145.428C147.576 98.0955 149.333 96.3383 149.333 94.1907V62.9526C149.333 60.805 147.576 59.0479 145.428 59.0479H129.809C127.661 59.0479 125.904 60.805 125.904 62.9526V94.1907C125.904 96.3383 127.661 98.0955 129.809 98.0955ZM133.714 66.8574H141.523V90.2859H133.714V66.8574Z" fill="#DCAD76"/>
<path d="M98.5708 98.0954H114.19C116.337 98.0954 118.095 96.3382 118.095 94.1906V47.3335C118.095 45.1859 116.337 43.4287 114.19 43.4287H98.5708C96.4232 43.4287 94.666 45.1859 94.666 47.3335V94.1906C94.666 96.3382 96.4232 98.0954 98.5708 98.0954ZM102.476 51.2382H110.285V90.2859H102.476V51.2382Z" fill="#DCAD76"/>
<path d="M67.3325 98.0954H82.9515C85.0992 98.0954 86.8563 96.3383 86.8563 94.1907V55.143C86.8563 52.9954 85.0992 51.2383 82.9515 51.2383H67.3325C65.1849 51.2383 63.4277 52.9954 63.4277 55.143V94.1907C63.4277 96.3383 65.1849 98.0954 67.3325 98.0954ZM71.2373 59.0478H79.0468V90.2859H71.2373V59.0478Z" fill="#DCAD76"/>
<path d="M301.578 51.3955V84.9842H309.446V68.1899L331.084 84.9842V51.7861H323.215V68.3852L301.578 51.3955Z" fill="#DCAD76"/>
<path fill-rule="evenodd" clip-rule="evenodd" d="M268.094 85.0223V51.3906H287.06C293.317 51.3906 297.033 56.8655 297.033 62.536C297.033 68.2064 293.513 73.6814 287.06 73.6814H275.915V85.0223H268.094ZM275.915 58.8211H286.669C288.233 58.8211 289.211 60.3853 289.211 62.3407C289.211 64.6871 288.429 66.2513 286.669 66.2513H275.915V58.8211Z" fill="#DCAD76"/>
<path fill-rule="evenodd" clip-rule="evenodd" d="M246.011 85.0227C255.406 85.0227 263.023 77.4065 263.023 68.0113C263.023 58.6162 255.406 51 246.011 51C236.616 51 229 58.6162 229 68.0113C229 77.4065 236.616 85.0227 246.011 85.0227ZM245.816 77.5927C250.999 77.5927 255.201 73.3907 255.201 68.2071C255.201 63.0236 250.999 58.8216 245.816 58.8216C240.632 58.8216 236.43 63.0236 236.43 68.2071C236.43 73.3907 240.632 77.5927 245.816 77.5927Z" fill="#DCAD76"/>
<path d="M234.755 97.3362V100H233.158V92.4395H236.181C236.763 92.4395 237.274 92.5433 237.714 92.751C238.157 92.9587 238.498 93.2547 238.736 93.639C238.973 94.0198 239.092 94.4542 239.092 94.9423C239.092 95.6832 238.831 96.2682 238.31 96.6975C237.792 97.1233 237.073 97.3362 236.154 97.3362H234.755ZM234.755 96.0744H236.181C236.603 96.0744 236.924 95.9774 237.144 95.7836C237.368 95.5897 237.48 95.3128 237.48 94.9527C237.48 94.5823 237.368 94.2829 237.144 94.0544C236.921 93.8259 236.612 93.7082 236.218 93.7013H234.755V96.0744Z" fill="#DCAD76"/>
<path d="M252.016 98.4422H249.158L248.614 100H246.881L249.826 92.4395H251.337L254.298 100H252.565L252.016 98.4422ZM249.598 97.1804H251.576L250.581 94.3504L249.598 97.1804Z" fill="#DCAD76"/>
<path d="M266.762 97.2323H265.511V100H263.941V92.4395H266.772C267.672 92.4395 268.367 92.6385 268.855 93.0366C269.343 93.4347 269.588 93.9973 269.588 94.7242C269.588 95.2401 269.474 95.6711 269.247 96.0172C269.024 96.36 268.684 96.6334 268.227 96.8377L269.875 99.9274V100H268.19L266.762 97.2323ZM265.511 95.9705H266.778C267.172 95.9705 267.477 95.8718 267.693 95.6745C267.91 95.4737 268.018 95.1985 268.018 94.8489C268.018 94.4923 267.915 94.2119 267.709 94.0077C267.507 93.8034 267.194 93.7013 266.772 93.7013H265.511V95.9705Z" fill="#DCAD76"/>
<path d="M284.709 93.7013H282.338V100H280.743V93.7013H278.404V92.4395H284.709V93.7013Z" fill="#DCAD76"/>
<path d="M300.656 100H299.059L295.949 95.0254V100H294.352V92.4395H295.949L299.064 97.4245V92.4395H300.656V100Z" fill="#DCAD76"/>
<path d="M315.33 96.7234H312.266V98.7486H315.862V100H310.67V92.4395H315.851V93.7013H312.266V95.5032H315.33V96.7234Z" fill="#DCAD76"/>
<path d="M327.955 97.2323H326.705V100H325.135V92.4395H327.966C328.866 92.4395 329.56 92.6385 330.048 93.0366C330.537 93.4347 330.781 93.9973 330.781 94.7242C330.781 95.2401 330.667 95.6711 330.441 96.0172C330.217 96.36 329.877 96.6334 329.42 96.8377L331.069 99.9274V100H329.384L327.955 97.2323ZM326.705 95.9705H327.971C328.365 95.9705 328.67 95.8718 328.887 95.6745C329.103 95.4737 329.211 95.1985 329.211 94.8489C329.211 94.4923 329.108 94.2119 328.902 94.0077C328.7 93.8034 328.388 93.7013 327.966 93.7013H326.705V95.9705Z" fill="#DCAD76"/>
</g>
<defs>
<filter id="filter0_d" x="0" y="0" width="371.083" height="212.762" filterUnits="userSpaceOnUse" color-interpolation-filters="sRGB">
<feFlood flood-opacity="0" result="BackgroundImageFix"/>
<feColorMatrix in="SourceAlpha" type="matrix" values="0 0 0 0 0 0 0 0 0 0 0 0 0 0 0 0 0 0 127 0" result="hardAlpha"/>
<feOffset dy="20"/>
<feGaussianBlur stdDeviation="20"/>
<feComposite in2="hardAlpha" operator="out"/>
<feColorMatrix type="matrix" values="0 0 0 0 1 0 0 0 0 0.870588 0 0 0 0 0.717647 0 0 0 0.25 0"/>
<feBlend mode="normal" in2="BackgroundImageFix" result="effect1_dropShadow"/>
<feBlend mode="normal" in="SourceGraphic" in2="effect1_dropShadow" result="shape"/>
</filter>
</defs>
</svg>
