<svg width="32" height="32" viewBox="0 0 32 32" fill="none" xmlns="http://www.w3.org/2000/svg">
<rect x="0.140625" y="0.223633" width="30.8941" height="30.8941" rx="5" fill="white"/>
<path d="M27.9453 0.223633H3.23004C1.55661 0.223633 0.140625 1.63961 0.140625 3.31304V28.0283C0.140625 29.7018 1.55661 31.1178 3.23004 31.1178H27.9453C29.6831 31.1178 31.0347 29.7018 31.0347 28.0283V3.31304C31.0347 1.63961 29.6188 0.223633 27.9453 0.223633ZM6.70563 27.7709C6.70563 28.4145 6.19072 28.9938 5.48273 28.9938H3.48749C2.84386 28.9938 2.2646 28.4789 2.2646 27.7709V25.7756C2.2646 25.132 2.7795 24.5527 3.48749 24.5527H5.48273C6.12636 24.5527 6.70563 25.0677 6.70563 25.7756V27.7709ZM6.70563 20.3692C6.70563 21.0128 6.19072 21.5921 5.48273 21.5921H3.48749C2.84386 21.5921 2.2646 21.0772 2.2646 20.3692V18.3739C2.2646 17.7303 2.7795 17.151 3.48749 17.151H5.48273C6.12636 17.151 6.70563 17.6659 6.70563 18.3739V20.3692ZM6.70563 12.9675C6.70563 13.6111 6.19072 14.1903 5.48273 14.1903H3.48749C2.84386 14.1903 2.2646 13.6754 2.2646 12.9675V10.9722C2.2646 10.3286 2.7795 9.74932 3.48749 9.74932H5.48273C6.12636 9.74932 6.70563 10.2642 6.70563 10.9722V12.9675ZM6.70563 5.56574C6.70563 6.20937 6.19072 6.78863 5.48273 6.78863H3.48749C2.84386 6.78863 2.2646 6.27373 2.2646 5.56574V3.5705C2.2646 2.92687 2.7795 2.3476 3.48749 2.3476H5.48273C6.12636 2.3476 6.70563 2.86251 6.70563 3.5705V5.56574ZM19.5782 16.5074L13.9143 20.3692C13.2063 20.8197 12.3052 20.3692 12.3052 19.5325V11.8089C12.3052 10.9722 13.2063 10.4573 13.9143 10.9722L19.5782 14.834C20.2218 15.2202 20.2218 16.1212 19.5782 16.5074ZM28.8464 27.7709C28.8464 28.4145 28.3315 28.9938 27.6235 28.9938H25.6283C24.9846 28.9938 24.4054 28.4789 24.4054 27.7709V25.7756C24.4054 25.132 24.9203 24.5527 25.6283 24.5527H27.6235C28.2671 24.5527 28.8464 25.0677 28.8464 25.7756V27.7709ZM28.8464 20.3692C28.8464 21.0128 28.3315 21.5921 27.6235 21.5921H25.6283C24.9846 21.5921 24.4054 21.0772 24.4054 20.3692V18.3739C24.4054 17.7303 24.9203 17.151 25.6283 17.151H27.6235C28.2671 17.151 28.8464 17.6659 28.8464 18.3739V20.3692ZM28.8464 12.9675C28.8464 13.6111 28.3315 14.1903 27.6235 14.1903H25.6283C24.9846 14.1903 24.4054 13.6754 24.4054 12.9675V10.9722C24.4054 10.3286 24.9203 9.74932 25.6283 9.74932H27.6235C28.2671 9.74932 28.8464 10.2642 28.8464 10.9722V12.9675ZM28.8464 5.56574C28.8464 6.20937 28.3315 6.78863 27.6235 6.78863H25.6283C24.9846 6.78863 24.4054 6.27373 24.4054 5.56574V3.5705C24.4054 2.92687 24.9203 2.3476 25.6283 2.3476H27.6235C28.2671 2.3476 28.8464 2.86251 28.8464 3.5705V5.56574Z" fill="#DCAD76"/>
</svg>
