<svg width="30" height="20" viewBox="0 0 30 20" fill="none" xmlns="http://www.w3.org/2000/svg">
<mask id="path-1-inside-1" fill="white">
<path fill-rule="evenodd" clip-rule="evenodd" d="M0 20H15H30V4.5L21 9L15 0L9 9L0 4V20Z"/>
</mask>
<path d="M0 20H-2V22H0V20ZM30 20V22H32V20H30ZM30 4.5H32V1.26393L29.1056 2.71115L30 4.5ZM21 9L19.3359 10.1094L20.3153 11.5784L21.8944 10.7889L21 9ZM15 0L16.6641 -1.1094L15 -3.60555L13.3359 -1.1094L15 0ZM9 9L8.02871 10.7483L9.64101 11.644L10.6641 10.1094L9 9ZM0 4L0.971286 2.25169L-2 0.600971V4H0ZM15 18H0V22H15V18ZM15 22H30V18H15V22ZM32 20V4.5H28V20H32ZM29.1056 2.71115L20.1056 7.21115L21.8944 10.7889L30.8944 6.28885L29.1056 2.71115ZM22.6641 7.8906L16.6641 -1.1094L13.3359 1.1094L19.3359 10.1094L22.6641 7.8906ZM10.6641 10.1094L16.6641 1.1094L13.3359 -1.1094L7.3359 7.8906L10.6641 10.1094ZM-0.971286 5.74831L8.02871 10.7483L9.97129 7.25169L0.971286 2.25169L-0.971286 5.74831ZM2 20V4H-2V20H2Z" fill="#DCAD76" mask="url(#path-1-inside-1)"/>
<rect x="5" y="14" width="2" height="5" fill="#DCAD76"/>
<rect x="14" y="14" width="2" height="5" fill="#DCAD76"/>
<rect x="23" y="14" width="2" height="5" fill="#DCAD76"/>
</svg>
