<svg width="22" height="32" viewBox="0 0 22 32" fill="none" xmlns="http://www.w3.org/2000/svg">
<path d="M-7.10998e-07 15.5488C-3.12293e-07 24.2675 3.76786 31.0967 8.57815 31.0967L12.8684 31.0967C17.6787 31.0967 21.4466 24.2675 21.4466 15.5488C21.4469 6.83 17.6791 0.000163293 12.8688 0.000163494L8.57815 0.000163674C3.76786 0.000163875 -1.1097e-06 6.83 -7.10998e-07 15.5488ZM1.69303 15.5488C1.69303 8.03861 4.84587 1.6932 8.57815 1.6932C9.16829 1.6932 9.75048 1.85041 10.314 2.16345C13.3511 3.81916 15.4722 9.32325 15.4722 15.5488C15.4722 15.9378 15.464 16.3241 15.4477 16.7066C15.4391 16.9122 15.4277 17.1164 15.4142 17.3199C15.0559 22.7953 13.0585 27.4366 10.3064 28.9372C9.75187 29.2464 9.16967 29.4033 8.5778 29.4033C4.84587 29.4036 1.69303 23.0589 1.69303 15.5488ZM19.7539 15.5488C19.7539 23.0589 16.601 29.4036 12.8688 29.4036C12.7624 29.4036 12.6563 29.3926 12.5502 29.3822C12.5647 29.3687 12.5785 29.3529 12.5931 29.339C12.7475 29.1939 12.8995 29.0429 13.0478 28.8819C13.0623 28.8664 13.0761 28.8494 13.0906 28.8335C13.2371 28.6725 13.3801 28.5039 13.5201 28.3281C13.5346 28.3097 13.5494 28.2925 13.564 28.2742C13.7056 28.0938 13.8431 27.9044 13.9779 27.7092C14.001 27.6757 14.0242 27.6425 14.047 27.6083C14.179 27.4131 14.3075 27.2113 14.4322 27.0026C14.4509 26.9712 14.4692 26.9394 14.4875 26.9076C14.6167 26.6875 14.7429 26.4623 14.8638 26.2283C14.8638 26.2283 14.8638 26.228 14.8641 26.228C14.9854 25.993 15.1019 25.7498 15.2145 25.5017C15.2293 25.4692 15.2442 25.4378 15.2587 25.4053C15.3658 25.1662 15.4681 24.9209 15.5669 24.6704C15.5842 24.6269 15.6011 24.5827 15.6184 24.5388C15.7162 24.2855 15.8105 24.0277 15.8996 23.7634C15.9104 23.7313 15.9207 23.6985 15.9314 23.666C16.0202 23.3989 16.1052 23.1273 16.185 22.8502C16.1892 22.8354 16.194 22.8209 16.1982 22.806C16.2783 22.5254 16.353 22.2394 16.4238 21.9491C16.4355 21.9011 16.4473 21.8538 16.459 21.8054C16.5261 21.5231 16.5886 21.2367 16.6467 20.9464C16.657 20.8946 16.6667 20.8424 16.6771 20.7903C16.7348 20.4917 16.7887 20.1904 16.8363 19.884C16.8401 19.8591 16.8433 19.8342 16.8471 19.8093C16.893 19.5094 16.9338 19.2057 16.9701 18.8992C16.9746 18.8605 16.9797 18.8222 16.9842 18.7835C17.0195 18.4739 17.0488 18.1609 17.0737 17.8451C17.0786 17.7853 17.083 17.7255 17.0875 17.6654C17.1103 17.352 17.1287 17.0362 17.1414 16.7173C17.1435 16.6644 17.1449 16.6112 17.1466 16.558C17.158 16.2232 17.1656 15.8867 17.1656 15.5474C17.1656 15.2077 17.158 14.8712 17.1466 14.5364C17.1449 14.4832 17.1435 14.43 17.1414 14.3771C17.1286 14.0586 17.1103 13.7424 17.0875 13.429C17.083 13.3692 17.0786 13.3095 17.0737 13.25C17.0485 12.9342 17.0191 12.6205 16.9839 12.3109C16.9794 12.2726 16.9746 12.2349 16.9697 12.1966C16.9334 11.8884 16.8923 11.5833 16.8464 11.282C16.8429 11.2588 16.8398 11.2353 16.836 11.2118C16.788 10.9036 16.7337 10.6003 16.6757 10.3C16.666 10.2506 16.6567 10.2009 16.647 10.1518C16.5886 9.8581 16.5254 9.56891 16.4573 9.28351C16.4469 9.23997 16.4362 9.19713 16.4255 9.15359C16.3537 8.85852 16.278 8.56725 16.1961 8.2822C16.1944 8.27564 16.1923 8.26907 16.1902 8.26251C16.107 7.97227 16.0178 7.68792 15.9249 7.40874C15.9173 7.38628 15.91 7.36313 15.9024 7.34067C15.8102 7.06737 15.7127 6.80028 15.6115 6.53838C15.599 6.5059 15.5863 6.47342 15.5735 6.44094C15.4705 6.17904 15.3634 5.92301 15.2515 5.67355C15.2435 5.65558 15.2349 5.63796 15.2269 5.61999C14.9923 5.10172 14.7391 4.61178 14.4682 4.15259C14.4602 4.13911 14.4523 4.12494 14.4443 4.11147C14.311 3.88688 14.1728 3.67059 14.0311 3.46155C14.0197 3.44497 14.0086 3.42873 13.9972 3.41214C13.5584 2.77225 13.0813 2.20905 12.5709 1.73397C12.5637 1.7274 12.5571 1.71946 12.5499 1.71255C12.6559 1.70218 12.762 1.69112 12.8684 1.69112C16.601 1.6932 19.7539 8.03861 19.7539 15.5488Z" fill="black"/>
</svg>
