<svg width="27" height="36" viewBox="0 0 27 36" fill="none" xmlns="http://www.w3.org/2000/svg">
<path d="M26.2601 3.12974L20.1234 0.183027C19.8387 0.0275412 19.5077 -0.0204334 19.1907 0.0478564C19.1008 0.0388224 19.0102 0.0388224 18.9203 0.0478564H8.1067C8.01681 0.0388224 7.92625 0.0388224 7.83636 0.0478564C7.52573 -0.0370723 7.19499 -0.00831213 6.90368 0.128959L0.766945 3.12974C0.600455 3.20963 0.4521 3.32278 0.331032 3.46222C0.209965 3.60166 0.118753 3.76443 0.0630234 3.94049C0.00729403 4.11654 -0.0117708 4.30215 0.00700554 4.48585C0.0257819 4.66956 0.0820014 4.84747 0.172195 5.00861L7.66064 18.2823C6.11177 19.4972 4.98033 21.1648 4.42393 23.053C3.86753 24.9411 3.91386 26.9558 4.55647 28.8164C5.19908 30.677 6.40598 32.2908 8.00905 33.4332C9.61213 34.5755 11.5316 35.1894 13.5 35.1894C15.4684 35.1894 17.3879 34.5755 18.9909 33.4332C20.594 32.2908 21.8009 30.677 22.4435 28.8164C23.0861 26.9558 23.1325 24.9411 22.5761 23.053C22.0197 21.1648 20.8882 19.4972 19.3394 18.2823L26.8278 5.00861C26.918 4.84747 26.9742 4.66956 26.993 4.48585C27.0118 4.30215 26.9927 4.11654 26.937 3.94049C26.8812 3.76443 26.79 3.60166 26.669 3.46222C26.5479 3.32278 26.3995 3.20963 26.2331 3.12974H26.2601ZM17.2037 2.75127L13.5135 9.14483L9.82337 2.75127H17.2037ZM3.24056 4.94103L6.94423 3.15678L14.1218 15.606L14.5003 16.2548H9.62061L3.24056 4.94103ZM20.272 25.7302C20.272 27.0669 19.8757 28.3736 19.133 29.4851C18.3904 30.5965 17.3349 31.4628 16.0999 31.9743C14.8649 32.4858 13.506 32.6197 12.195 32.3589C10.884 32.0981 9.67972 31.4544 8.73452 30.5092C7.78932 29.564 7.14564 28.3598 6.88486 27.0488C6.62408 25.7377 6.75792 24.3788 7.26946 23.1439C7.78099 21.9089 8.64725 20.8534 9.75868 20.1107C10.8701 19.3681 12.1768 18.9717 13.5135 18.9717C15.306 18.9717 17.025 19.6838 18.2925 20.9512C19.56 22.2187 20.272 23.9378 20.272 25.7302ZM17.5686 16.0791L15.1356 11.8482L20.0828 3.15678L23.7865 4.94103L17.5686 16.0791ZM13.5135 21.6751C12.7115 21.6751 11.9275 21.913 11.2606 22.3585C10.5938 22.8041 10.074 23.4374 9.76708 24.1784C9.46016 24.9194 9.37985 25.7347 9.53632 26.5214C9.69279 27.308 10.079 28.0305 10.6461 28.5976C11.2132 29.1648 11.9358 29.551 12.7224 29.7074C13.509 29.8639 14.3244 29.7836 15.0653 29.4767C15.8063 29.1698 16.4396 28.65 16.8852 27.9831C17.3308 27.3163 17.5686 26.5323 17.5686 25.7302C17.5686 24.6548 17.1414 23.6233 16.3809 22.8628C15.6204 22.1024 14.589 21.6751 13.5135 21.6751ZM13.5135 27.0819C13.2462 27.0819 12.9848 27.0027 12.7626 26.8541C12.5403 26.7056 12.367 26.4945 12.2647 26.2475C12.1624 26.0005 12.1356 25.7287 12.1878 25.4665C12.2399 25.2043 12.3687 24.9635 12.5577 24.7744C12.7468 24.5854 12.9876 24.4567 13.2498 24.4045C13.512 24.3524 13.7838 24.3791 14.0308 24.4814C14.2778 24.5837 14.4889 24.757 14.6374 24.9793C14.7859 25.2016 14.8652 25.4629 14.8652 25.7302C14.8652 26.0887 14.7228 26.4325 14.4693 26.686C14.2158 26.9395 13.872 27.0819 13.5135 27.0819Z" fill="black"/>
</svg>
