<svg width="30" height="27" viewBox="0 0 30 27" fill="none" xmlns="http://www.w3.org/2000/svg">
<path d="M27.81 0.299689L1.1675 11.187C1.1675 11.187 -0.092118 11.6366 0.00538157 12.4658C0.105506 13.2964 1.13338 13.6764 1.13338 13.6764L7.83722 16.0262C7.83722 16.0262 9.86071 22.9378 10.259 24.253C10.6572 25.5645 10.9767 25.5954 10.9767 25.5954C11.3476 25.7633 11.6847 25.496 11.6847 25.496L16.0159 21.3837L22.7663 26.7747C24.5921 27.6042 25.2566 25.876 25.2566 25.876L30 0.957644C30 -0.702154 27.81 0.299689 27.81 0.299689ZM23.0933 23.8719L15.8716 18.1061L13.6306 20.2331L14.1233 15.7077L23.7495 6.75L10.628 14.3988L4.80761 12.359L27.0139 3.28386L23.0933 23.8719Z" fill="white"/>
</svg>
