<svg width="29" height="39" viewBox="0 0 29 39" fill="none" xmlns="http://www.w3.org/2000/svg">
<path d="M20.813 15.7129H25.8633V16.9755H20.813V15.7129Z" fill="#DCAD76"/>
<path d="M20.813 18.2383H25.8633V19.5009H20.813V18.2383Z" fill="#DCAD76"/>
<path d="M20.813 20.7627H25.8633V22.0253H20.813V20.7627Z" fill="#DCAD76"/>
<path d="M20.813 23.2881H25.8633V24.5507H20.813V23.2881Z" fill="#DCAD76"/>
<path d="M20.813 25.8135H25.8633V27.076H20.813V25.8135Z" fill="#DCAD76"/>
<path d="M20.813 28.3379H25.8633V29.6005H20.813V28.3379Z" fill="#DCAD76"/>
<path d="M20.813 30.8633H25.8633V32.1259H20.813V30.8633Z" fill="#DCAD76"/>
<path d="M9.4501 3.08667H13.8691V0.561523H15.1317V3.08667H19.5507V13.1872H28.3887V38.4387H0.612101V22.0252H9.4501V3.08667ZM23.9697 37.1761V34.651H22.7071V37.1761H23.9697ZM19.5507 37.1761H21.4445V33.3884H25.2322V37.1761H27.1261V14.4498H19.5507V37.1761ZM15.1317 37.1761V34.651H13.8691V37.1761H15.1317ZM10.7127 37.1761H12.6065V33.3884H16.3942V37.1761H18.2881V4.34924H10.7127V37.1761ZM6.29367 37.1761V34.651H5.0311V37.1761H6.29367ZM1.87467 23.2878V37.1761H3.76853V33.3884H7.55624V37.1761H9.4501V23.2878H1.87467Z" fill="#DCAD76"/>
<path d="M15.1315 5.61133H17.0254V6.8739H15.1315V5.61133Z" fill="#DCAD76"/>
<path d="M11.9753 5.61133H13.8691V6.8739H11.9753V5.61133Z" fill="#DCAD76"/>
<path d="M15.1315 8.13672H17.0254V9.39929H15.1315V8.13672Z" fill="#DCAD76"/>
<path d="M11.9753 8.13672H13.8691V9.39929H11.9753V8.13672Z" fill="#DCAD76"/>
<path d="M15.1315 10.6621H17.0254V11.9247H15.1315V10.6621Z" fill="#DCAD76"/>
<path d="M11.9753 10.6621H13.8691V11.9247H11.9753V10.6621Z" fill="#DCAD76"/>
<path d="M15.1315 13.1875H17.0254V14.4501H15.1315V13.1875Z" fill="#DCAD76"/>
<path d="M11.9753 13.1875H13.8691V14.4501H11.9753V13.1875Z" fill="#DCAD76"/>
<path d="M15.1315 15.7129H17.0254V16.9755H15.1315V15.7129Z" fill="#DCAD76"/>
<path d="M11.9753 15.7129H13.8691V16.9755H11.9753V15.7129Z" fill="#DCAD76"/>
<path d="M15.1315 18.2383H17.0254V19.5009H15.1315V18.2383Z" fill="#DCAD76"/>
<path d="M11.9753 18.2383H13.8691V19.5009H11.9753V18.2383Z" fill="#DCAD76"/>
<path d="M15.1315 20.7627H17.0254V22.0253H15.1315V20.7627Z" fill="#DCAD76"/>
<path d="M11.9753 20.7627H13.8691V22.0253H11.9753V20.7627Z" fill="#DCAD76"/>
<path d="M15.1315 23.2881H17.0254V24.5507H15.1315V23.2881Z" fill="#DCAD76"/>
<path d="M11.9753 23.2881H13.8691V24.5507H11.9753V23.2881Z" fill="#DCAD76"/>
<path d="M15.1315 25.8135H17.0254V27.076H15.1315V25.8135Z" fill="#DCAD76"/>
<path d="M11.9753 25.8135H13.8691V27.076H11.9753V25.8135Z" fill="#DCAD76"/>
<path d="M15.1315 28.3379H17.0254V29.6005H15.1315V28.3379Z" fill="#DCAD76"/>
<path d="M11.9753 28.3379H13.8691V29.6005H11.9753V28.3379Z" fill="#DCAD76"/>
<path d="M15.1315 30.8633H17.0254V32.1259H15.1315V30.8633Z" fill="#DCAD76"/>
<path d="M11.9753 30.8633H13.8691V32.1259H11.9753V30.8633Z" fill="#DCAD76"/>
<path d="M6.29364 24.5498H8.1875V25.8124H6.29364V24.5498Z" fill="#DCAD76"/>
<path d="M3.13739 24.5498H5.03125V25.8124H3.13739V24.5498Z" fill="#DCAD76"/>
<path d="M6.29364 27.0752H8.1875V28.3378H6.29364V27.0752Z" fill="#DCAD76"/>
<path d="M3.13739 27.0752H5.03125V28.3378H3.13739V27.0752Z" fill="#DCAD76"/>
<path d="M6.29364 29.6006H8.1875V30.8632H6.29364V29.6006Z" fill="#DCAD76"/>
<path d="M3.13739 29.6006H5.03125V30.8632H3.13739V29.6006Z" fill="#DCAD76"/>
</svg>
