<svg width="650" height="365" fill="none" xmlns="http://www.w3.org/2000/svg"><mask id="a" style="mask-type:alpha" maskUnits="userSpaceOnUse" x="0" y="0" width="650" height="365"><rect width="650" height="365" rx="25" fill="#252525"/></mask><g mask="url(#a)" stroke="#E6AE6A" stroke-opacity=".5"><circle cx="715" cy="482" r="333.5"/><circle cx="343" cy="635" r="333.5"/><circle cx="489" cy="-193" r="262.5"/><circle cx="-68" cy="335" r="262.5"/><circle cx="-68" cy="-99" r="262.5"/></g><g filter="url(#b)" fill="#DCAD76"><path d="M339.095 117h-156.19a3.916 3.916 0 0 0-3.905 3.905v93.714a3.916 3.916 0 0 0 3.905 3.905h65.209l-36.119 24.092a3.945 3.945 0 0 0-1.093 5.428 3.952 3.952 0 0 0 3.241 1.718c.742 0 1.484-.195 2.147-.664l40.805-27.177v23.936a3.916 3.916 0 0 0 3.905 3.905 3.916 3.916 0 0 0 3.905-3.905v-23.936l40.805 27.177c1.796 1.211 4.217.703 5.427-1.093 1.211-1.796.703-4.217-1.093-5.428l-36.158-24.053h65.209a3.916 3.916 0 0 0 3.905-3.905v-93.714a3.916 3.916 0 0 0-3.905-3.905Zm-3.905 93.714H186.81V124.81h148.38v85.904Z"/><path d="M300.047 195.096h15.619a3.917 3.917 0 0 0 3.905-3.905v-23.429a3.917 3.917 0 0 0-3.905-3.905h-15.619a3.917 3.917 0 0 0-3.904 3.905v23.429a3.917 3.917 0 0 0 3.904 3.905Zm3.905-23.429h7.81v15.619h-7.81v-15.619Zm-35.143 23.428h15.619a3.916 3.916 0 0 0 3.905-3.904v-31.238a3.916 3.916 0 0 0-3.905-3.905h-15.619a3.916 3.916 0 0 0-3.905 3.905v31.238a3.916 3.916 0 0 0 3.905 3.904Zm3.905-31.238h7.809v23.429h-7.809v-23.429Zm-35.143 31.238h15.619a3.917 3.917 0 0 0 3.905-3.904v-46.858a3.917 3.917 0 0 0-3.905-3.904h-15.619a3.916 3.916 0 0 0-3.905 3.904v46.858a3.916 3.916 0 0 0 3.905 3.904Zm3.905-46.857h7.809v39.048h-7.809v-39.048Zm-35.144 46.857h15.62a3.916 3.916 0 0 0 3.904-3.904v-39.048a3.916 3.916 0 0 0-3.904-3.905h-15.62a3.916 3.916 0 0 0-3.904 3.905v39.048a3.916 3.916 0 0 0 3.904 3.904Zm3.905-39.047h7.81v31.238h-7.81v-31.238Zm230.341-7.652v33.588h7.868V165.19l21.638 16.794v-33.198h-7.869v16.599l-21.637-16.989Z"/><path fill-rule="evenodd" clip-rule="evenodd" d="M407.094 182.022v-33.631h18.966c6.257 0 9.973 5.475 9.973 11.145s-3.52 11.145-9.973 11.145h-11.145v11.341h-7.821Zm7.821-26.201h10.754c1.564 0 2.542 1.564 2.542 3.52 0 2.346-.782 3.91-2.542 3.91h-10.754v-7.43Zm-29.904 26.202c9.395 0 17.012-7.617 17.012-17.012S394.406 148 385.011 148 368 155.616 368 165.011s7.616 17.012 17.011 17.012Zm-.195-7.43a9.385 9.385 0 0 0 9.385-9.386 9.385 9.385 0 0 0-9.385-9.385 9.385 9.385 0 1 0 0 18.771Z"/><path d="M373.755 194.336V197h-1.597v-7.561h3.023c.582 0 1.093.104 1.533.312.443.208.784.504 1.022.888.237.381.356.815.356 1.303 0 .741-.261 1.326-.782 1.755-.518.426-1.237.639-2.156.639h-1.399Zm0-1.262h1.426c.422 0 .743-.097.963-.29.224-.194.336-.471.336-.831 0-.371-.112-.67-.336-.899-.223-.228-.532-.346-.926-.353h-1.463v2.373Zm17.261 2.368h-2.858l-.544 1.558h-1.733l2.945-7.561h1.511l2.961 7.561h-1.733l-.549-1.558Zm-2.418-1.262h1.978l-.995-2.83-.983 2.83Zm17.164.052h-1.251V197h-1.57v-7.561h2.831c.9 0 1.595.2 2.083.598.488.398.733.96.733 1.687 0 .516-.114.947-.341 1.293-.223.343-.563.616-1.02.821l1.648 3.089V197h-1.685l-1.428-2.768Zm-1.251-1.261h1.267c.394 0 .699-.099.915-.296.217-.201.325-.476.325-.826 0-.357-.103-.637-.309-.841-.202-.205-.515-.307-.937-.307h-1.261v2.27Zm19.198-2.27h-2.371V197h-1.595v-6.299h-2.339v-1.262h6.305v1.262ZM439.656 197h-1.597l-3.11-4.975V197h-1.597v-7.561h1.597l3.115 4.985v-4.985h1.592V197Zm14.674-3.277h-3.064v2.026h3.596V197h-5.192v-7.561h5.181v1.262h-3.585v1.802h3.064v1.22Zm12.625.509h-1.25V197h-1.57v-7.561h2.831c.9 0 1.594.2 2.082.598.489.398.733.96.733 1.687 0 .516-.114.947-.34 1.293-.224.343-.564.616-1.021.821l1.649 3.089V197h-1.685l-1.429-2.768Zm-1.25-1.261h1.266c.394 0 .699-.099.916-.296.216-.201.324-.476.324-.826 0-.357-.103-.637-.309-.841-.202-.205-.514-.307-.936-.307h-1.261v2.27Z"/></g><defs><filter id="b" x="139" y="97" width="371.083" height="212.762" filterUnits="userSpaceOnUse" color-interpolation-filters="sRGB"><feFlood flood-opacity="0" result="BackgroundImageFix"/><feColorMatrix in="SourceAlpha" values="0 0 0 0 0 0 0 0 0 0 0 0 0 0 0 0 0 0 127 0" result="hardAlpha"/><feOffset dy="20"/><feGaussianBlur stdDeviation="20"/><feComposite in2="hardAlpha" operator="out"/><feColorMatrix values="0 0 0 0 1 0 0 0 0 0.870588 0 0 0 0 0.717647 0 0 0 0.25 0"/><feBlend in2="BackgroundImageFix" result="effect1_dropShadow"/><feBlend in="SourceGraphic" in2="effect1_dropShadow" result="shape"/></filter></defs></svg>