<svg width="47" height="35" fill="none" xmlns="http://www.w3.org/2000/svg"><path d="M40.271.697c-3.204 0-5.825 2.621-5.825 5.825 0 1.796.777 3.35 2.039 4.417l-4.514 9.223a5.346 5.346 0 0 0-.923-.097c-.97 0-1.844.243-2.67.631l-7.086-5.582a5.744 5.744 0 0 0 1.019-3.252c0-3.204-2.621-5.825-5.825-5.825s-5.825 2.62-5.825 5.825a5.8 5.8 0 0 0 1.99 4.368l-4.174 6.553a6.529 6.529 0 0 0-1.699-.242c-3.204 0-5.825 2.62-5.825 5.824 0 3.204 2.621 5.825 5.825 5.825s5.825-2.62 5.825-5.825c0-1.553-.631-3.01-1.65-4.028l4.271-6.748a5.29 5.29 0 0 0 1.262.146c.922 0 1.796-.243 2.573-.631l7.087 5.68a5.666 5.666 0 0 0-.971 3.203c0 3.204 2.621 5.825 5.825 5.825 3.203 0 5.825-2.621 5.825-5.825a5.798 5.798 0 0 0-2.233-4.563l4.465-9.125c.389.097.777.097 1.165.097 3.204 0 5.825-2.622 5.825-5.825 0-3.204-2.572-5.874-5.776-5.874ZM6.778 31.277a2.92 2.92 0 0 1-2.912-2.912 2.921 2.921 0 0 1 2.912-2.912 2.921 2.921 0 0 1 2.912 2.912 2.92 2.92 0 0 1-2.912 2.913Zm6.796-19.415a2.921 2.921 0 0 1 2.912-2.913 2.921 2.921 0 0 1 2.913 2.913 2.921 2.921 0 0 1-2.913 2.912 2.921 2.921 0 0 1-2.912-2.912ZM31.048 28.85a2.921 2.921 0 0 1-2.912-2.913 2.921 2.921 0 0 1 2.912-2.912 2.921 2.921 0 0 1 2.913 2.912 2.921 2.921 0 0 1-2.913 2.913Zm9.223-19.416a2.921 2.921 0 0 1-2.912-2.913A2.921 2.921 0 0 1 40.27 3.61a2.921 2.921 0 0 1 2.913 2.912 2.921 2.921 0 0 1-2.913 2.913Z" fill="#DCAD76"/></svg>