<svg width="45" height="46" fill="none" xmlns="http://www.w3.org/2000/svg"><path fill-rule="evenodd" clip-rule="evenodd" d="m5.364 23.7 20.343-6.109c.852-.256 1.69.143 1.868.892.179.747-.368 1.562-1.22 1.818L4.174 26.962c-.853.256-1.69-.142-1.868-.89-.52-2.178.266-4.603 2.147-6.916 2.513-3.09 7.047-6.012 12.572-7.671 5.525-1.66 10.755-1.67 14.31-.402 2.66.95 4.423 2.609 4.943 4.786.18.748-.367 1.562-1.22 1.819l-2.308.693c-.853.256-1.69-.144-1.868-.892-.18-.748.367-1.562 1.22-1.818l.47-.141c-.595-.766-1.534-1.35-2.692-1.762-3.03-1.081-7.497-.988-12.207.427-4.71 1.414-8.62 3.837-10.763 6.471-.818 1.007-1.372 2.038-1.546 3.035Z" fill="#DCAD76"/><path fill-rule="evenodd" clip-rule="evenodd" d="M25.561 20.757c.872-.268 1.43-1.121 1.247-1.905-.747-3.205-2.538-5.684-4.617-6.93-1.628-.975-3.449-1.231-5.194-.694-1.745.538-3.21 1.807-4.196 3.588-1.258 2.274-1.73 5.45-.983 8.655.182.784 1.037 1.201 1.908.933l11.835-3.647Zm-2.33-2.324c-.668-1.777-1.744-3.17-3.01-3.93-.813-.485-1.692-.705-2.562-.437-.87.268-1.537.964-2.028 1.852-.767 1.386-1.092 3.21-.899 5.134l8.5-2.619Z" fill="#DCAD76"/><path fill-rule="evenodd" clip-rule="evenodd" d="m14.715 9.884.688 2.932c.19.809 1.077 1.24 1.982.963.904-.277 1.484-1.159 1.295-1.968l-.688-2.932c-.19-.81-1.078-1.24-1.982-.963-.905.277-1.485 1.159-1.295 1.968Zm3.275 12.174 5.224 21.011c.206.829 1.169 1.27 2.149.986.98-.284 1.609-1.187 1.403-2.015l-5.224-21.011c-.206-.829-1.169-1.27-2.149-.986-.98.284-1.609 1.187-1.403 2.015Z" fill="#DCAD76"/><path fill-rule="evenodd" clip-rule="evenodd" d="m24.908 37.19-9.614.75a1.56 1.56 0 0 1-1.1-.338l-7.84-6.271a1.569 1.569 0 0 1 1.958-2.449l7.356 5.885 9.43-.736c.283-.022.568.034.822.16l10.975 5.488a1.568 1.568 0 0 1-1.402 2.805L24.908 37.19Z" fill="#DCAD76"/><path fill-rule="evenodd" clip-rule="evenodd" d="m12.137 34.606-4.455 5.488a1.57 1.57 0 0 0 .23 2.206 1.57 1.57 0 0 0 2.205-.23l4.455-5.486a1.57 1.57 0 0 0-2.435-1.978Zm20.578-17.893c-1.09-1.875-3.547-3.021-6.546-3.462a1.568 1.568 0 0 1-1.29-1.156 9.41 9.41 0 0 1-.3-2.37c0-5.192 4.214-9.407 9.406-9.407s9.407 4.215 9.407 9.407c0 5.173-4.184 9.377-9.351 9.407a1.568 1.568 0 0 1-1.326-2.419Zm3.023-.965a6.278 6.278 0 0 0 4.518-6.023 6.275 6.275 0 0 0-6.27-6.271 6.275 6.275 0 0 0-6.242 6.894c3.834.809 6.727 2.747 7.994 5.4Z" fill="#DCAD76"/><path fill-rule="evenodd" clip-rule="evenodd" d="M2.628 44.219h40.764a1.568 1.568 0 0 0 0-3.136H2.628a1.568 1.568 0 0 0 0 3.136Z" fill="#DCAD76"/></svg>