<svg width="43" height="49" fill="none" xmlns="http://www.w3.org/2000/svg"><path d="M4.686 14.464h7.696L8.702 11.8c-1.211-.878-.495-2.785.977-2.68l7.94.015 2.47-7.655c.44-1.374 2.384-1.354 2.82 0l2.471 7.655 8.047-.015c1.439 0 2.015 1.845.868 2.677l-3.683 2.668 7.701-.001a4.028 4.028 0 0 1 4.017 4.018v25.932a4.03 4.03 0 0 1-4.017 4.017H4.686a4.024 4.024 0 0 1-4.018-4.017V18.482a4.036 4.036 0 0 1 4.018-4.018Zm12.276 6.26c5.363-3.912 3.712-3.912 9.074 0-2.051-6.276-2.586-4.734 2.805-8.636-6.392.012-5.318.94-7.342-5.334-2.029 6.287-.725 5.347-7.34 5.334 5.53 4.003 4.782 2.585 2.803 8.635Zm11.119-3.29 1.18 3.61 1.02 3.12.011.036.002.005.005.02.006.021.005.021.002.007.003.014.005.02v.002l.004.02c.278 1.376-1.343 2.32-2.409 1.425l-6.416-4.68-6.416 4.68c-1.13.949-2.827-.17-2.366-1.591l2.201-6.73H4.686c-.58 0-1.047.467-1.047 1.048v25.932c0 .572.475 1.046 1.047 1.046h33.628c.573 0 1.046-.472 1.046-1.046V18.482a1.05 1.05 0 0 0-1.046-1.047H28.08ZM11.653 39.828c-1.954 0-1.954-2.971 0-2.971h18.374c1.954 0 1.954 2.97 0 2.97H11.652Zm0-6.865c-1.954 0-1.954-2.971 0-2.971h18.374c1.954 0 1.954 2.97 0 2.97H11.652Z" fill="#DCAD76"/></svg>