<svg width="1900" height="1080" fill="none" xmlns="http://www.w3.org/2000/svg"><g opacity=".3"><mask id="a" style="mask-type:alpha" maskUnits="userSpaceOnUse" x="0" y="0" width="1900" height="1080"><path fill="#1C1C1C" d="M0 0h1900v1080H0z"/></mask><g mask="url(#a)"><circle cx="609.5" cy="486.5" r="1007" stroke="#CF894E"/><circle cx="609.5" cy="486.5" r="1007" stroke="url(#b)"/><path d="M2051.5 390c0 466.957-378.32 845.5-845 845.5s-845-378.543-845-845.5 378.32-845.5 845-845.5 845 378.543 845 845.5Z" stroke="#CF894E"/><path d="M2051.5 390c0 466.957-378.32 845.5-845 845.5s-845-378.543-845-845.5 378.32-845.5 845-845.5 845 378.543 845 845.5Z" stroke="url(#c)"/><path d="M1311.5-200.5c0 466.681-378.096 845-844.5 845s-844.5-378.319-844.5-845 378.096-845 844.5-845 844.5 378.319 844.5 845Z" stroke="#CF894E"/><path d="M1311.5-200.5c0 466.681-378.096 845-844.5 845s-844.5-378.319-844.5-845 378.096-845 844.5-845 844.5 378.319 844.5 845Z" stroke="url(#d)"/><path d="M2256.5 1699.5c0 466.68-378.1 845-844.5 845-466.404 0-844.5-378.32-844.5-845s378.096-845 844.5-845c466.4 0 844.5 378.32 844.5 845Z" stroke="#CF894E"/><path d="M2256.5 1699.5c0 466.68-378.1 845-844.5 845-466.404 0-844.5-378.32-844.5-845s378.096-845 844.5-845c466.4 0 844.5 378.32 844.5 845Z" stroke="url(#e)"/><path d="M183.5 809.5c0 466.68-378.096 845-844.5 845-466.4 0-844.5-378.32-844.5-845 0-466.681 378.1-845 844.5-845 466.404 0 844.5 378.319 844.5 845Z" stroke="#CF894E"/><path d="M183.5 809.5c0 466.68-378.096 845-844.5 845-466.4 0-844.5-378.32-844.5-845 0-466.681 378.1-845 844.5-845 466.404 0 844.5 378.319 844.5 845Z" stroke="url(#f)"/></g></g><defs><linearGradient id="b" x1="609.5" y1="-521" x2="609.5" y2="1494" gradientUnits="userSpaceOnUse"><stop stop-color="#CF894E"/><stop offset="1" stop-color="#FCD385"/></linearGradient><linearGradient id="c" x1="1278.58" y1="1236" x2="1278.58" y2="-456" gradientUnits="userSpaceOnUse"><stop stop-color="#CF894E"/><stop offset="1" stop-color="#FCD385"/></linearGradient><linearGradient id="d" x1="539.041" y1="645" x2="539.041" y2="-1046" gradientUnits="userSpaceOnUse"><stop stop-color="#CF894E"/><stop offset="1" stop-color="#FCD385"/></linearGradient><linearGradient id="e" x1="1484.04" y1="2545" x2="1484.04" y2="854" gradientUnits="userSpaceOnUse"><stop stop-color="#CF894E"/><stop offset="1" stop-color="#FCD385"/></linearGradient><linearGradient id="f" x1="-588.959" y1="1655" x2="-588.959" y2="-36" gradientUnits="userSpaceOnUse"><stop stop-color="#CF894E"/><stop offset="1" stop-color="#FCD385"/></linearGradient></defs></svg>