<svg width="26" height="36" fill="none" xmlns="http://www.w3.org/2000/svg"><path d="M13.327 27.324c2.347 0 3.815-.992 3.815-2.95 0-1.97-1.468-2.961-3.815-2.961H9.524v6.614H8.307v1.041h1.217v1.13h2.046v-1.13h2.71v-1.041h-2.71v-.703h1.757Zm1.757-2.937c0 .866-.64 1.343-1.77 1.343H11.57v-2.66h1.744c1.13 0 1.77.464 1.77 1.317Z" fill="#DCAD76"/><path d="M2.424 25.797c0 3.776 1.536 7.779 5.903 7.779h9.338c4.367 0 5.904-4.003 5.904-7.78 0-4.471-3.943-13.63-8.798-14.673-.15.039-.327.048-.482.065.383.602.884 1.412 1.525 2.486.815 1.362-1.26 2.602-2.074 1.24-.511-.858-.924-1.532-1.254-2.059a18.377 18.377 0 0 0-.997 5.043c-.087 1.588-2.502 1.456-2.414-.133a20.732 20.732 0 0 1 1.3-6.143c-.171.018-.349.044-.52.056-4.303 3.338-7.431 8.579-7.431 14.119ZM13.964 8.79l2.044-5.885c-2.965.272-3.642 2.533-7.328 1.458l1.559 4.84 3.726-.413ZM0 25.797c0-6.098 3.295-11.902 7.957-15.694L5.03.586c8.806 4.22 6.923-2.577 14.29.027l-2.912 8.498c5.394 2.163 9.584 11.217 9.584 16.686 0 5.17-2.558 10.203-8.327 10.203H8.327C2.557 36 0 30.967 0 25.797Z" fill="#DCAD76"/></svg>