<svg width="36" height="36" fill="none" xmlns="http://www.w3.org/2000/svg"><path fill="#DCAD76" d="M0 0h3v19H0zm33 0h3v19h-3zM18 13h3v23h-3z"/><path fill="#DCAD76" d="M0 12h3v24H0zM18 0h3v8h-3z"/><path fill="#DCAD76" d="M13 13v3H0v-3zm21 3v3H21v-3zM33 0v3H3V0zM21 33v3H3v-3zm10.25-.599c2.922 0 4.75-1.241 4.75-3.692C36 26.24 34.172 25 31.25 25h-4.734v8.281H25v1.305h1.516V36h2.547v-1.414h3.375V33.28h-3.376v-.88h2.188Zm2.188-3.677c0 1.085-.797 1.682-2.204 1.682h-2.172v-3.332h2.172c1.407 0 2.203.582 2.203 1.65Z"/></svg>