<svg width="37" height="36" fill="none" xmlns="http://www.w3.org/2000/svg"><path d="M32.142 32.157c2.671 0 4.343-1.128 4.343-3.357 0-2.243-1.672-3.371-4.343-3.371h-4.329v7.528h-1.385v1.186h1.385v1.286h2.329v-1.286h3.086v-1.186h-3.086v-.8h2Zm2-3.343c0 .986-.729 1.529-2.014 1.529h-1.986v-3.029h1.986c1.285 0 2.014.529 2.014 1.5ZM26.072 13.5h-21A4.5 4.5 0 0 1 .572 9V4.5a4.5 4.5 0 0 1 4.5-4.5h21a4.5 4.5 0 0 1 4.5 4.5V9a4.5 4.5 0 0 1-4.5 4.5ZM5.072 3a1.5 1.5 0 0 0-1.5 1.5V9a1.5 1.5 0 0 0 1.5 1.5h21a1.5 1.5 0 0 0 1.5-1.5V4.5a1.5 1.5 0 0 0-1.5-1.5h-21Z" fill="#DCAD76"/><path d="M17.072 24a1.5 1.5 0 0 1-1.5-1.5v-3a4.5 4.5 0 0 1 4.5-4.5h12a1.5 1.5 0 0 0 1.5-1.5V9a1.5 1.5 0 0 0-1.5-1.5h-3a1.5 1.5 0 1 1 0-3h3a4.5 4.5 0 0 1 4.5 4.5v4.5a4.5 4.5 0 0 1-4.5 4.5h-12a1.5 1.5 0 0 0-1.5 1.5v3a1.5 1.5 0 0 1-1.5 1.5Z" fill="#DCAD76"/><path d="M21.572 36h-9a1.5 1.5 0 0 1-1.5-1.5v-9a4.5 4.5 0 0 1 4.5-4.5h3a4.5 4.5 0 0 1 4.5 4.5v9a1.5 1.5 0 0 1-1.5 1.5Zm-7.5-3h6v-7.5a1.5 1.5 0 0 0-1.5-1.5h-3a1.5 1.5 0 0 0-1.5 1.5V33ZM2.857 19.714h2.857V36H2.857z" fill="#DCAD76"/><path d="m4.286 16.857 3.711 6.428H.574l3.712-6.428Z" fill="#DCAD76"/></svg>