<svg width="29" height="29" fill="none" xmlns="http://www.w3.org/2000/svg"><path d="M24.167 0H4.833A4.833 4.833 0 0 0 0 4.833v19.334A4.833 4.833 0 0 0 4.833 29h19.334A4.833 4.833 0 0 0 29 24.167V4.833A4.833 4.833 0 0 0 24.167 0Zm2.416 24.167a2.417 2.417 0 0 1-2.416 2.416H4.833a2.417 2.417 0 0 1-2.416-2.416V4.833a2.417 2.417 0 0 1 2.416-2.416h19.334a2.417 2.417 0 0 1 2.416 2.416v19.334Z" fill="#fff"/><path d="M14.5 7a7.5 7.5 0 1 0 0 15 7.5 7.5 0 0 0 0-15Zm0 12.5a4.999 4.999 0 1 1 0-9.998 4.999 4.999 0 0 1 0 9.998ZM22 9a2 2 0 1 0 0-4 2 2 0 0 0 0 4Z" fill="#fff"/></svg>