<svg width="50" height="58" fill="none" xmlns="http://www.w3.org/2000/svg"><path d="M25 36c-13.808 0-25 4.218-25 9.42V58l10.014-5.038c4.176 1.18 9.364 1.88 14.986 1.88 13.807 0 25-4.219 25-9.421C50 40.218 38.806 36 25 36Z" fill="#000" fill-opacity=".5"/><path d="M25 0C11.192 0 0 11.12 0 24.836V58l10.014-13.283A24.997 24.997 0 0 0 25 49.673c13.807 0 25-11.12 25-24.837C50 11.12 38.806 0 25 0Z" fill="#DCAD76"/><path d="M19 27v14h3.2v-7l8.8 7V27.163h-3.2v6.918L19 27Z" fill="#1C1C1C"/><path fill-rule="evenodd" clip-rule="evenodd" d="M27.81 25.166V11h7.99c2.635 0 4.2 2.306 4.2 4.694 0 2.389-1.483 4.695-4.2 4.695h-4.695v4.777h-3.294Zm3.295-11.037h4.53c.659 0 1.07.66 1.07 1.483 0 .988-.329 1.647-1.07 1.647h-4.53v-3.13ZM17.165 25.33a7.165 7.165 0 1 0 0-14.33 7.165 7.165 0 0 0 0 14.33Zm-.082-3.129a3.953 3.953 0 1 0 0-7.907 3.953 3.953 0 0 0 0 7.907Z" fill="#1C1C1C"/></svg>