<svg width="291" height="132" viewBox="0 0 372 213" fill="none" xmlns="http://www.w3.org/2000/svg"><g filter="url(#a)" fill="#DCAD76"><path d="M200.095 20H43.905A3.916 3.916 0 0 0 40 23.905v93.714a3.916 3.916 0 0 0 3.905 3.905h65.209l-36.119 24.092a3.946 3.946 0 0 0-1.093 5.428 3.952 3.952 0 0 0 3.24 1.718c.743 0 1.485-.195 2.148-.664l40.805-27.177v23.936a3.916 3.916 0 0 0 3.905 3.905 3.916 3.916 0 0 0 3.905-3.905v-23.936l40.805 27.177c1.796 1.211 4.217.703 5.427-1.093 1.211-1.796.703-4.217-1.093-5.428l-36.158-24.053h65.209a3.916 3.916 0 0 0 3.905-3.905V23.905A3.916 3.916 0 0 0 200.095 20Zm-3.905 93.714H47.81V27.81h148.38v85.904Z"/><path d="M161.047 98.096h15.619a3.916 3.916 0 0 0 3.905-3.905V70.762a3.916 3.916 0 0 0-3.905-3.905h-15.619a3.916 3.916 0 0 0-3.904 3.905v23.429a3.916 3.916 0 0 0 3.904 3.904Zm3.905-23.43h7.81v15.62h-7.81v-15.62Zm-35.143 23.43h15.619a3.916 3.916 0 0 0 3.905-3.905V62.953a3.916 3.916 0 0 0-3.905-3.905h-15.619a3.916 3.916 0 0 0-3.905 3.905V94.19a3.916 3.916 0 0 0 3.905 3.904Zm3.905-31.239h7.809v23.429h-7.809V66.857ZM98.57 98.095h15.62a3.917 3.917 0 0 0 3.905-3.904V47.333a3.917 3.917 0 0 0-3.905-3.904H98.57a3.916 3.916 0 0 0-3.904 3.904v46.858a3.916 3.916 0 0 0 3.905 3.904Zm3.906-46.857h7.809v39.048h-7.809V51.238ZM67.332 98.095h15.62a3.916 3.916 0 0 0 3.904-3.904V55.143a3.916 3.916 0 0 0-3.904-3.905h-15.62a3.916 3.916 0 0 0-3.904 3.905v39.048a3.916 3.916 0 0 0 3.904 3.904Zm3.905-39.047h7.81v31.238h-7.81V59.048Zm230.341-7.653v33.59h7.868V68.19l21.638 16.794V51.786h-7.869v16.6l-21.637-16.99Z"/><path fill-rule="evenodd" clip-rule="evenodd" d="M268.094 85.022V51.391h18.966c6.257 0 9.973 5.474 9.973 11.145 0 5.67-3.52 11.145-9.973 11.145h-11.145v11.341h-7.821Zm7.821-26.2h10.754c1.564 0 2.542 1.563 2.542 3.519 0 2.346-.782 3.91-2.542 3.91h-10.754v-7.43Zm-29.904 26.201c9.395 0 17.012-7.617 17.012-17.012S255.406 51 246.011 51 229 58.616 229 68.011s7.616 17.012 17.011 17.012Zm-.195-7.43a9.385 9.385 0 0 0 9.385-9.386 9.386 9.386 0 1 0-9.385 9.386Z"/><path d="M234.755 97.336V100h-1.597v-7.56h3.023c.582 0 1.093.103 1.533.311.443.208.784.504 1.022.888.237.38.356.815.356 1.303 0 .741-.261 1.326-.782 1.756-.518.425-1.237.638-2.156.638h-1.399Zm0-1.262h1.426c.422 0 .743-.097.963-.29.224-.194.336-.471.336-.831 0-.37-.112-.67-.336-.899-.223-.228-.532-.346-.926-.353h-1.463v2.373Zm17.261 2.368h-2.858l-.544 1.558h-1.733l2.945-7.56h1.511l2.961 7.56h-1.733l-.549-1.558Zm-2.418-1.262h1.978l-.995-2.83-.983 2.83Zm17.164.052h-1.251V100h-1.57v-7.56h2.831c.9 0 1.595.198 2.083.597.488.398.733.96.733 1.687 0 .516-.114.947-.341 1.293-.223.343-.563.616-1.02.82l1.648 3.09V100h-1.685l-1.428-2.768Zm-1.251-1.261h1.267c.394 0 .699-.1.915-.297.217-.2.325-.476.325-.825 0-.357-.103-.637-.309-.841-.202-.205-.515-.307-.937-.307h-1.261v2.27Zm19.198-2.27h-2.371V100h-1.595v-6.299h-2.339V92.44h6.305v1.26ZM300.656 100h-1.597l-3.11-4.975V100h-1.597v-7.56h1.597l3.115 4.984V92.44h1.592V100Zm14.674-3.277h-3.064v2.026h3.596V100h-5.192v-7.56h5.181v1.26h-3.585v1.802h3.064v1.22Zm12.625.509h-1.25V100h-1.57v-7.56h2.831c.9 0 1.594.198 2.082.597.489.398.733.96.733 1.687 0 .516-.114.947-.34 1.293-.224.343-.564.616-1.021.82l1.649 3.09V100h-1.685l-1.429-2.768Zm-1.25-1.261h1.266c.394 0 .699-.1.916-.297.216-.2.324-.476.324-.825 0-.357-.103-.637-.309-.841-.202-.205-.514-.307-.936-.307h-1.261v2.27Z"/></g><defs><filter id="a" x="0" y="0" width="371.083" height="212.762" filterUnits="userSpaceOnUse" color-interpolation-filters="sRGB"><feFlood flood-opacity="0" result="BackgroundImageFix"/><feColorMatrix in="SourceAlpha" values="0 0 0 0 0 0 0 0 0 0 0 0 0 0 0 0 0 0 127 0" result="hardAlpha"/><feOffset dy="20"/><feGaussianBlur stdDeviation="20"/><feComposite in2="hardAlpha" operator="out"/><feColorMatrix values="0 0 0 0 1 0 0 0 0 0.870588 0 0 0 0 0.717647 0 0 0 0.25 0"/><feBlend in2="BackgroundImageFix" result="effect1_dropShadow"/><feBlend in="SourceGraphic" in2="effect1_dropShadow" result="shape"/></filter></defs></svg>