<svg width="32" height="32" fill="none" xmlns="http://www.w3.org/2000/svg"><rect x=".141" y=".224" width="30.894" height="30.894" rx="5" fill="#fff"/><path d="M27.945.224H3.23C1.557.224.14 1.64.14 3.313v24.715c0 1.674 1.417 3.09 3.09 3.09h24.715a3.09 3.09 0 0 0 3.09-3.09V3.313c0-1.673-1.416-3.09-3.09-3.09ZM6.705 27.77c0 .643-.514 1.223-1.222 1.223H3.487a1.222 1.222 0 0 1-1.222-1.223v-1.995c0-.644.514-1.223 1.222-1.223h1.996c.643 0 1.223.515 1.223 1.223v1.995Zm0-7.402c0 .644-.514 1.223-1.222 1.223H3.487a1.222 1.222 0 0 1-1.222-1.223v-1.995c0-.644.514-1.223 1.222-1.223h1.996c.643 0 1.223.515 1.223 1.223v1.995Zm0-7.402c0 .644-.514 1.223-1.222 1.223H3.487a1.222 1.222 0 0 1-1.222-1.223v-1.995c0-.643.514-1.223 1.222-1.223h1.996c.643 0 1.223.515 1.223 1.223v1.995Zm0-7.401c0 .643-.514 1.223-1.222 1.223H3.487a1.222 1.222 0 0 1-1.222-1.223V3.57c0-.644.514-1.223 1.222-1.223h1.996c.643 0 1.223.515 1.223 1.223v1.995Zm12.873 10.941-5.664 3.862c-.708.45-1.609 0-1.609-.837V11.81c0-.837.901-1.352 1.61-.837l5.663 3.862a.967.967 0 0 1 0 1.673Zm9.268 11.264c0 .643-.515 1.223-1.223 1.223h-1.995a1.222 1.222 0 0 1-1.223-1.223v-1.995c0-.644.515-1.223 1.223-1.223h1.995c.644 0 1.223.515 1.223 1.223v1.995Zm0-7.402c0 .644-.515 1.223-1.223 1.223h-1.995a1.222 1.222 0 0 1-1.223-1.223v-1.995c0-.644.515-1.223 1.223-1.223h1.995c.644 0 1.223.515 1.223 1.223v1.995Zm0-7.402c0 .644-.515 1.223-1.223 1.223h-1.995a1.222 1.222 0 0 1-1.223-1.223v-1.995c0-.643.515-1.223 1.223-1.223h1.995c.644 0 1.223.515 1.223 1.223v1.995Zm0-7.401c0 .643-.515 1.223-1.223 1.223h-1.995a1.222 1.222 0 0 1-1.223-1.223V3.57c0-.644.515-1.223 1.223-1.223h1.995c.644 0 1.223.515 1.223 1.223v1.995Z" fill="#DCAD76"/></svg>