<svg width="702" height="563" fill="none" xmlns="http://www.w3.org/2000/svg"><g filter="url(#a)"><path d="M266 45c0-13.807 11.193-25 25-25h41c13.807 0 25 11.193 25 25v41c0 13.807-11.193 25-25 25h-41c-13.807 0-25-11.193-25-25V45Z" fill="#252525"/></g><path d="M334.101 83.883a8.082 8.082 0 0 0-4.067-4.212l-10.919-5.049c-.012-.005-1.264-.844-1.407-1.534a17.578 17.578 0 0 1-.363-3.416c.019.001.038.003.058.003h2.159a7.207 7.207 0 0 0 6.935-5.235c.285-1 .35-2.05.191-3.078l-.725-4.682a.885.885 0 0 0-.045-.175v-.533a3.425 3.425 0 0 0-.272-1.343l-.924-5.966a12.885 12.885 0 0 0-21.524-7.975 12.89 12.89 0 0 0-4.104 8.268l-.901 4.742a3.43 3.43 0 0 0-.859 2.274v1.68c0 .158.011.315.033.471a.99.99 0 0 0-.046.16l-.469 2.468a7.25 7.25 0 0 0 .635 4.571l.183.367a7.169 7.169 0 0 0 6.449 3.986h1.788a17.634 17.634 0 0 1-.373 3.459c-.141.67-1.245 1.475-1.253 1.479-.009.003-10.944 5.058-10.944 5.058a8.085 8.085 0 0 0-4.067 4.212l-2.283 5.432a.954.954 0 0 0 .878 1.322h47.641a.958.958 0 0 0 .794-.425.954.954 0 0 0 .085-.897l-2.284-5.432Zm-16.658-7.98a6.67 6.67 0 0 1-11.534-.034 3.927 3.927 0 0 0 1.491-2.344c.197-.947.325-1.906.381-2.872a8.696 8.696 0 0 0 7.695.06c.056.928.178 1.85.366 2.761.2.986.773 1.856 1.6 2.429h.001Zm7.362-14.25a5.301 5.301 0 0 1-1.215 4.264 5.305 5.305 0 0 1-4.028 1.852h-.722c.212-.317.404-.648.573-.991a26.077 26.077 0 0 0 2.021-5.678h1.037a3.429 3.429 0 0 0 2.133-.739l.201 1.292Zm-.792-5.681v1.68a1.556 1.556 0 0 1-.731 1.313 1.54 1.54 0 0 1-.811.229h-.672c.204-1.31.306-2.632.308-3.957v-.807h.364a1.546 1.546 0 0 1 1.542 1.541Zm-23.038-6.706a.945.945 0 0 0 .013-.092 10.982 10.982 0 0 1 21.844-.274l.004.036.576 3.72a3.439 3.439 0 0 0-.941-.132h-.448a2.801 2.801 0 0 0-2.361-2.101 8.62 8.62 0 0 1-7.064-5.798l-.008-.026a.957.957 0 0 0-.904-.65.955.955 0 0 0-.903.65l-.01.028a8.611 8.611 0 0 1-7.063 5.796 2.797 2.797 0 0 0-2.361 2.101h-.568c-.144 0-.288.01-.431.028l.625-3.286Zm1.792 14.682a.992.992 0 0 1-.133.01c-.774 0-1.429-.873-1.429-1.905a2.144 2.144 0 0 1 .602-1.549 26.34 26.34 0 0 0 .959 3.444h.001Zm-3.528-7.977a1.545 1.545 0 0 1 1.542-1.541h.483v.807a25.86 25.86 0 0 0 .207 3.244c-.377.16-.721.39-1.013.68a1.533 1.533 0 0 1-1.057-.82 1.556 1.556 0 0 1-.163-.689l.001-1.68Zm4.88 11.798a5.272 5.272 0 0 1-4.745-2.932l-.183-.367a5.331 5.331 0 0 1-.467-3.363l.115-.604c.198.135.41.248.632.34-.114.392-.172.8-.172 1.21 0 2.101 1.496 3.81 3.335 3.81.285 0 .57-.04.843-.122.154.349.312.695.481 1.037.169.343.361.674.574.991h-.413Zm1.549-1.835a24.284 24.284 0 0 1-2.497-10.696v-2.043a.888.888 0 0 1 .777-.881 10.544 10.544 0 0 0 7.738-5.115 10.538 10.538 0 0 0 7.737 5.115.89.89 0 0 1 .778.881v2.042a24.298 24.298 0 0 1-2.497 10.697 6.712 6.712 0 0 1-12.037 0h.001Zm-1.456 10.809a8.581 8.581 0 0 0 14.948 0l1.735.801a10.492 10.492 0 0 1-18.418 0l1.735-.801Zm26.53 11.989v-2.859a.951.951 0 0 0-1.626-.674.952.952 0 0 0-.28.674v2.859h-34.301v-2.859a.956.956 0 0 0-.953-.953.953.953 0 0 0-.953.953v2.859h-3.33l1.728-4.11a6.18 6.18 0 0 1 3.11-3.221l6.61-3.057a12.392 12.392 0 0 0 10.94 6.576 12.388 12.388 0 0 0 10.94-6.575l6.608 3.056a6.178 6.178 0 0 1 3.109 3.22l1.728 4.11h-3.33Z" fill="#DCAD76"/><path d="M314.484 54.43h2.859a.951.951 0 0 0 .673-1.627.951.951 0 0 0-.673-.279h-2.859a.953.953 0 0 0 0 1.906Zm1.191 3.454a1.31 1.31 0 1 0 0-2.621 1.31 1.31 0 0 0 0 2.62Zm-5.955-4.407a.951.951 0 0 0-.953-.953h-2.799a.951.951 0 0 0-.673 1.627.95.95 0 0 0 .673.28h2.799a.953.953 0 0 0 .953-.954Zm-2.144 4.407a1.31 1.31 0 1 0 0-2.62 1.31 1.31 0 0 0 0 2.62Zm1.325 5.874a.951.951 0 0 0 .515 1.245 5.9 5.9 0 0 0 4.541 0 .943.943 0 0 0 .516-.515.95.95 0 0 0-.207-1.039.944.944 0 0 0-.674-.28.948.948 0 0 0-.364.074 4 4 0 0 1-3.082 0 .956.956 0 0 0-1.039.206.961.961 0 0 0-.206.31Zm1.831-1.707h1.906a.955.955 0 0 0 .953-.952.956.956 0 0 0-.953-.953h-.953v-.953a.952.952 0 0 0-1.627-.674.956.956 0 0 0-.279.674V61.1a.956.956 0 0 0 .953.953ZM381.718 49.9V59h-1.69v-7.683h-1.924V49.9h3.614Zm12.469 2.158-3.25 7.501c-.303.754-.671 1.283-1.105 1.586-.433.312-.957.468-1.573.468a3.23 3.23 0 0 1-1.027-.169 2.273 2.273 0 0 1-.832-.468l.65-1.196a1.764 1.764 0 0 0 1.196.481c.286 0 .52-.073.702-.22.191-.148.364-.395.52-.742l.117-.273-3.029-6.968h1.69l2.184 5.135 2.197-5.135h1.56Zm4.977-.078c.676 0 1.278.148 1.807.442a3.18 3.18 0 0 1 1.261 1.248c.303.538.455 1.157.455 1.86 0 .701-.152 1.325-.455 1.871a3.176 3.176 0 0 1-1.261 1.248c-.529.295-1.131.442-1.807.442-.936 0-1.677-.312-2.223-.936v3.367h-1.625v-9.464h1.547v.91a2.52 2.52 0 0 1 .988-.74 3.406 3.406 0 0 1 1.313-.248Zm-.182 5.72c.598 0 1.088-.199 1.469-.598.39-.398.585-.923.585-1.573 0-.65-.195-1.174-.585-1.573-.381-.398-.871-.598-1.469-.598-.39 0-.741.091-1.053.273a1.881 1.881 0 0 0-.741.754 2.33 2.33 0 0 0-.273 1.144c0 .434.091.815.273 1.144.182.33.429.585.741.767.312.174.663.26 1.053.26Zm8.416 1.391c-.702 0-1.334-.151-1.898-.455a3.381 3.381 0 0 1-1.326-1.26c-.312-.547-.468-1.162-.468-1.847 0-.684.156-1.295.468-1.833a3.381 3.381 0 0 1 1.326-1.26c.564-.304 1.196-.456 1.898-.456.711 0 1.348.152 1.911.455a3.282 3.282 0 0 1 1.313 1.261c.321.538.481 1.149.481 1.833 0 .685-.16 1.3-.481 1.846a3.282 3.282 0 0 1-1.313 1.261c-.563.304-1.2.455-1.911.455Zm0-1.39c.598 0 1.092-.2 1.482-.599.39-.398.585-.923.585-1.573 0-.65-.195-1.174-.585-1.573-.39-.398-.884-.598-1.482-.598s-1.092.2-1.482.598c-.381.4-.572.923-.572 1.573 0 .65.191 1.175.572 1.573.39.4.884.598 1.482.598Zm10.342-2.315c.858.26 1.287.815 1.287 1.664 0 .624-.234 1.105-.702 1.443-.468.338-1.162.507-2.08.507h-3.536v-6.942h3.393c.849 0 1.512.156 1.989.468.476.312.715.754.715 1.326 0 .356-.096.663-.286.923a1.8 1.8 0 0 1-.78.611Zm-3.484-.429h1.703c.84 0 1.261-.29 1.261-.87 0-.564-.421-.846-1.261-.846h-1.703v1.716Zm1.859 2.86c.892 0 1.339-.29 1.339-.87 0-.304-.104-.53-.312-.677-.208-.156-.533-.234-.975-.234h-1.911v1.781h1.859Zm11.143-2.249c0 .113-.009.273-.026.481h-5.447c.095.512.342.92.741 1.222.407.295.91.442 1.508.442.762 0 1.391-.25 1.885-.754l.871 1.001a2.94 2.94 0 0 1-1.183.845 4.31 4.31 0 0 1-1.612.286c-.763 0-1.435-.151-2.015-.455a3.328 3.328 0 0 1-1.352-1.26c-.312-.547-.468-1.162-.468-1.847 0-.676.151-1.282.455-1.82a3.31 3.31 0 0 1 1.287-1.274c.546-.303 1.161-.455 1.846-.455.676 0 1.278.152 1.807.455.537.295.953.715 1.248 1.261.303.538.455 1.162.455 1.872Zm-3.51-2.288c-.52 0-.962.156-1.326.468-.356.304-.572.711-.65 1.222h3.939c-.07-.502-.282-.91-.637-1.222-.356-.312-.798-.468-1.326-.468Zm5.287-1.222h1.625v2.821h3.497v-2.82h1.625V59h-1.625v-2.743h-3.497V59h-1.625v-6.942Zm12.409 2.288c.884 0 1.56.2 2.028.598.476.4.715.962.715 1.69 0 .763-.26 1.352-.78 1.768-.52.416-1.253.62-2.197.611L437.96 59v-6.942h1.625v2.275l1.859.013Zm-.377 3.471c.476.01.84-.09 1.092-.299.251-.208.377-.51.377-.91 0-.39-.122-.676-.364-.858-.243-.182-.611-.277-1.105-.286l-1.482-.013v2.353l1.482.013ZM381.978 69.77c.884 0 1.677.204 2.379.611.71.4 1.265.954 1.664 1.664.398.711.598 1.513.598 2.405 0 .893-.2 1.695-.598 2.405a4.364 4.364 0 0 1-1.664 1.677c-.702.4-1.495.598-2.379.598-.772 0-1.474-.13-2.106-.39a4.03 4.03 0 0 1-1.56-1.13l1.066-1.04c.667.719 1.503 1.078 2.509 1.078.78 0 1.438-.238 1.976-.715.546-.476.879-1.105 1.001-1.885h-4.069V73.71h4.043c-.148-.736-.49-1.33-1.027-1.78-.529-.451-1.17-.677-1.924-.677-1.006 0-1.842.36-2.509 1.08l-1.066-1.04a4.03 4.03 0 0 1 1.56-1.132c.632-.26 1.334-.39 2.106-.39Zm11.715 3.666h-2.431V79h-1.625v-5.564h-2.444v-1.378h6.5v1.378Zm3.968 5.655c-.702 0-1.335-.151-1.898-.455a3.381 3.381 0 0 1-1.326-1.26c-.312-.547-.468-1.162-.468-1.847 0-.684.156-1.295.468-1.833a3.381 3.381 0 0 1 1.326-1.26c.563-.304 1.196-.456 1.898-.456.711 0 1.348.152 1.911.455a3.288 3.288 0 0 1 1.313 1.261c.321.538.481 1.149.481 1.833 0 .685-.16 1.3-.481 1.846-.312.538-.75.958-1.313 1.261-.563.304-1.2.455-1.911.455Zm0-1.39c.598 0 1.092-.2 1.482-.599.39-.398.585-.923.585-1.573 0-.65-.195-1.174-.585-1.573-.39-.398-.884-.598-1.482-.598s-1.092.2-1.482.598c-.381.4-.572.923-.572 1.573 0 .65.191 1.175.572 1.573.39.4.884.598 1.482.598Zm13.934-2.315c.858.26 1.287.815 1.287 1.664 0 .624-.234 1.105-.702 1.443-.468.338-1.161.507-2.08.507h-3.536v-6.942h3.393c.85 0 1.513.156 1.989.468.477.312.715.754.715 1.326 0 .356-.095.663-.286.923a1.8 1.8 0 0 1-.78.611Zm-3.484-.429h1.703c.841 0 1.261-.29 1.261-.87 0-.564-.42-.846-1.261-.846h-1.703v1.716Zm1.859 2.86c.893 0 1.339-.29 1.339-.87 0-.304-.104-.53-.312-.677-.208-.156-.533-.234-.975-.234h-1.911v1.781h1.859Zm8.023-3.471c.884 0 1.56.2 2.028.598.468.4.702.962.702 1.69 0 .763-.26 1.352-.78 1.768-.511.416-1.239.62-2.184.611L414.613 79v-6.942h1.625v2.275l1.755.013Zm3.627-2.288h1.625V79h-1.625v-6.942Zm-4.004 5.76c.477.008.841-.092 1.092-.3.251-.208.377-.51.377-.91 0-.39-.121-.676-.364-.858-.243-.182-.611-.277-1.105-.286l-1.378-.013v2.353l1.378.013ZM542.163 186.57V188h-6.708v-1.131l3.614-3.432c.407-.39.68-.728.819-1.014.147-.295.221-.585.221-.871 0-.425-.143-.75-.429-.975-.286-.226-.707-.338-1.261-.338-.928 0-1.638.316-2.132.949l-1.183-.91c.355-.477.832-.845 1.43-1.105.606-.269 1.282-.403 2.028-.403.988 0 1.776.234 2.366.702.589.468.884 1.105.884 1.911 0 .494-.104.957-.312 1.391-.208.433-.607.927-1.196 1.482l-2.431 2.314h4.29Zm11.64-5.512-3.25 7.501c-.304.754-.672 1.282-1.105 1.586-.434.312-.958.468-1.573.468-.347 0-.689-.057-1.027-.169a2.274 2.274 0 0 1-.832-.468l.65-1.196a1.748 1.748 0 0 0 1.196.481c.286 0 .52-.074.702-.221.19-.148.364-.395.52-.741l.117-.273-3.029-6.968h1.69l2.184 5.135 2.197-5.135h1.56Zm4.976-.078c.676 0 1.279.147 1.807.442.538.294.958.71 1.261 1.248.304.537.455 1.157.455 1.859s-.151 1.326-.455 1.872a3.174 3.174 0 0 1-1.261 1.248c-.528.294-1.131.442-1.807.442-.936 0-1.677-.312-2.223-.936v3.367h-1.625v-9.464h1.547v.91c.269-.33.598-.577.988-.741a3.404 3.404 0 0 1 1.313-.247Zm-.182 5.72c.598 0 1.088-.2 1.469-.598.39-.399.585-.923.585-1.573 0-.65-.195-1.175-.585-1.573-.381-.399-.871-.598-1.469-.598-.39 0-.741.091-1.053.273a1.875 1.875 0 0 0-.741.754c-.182.329-.273.71-.273 1.144 0 .433.091.814.273 1.144.182.329.429.585.741.767.312.173.663.26 1.053.26Zm8.417 1.391c-.702 0-1.335-.152-1.898-.455a3.375 3.375 0 0 1-1.326-1.261c-.312-.546-.468-1.162-.468-1.846 0-.685.156-1.296.468-1.833.32-.538.762-.958 1.326-1.261.563-.304 1.196-.455 1.898-.455.71 0 1.347.151 1.911.455a3.282 3.282 0 0 1 1.313 1.261c.32.537.481 1.148.481 1.833 0 .684-.161 1.3-.481 1.846-.312.537-.75.957-1.313 1.261-.564.303-1.201.455-1.911.455Zm0-1.391c.598 0 1.092-.2 1.482-.598.39-.399.585-.923.585-1.573 0-.65-.195-1.175-.585-1.573-.39-.399-.884-.598-1.482-.598s-1.092.199-1.482.598c-.382.398-.572.923-.572 1.573 0 .65.19 1.174.572 1.573.39.398.884.598 1.482.598Zm10.341-2.314c.858.26 1.287.814 1.287 1.664 0 .624-.234 1.105-.702 1.443-.468.338-1.161.507-2.08.507h-3.536v-6.942h3.393c.849 0 1.512.156 1.989.468.477.312.715.754.715 1.326 0 .355-.095.663-.286.923-.182.26-.442.463-.78.611Zm-3.484-.429h1.703c.841 0 1.261-.291 1.261-.871 0-.564-.42-.845-1.261-.845h-1.703v1.716Zm1.859 2.86c.893 0 1.339-.291 1.339-.871 0-.304-.104-.529-.312-.676-.208-.156-.533-.234-.975-.234h-1.911v1.781h1.859Zm11.143-2.249c0 .112-.009.273-.026.481H581.4c.095.511.342.918.741 1.222.407.294.91.442 1.508.442.762 0 1.391-.252 1.885-.754l.871 1.001a2.949 2.949 0 0 1-1.183.845 4.323 4.323 0 0 1-1.612.286c-.763 0-1.435-.152-2.015-.455a3.335 3.335 0 0 1-1.352-1.261c-.312-.546-.468-1.162-.468-1.846 0-.676.151-1.283.455-1.82a3.304 3.304 0 0 1 1.287-1.274c.546-.304 1.161-.455 1.846-.455.676 0 1.278.151 1.807.455a3.07 3.07 0 0 1 1.248 1.261c.303.537.455 1.161.455 1.872Zm-3.51-2.288c-.52 0-.962.156-1.326.468-.356.303-.572.71-.65 1.222h3.939c-.07-.503-.282-.91-.637-1.222-.356-.312-.798-.468-1.326-.468Zm5.287-1.222h1.625v2.821h3.497v-2.821h1.625V188h-1.625v-2.743h-3.497V188h-1.625v-6.942Zm12.409 2.288c.884 0 1.56.199 2.028.598.477.398.715.962.715 1.69 0 .762-.26 1.352-.78 1.768-.52.416-1.252.619-2.197.611l-3.25-.013v-6.942h1.625v2.275l1.859.013Zm-.377 3.471c.477.008.841-.091 1.092-.299.251-.208.377-.512.377-.91 0-.39-.121-.676-.364-.858-.243-.182-.611-.278-1.105-.286l-1.482-.013v2.353l1.482.013Zm-55.386 19.753v3.367h-1.56V208h-6.981v1.937h-1.573l.013-3.367h.39c.572-.026.97-.447 1.196-1.261.234-.824.377-1.998.429-3.523l.104-2.886h6.669v7.67h1.313Zm-6.604-4.628c-.044 1.178-.139 2.162-.286 2.951-.148.78-.382 1.339-.702 1.677h4.615v-6.24h-3.562l-.065 1.612Zm11.861-.962c.676 0 1.278.147 1.807.442.537.294.957.71 1.261 1.248.303.537.455 1.157.455 1.859s-.152 1.326-.455 1.872a3.187 3.187 0 0 1-1.261 1.248c-.529.294-1.131.442-1.807.442-.936 0-1.677-.312-2.223-.936v3.367h-1.625v-9.464h1.547v.91c.268-.33.598-.577.988-.741a3.397 3.397 0 0 1 1.313-.247Zm-.182 5.72c.598 0 1.087-.2 1.469-.598.39-.399.585-.923.585-1.573 0-.65-.195-1.175-.585-1.573-.382-.399-.871-.598-1.469-.598-.39 0-.741.091-1.053.273a1.875 1.875 0 0 0-.741.754c-.182.329-.273.71-.273 1.144 0 .433.091.814.273 1.144.182.329.429.585.741.767.312.173.663.26 1.053.26Zm11.684-5.642-3.25 7.501c-.304.754-.672 1.282-1.105 1.586-.434.312-.958.468-1.573.468-.347 0-.689-.057-1.027-.169a2.274 2.274 0 0 1-.832-.468l.65-1.196a1.748 1.748 0 0 0 1.196.481c.286 0 .52-.074.702-.221.19-.148.364-.395.52-.741l.117-.273-3.029-6.968h1.69l2.184 5.135 2.197-5.135h1.56Zm5.11 3.328c.434.121.767.32 1.001.598a1.4 1.4 0 0 1 .364.975c0 .424-.143.801-.429 1.131-.286.32-.68.572-1.183.754-.502.182-1.074.273-1.716.273a6.814 6.814 0 0 1-1.573-.182 5.68 5.68 0 0 1-1.391-.546l.468-1.209c.338.19.72.338 1.144.442.425.104.85.156 1.274.156.546 0 .971-.083 1.274-.247.312-.174.468-.408.468-.702 0-.269-.121-.477-.364-.624-.234-.148-.567-.221-1.001-.221h-1.352v-1.092h1.222c.408 0 .724-.07.949-.208.234-.139.351-.334.351-.585 0-.252-.138-.451-.416-.598-.277-.148-.658-.221-1.144-.221-.693 0-1.425.169-2.197.507l-.416-1.196c.91-.425 1.829-.637 2.756-.637.59 0 1.118.082 1.586.247.468.156.832.381 1.092.676.269.286.403.615.403.988 0 .338-.104.641-.312.91-.208.26-.494.463-.858.611Zm6.536-1.04c.884 0 1.56.199 2.028.598.476.398.715.962.715 1.69 0 .762-.26 1.352-.78 1.768-.52.416-1.253.619-2.197.611l-3.25-.013v-6.942h1.625v2.275l1.859.013Zm-.377 3.471c.476.008.84-.091 1.092-.299.251-.208.377-.512.377-.91 0-.39-.122-.676-.364-.858-.243-.182-.611-.278-1.105-.286l-1.482-.013v2.353l1.482.013Zm9.916-5.759V208h-1.456v-2.093h-1.833L578.534 208h-1.742l1.638-2.314c-.503-.174-.889-.438-1.157-.793-.26-.364-.39-.811-.39-1.339 0-.798.281-1.413.845-1.846.563-.434 1.339-.65 2.327-.65h3.185Zm-3.133 1.365c-1.049 0-1.573.394-1.573 1.183 0 .78.507 1.17 1.521 1.17h1.729v-2.353h-1.677Zm21.338 118.234c.84.104 1.482.39 1.924.858.442.468.663 1.053.663 1.755 0 .529-.135 1.01-.403 1.443-.269.434-.676.78-1.222 1.04-.538.252-1.196.377-1.976.377-.65 0-1.279-.091-1.885-.273a4.878 4.878 0 0 1-1.534-.78l.728-1.313c.329.278.728.499 1.196.663.476.156.966.234 1.469.234.598 0 1.066-.121 1.404-.364a1.19 1.19 0 0 0 .52-1.014c0-.424-.165-.754-.494-.988-.321-.242-.815-.364-1.482-.364h-.832v-1.157l2.067-2.457h-4.134V316.9h6.201v1.131l-2.21 2.626Zm14.357-1.599-3.25 7.501c-.303.754-.672 1.283-1.105 1.586-.433.312-.958.468-1.573.468-.347 0-.689-.056-1.027-.169a2.253 2.253 0 0 1-.832-.468l.65-1.196a1.764 1.764 0 0 0 1.196.481c.286 0 .52-.073.702-.221.191-.147.364-.394.52-.741l.117-.273-3.029-6.968h1.69l2.184 5.135 2.197-5.135h1.56Zm4.977-.078c.676 0 1.278.148 1.807.442.537.295.957.711 1.261 1.248.303.538.455 1.157.455 1.859s-.152 1.326-.455 1.872a3.174 3.174 0 0 1-1.261 1.248c-.529.295-1.131.442-1.807.442-.936 0-1.677-.312-2.223-.936v3.367h-1.625v-9.464h1.547v.91c.268-.329.598-.576.988-.741a3.416 3.416 0 0 1 1.313-.247Zm-.182 5.72c.598 0 1.087-.199 1.469-.598.39-.398.585-.923.585-1.573 0-.65-.195-1.174-.585-1.573-.382-.398-.871-.598-1.469-.598-.39 0-.741.091-1.053.273a1.887 1.887 0 0 0-.741.754 2.33 2.33 0 0 0-.273 1.144c0 .434.091.815.273 1.144.182.33.429.585.741.767.312.174.663.26 1.053.26Zm8.416 1.391c-.702 0-1.335-.151-1.898-.455a3.374 3.374 0 0 1-1.326-1.261c-.312-.546-.468-1.161-.468-1.846 0-.684.156-1.295.468-1.833a3.388 3.388 0 0 1 1.326-1.261c.563-.303 1.196-.455 1.898-.455.711 0 1.348.152 1.911.455a3.295 3.295 0 0 1 1.313 1.261c.321.538.481 1.149.481 1.833 0 .685-.16 1.3-.481 1.846-.312.538-.75.958-1.313 1.261-.563.304-1.2.455-1.911.455Zm0-1.391c.598 0 1.092-.199 1.482-.598.39-.398.585-.923.585-1.573 0-.65-.195-1.174-.585-1.573-.39-.398-.884-.598-1.482-.598s-1.092.2-1.482.598c-.381.399-.572.923-.572 1.573 0 .65.191 1.175.572 1.573.39.399.884.598 1.482.598Zm10.341-2.314c.858.26 1.287.815 1.287 1.664 0 .624-.234 1.105-.702 1.443-.468.338-1.161.507-2.08.507h-3.536v-6.942h3.393c.849 0 1.512.156 1.989.468.477.312.715.754.715 1.326 0 .356-.095.663-.286.923a1.8 1.8 0 0 1-.78.611Zm-3.484-.429h1.703c.841 0 1.261-.29 1.261-.871 0-.563-.42-.845-1.261-.845h-1.703v1.716Zm1.859 2.86c.893 0 1.339-.29 1.339-.871 0-.303-.104-.528-.312-.676-.208-.156-.533-.234-.975-.234h-1.911v1.781h1.859Zm11.143-2.249c0 .113-.009.273-.026.481h-5.447c.095.512.342.919.741 1.222.407.295.91.442 1.508.442.763 0 1.391-.251 1.885-.754l.871 1.001a2.923 2.923 0 0 1-1.183.845 4.304 4.304 0 0 1-1.612.286c-.763 0-1.434-.151-2.015-.455a3.328 3.328 0 0 1-1.352-1.261c-.312-.546-.468-1.161-.468-1.846 0-.676.152-1.282.455-1.82a3.31 3.31 0 0 1 1.287-1.274c.546-.303 1.161-.455 1.846-.455.676 0 1.278.152 1.807.455.537.295.953.715 1.248 1.261.303.538.455 1.162.455 1.872Zm-3.51-2.288c-.52 0-.962.156-1.326.468-.355.304-.572.711-.65 1.222h3.939c-.069-.502-.282-.91-.637-1.222-.355-.312-.797-.468-1.326-.468Zm5.287-1.222h1.625v2.821h3.497v-2.821h1.625V326h-1.625v-2.743h-3.497V326h-1.625v-6.942Zm12.409 2.288c.884 0 1.56.2 2.028.598.477.399.715.962.715 1.69 0 .763-.26 1.352-.78 1.768-.52.416-1.252.62-2.197.611l-3.25-.013v-6.942h1.625v2.275l1.859.013Zm-.377 3.471c.477.009.841-.091 1.092-.299.251-.208.377-.511.377-.91 0-.39-.121-.676-.364-.858-.243-.182-.611-.277-1.105-.286l-1.482-.013v2.353l1.482.013Zm-55.386 19.753v3.367h-1.56V346h-6.981v1.937h-1.573l.013-3.367h.39c.572-.026.97-.446 1.196-1.261.234-.823.377-1.997.429-3.523l.104-2.886h6.669v7.67h1.313Zm-6.604-4.628c-.044 1.179-.139 2.163-.286 2.951-.148.78-.382 1.339-.702 1.677h4.615v-6.24h-3.562l-.065 1.612Zm11.861-.962c.676 0 1.278.148 1.807.442a3.18 3.18 0 0 1 1.261 1.248c.303.538.455 1.157.455 1.859s-.152 1.326-.455 1.872a3.167 3.167 0 0 1-1.261 1.248c-.529.295-1.131.442-1.807.442-.936 0-1.677-.312-2.223-.936v3.367h-1.625v-9.464h1.547v.91c.269-.329.598-.576.988-.741a3.42 3.42 0 0 1 1.313-.247Zm-.182 5.72c.598 0 1.088-.199 1.469-.598.39-.398.585-.923.585-1.573 0-.65-.195-1.174-.585-1.573-.381-.398-.871-.598-1.469-.598-.39 0-.741.091-1.053.273a1.887 1.887 0 0 0-.741.754 2.33 2.33 0 0 0-.273 1.144c0 .434.091.815.273 1.144.182.33.429.585.741.767.312.174.663.26 1.053.26Zm11.684-5.642-3.25 7.501c-.303.754-.672 1.283-1.105 1.586-.433.312-.958.468-1.573.468-.347 0-.689-.056-1.027-.169a2.253 2.253 0 0 1-.832-.468l.65-1.196a1.764 1.764 0 0 0 1.196.481c.286 0 .52-.073.702-.221.191-.147.364-.394.52-.741l.117-.273-3.029-6.968h1.69l2.184 5.135 2.197-5.135h1.56Zm5.11 3.328c.434.122.767.321 1.001.598.243.269.364.594.364.975 0 .425-.143.802-.429 1.131-.286.321-.68.572-1.183.754-.502.182-1.074.273-1.716.273a6.76 6.76 0 0 1-1.573-.182 5.68 5.68 0 0 1-1.391-.546l.468-1.209c.338.191.72.338 1.144.442.425.104.85.156 1.274.156.546 0 .971-.082 1.274-.247.312-.173.468-.407.468-.702 0-.268-.121-.476-.364-.624-.234-.147-.567-.221-1.001-.221h-1.352v-1.092h1.222c.408 0 .724-.069.949-.208.234-.138.351-.333.351-.585 0-.251-.138-.45-.416-.598-.277-.147-.658-.221-1.144-.221-.693 0-1.425.169-2.197.507l-.416-1.196c.91-.424 1.829-.637 2.756-.637.59 0 1.118.083 1.586.247.468.156.832.382 1.092.676a1.4 1.4 0 0 1 .403.988c0 .338-.104.642-.312.91-.208.26-.494.464-.858.611Zm6.536-1.04c.884 0 1.56.2 2.028.598.476.399.715.962.715 1.69 0 .763-.26 1.352-.78 1.768-.52.416-1.253.62-2.197.611l-3.25-.013v-6.942h1.625v2.275l1.859.013Zm-.377 3.471c.476.009.84-.091 1.092-.299.251-.208.377-.511.377-.91 0-.39-.122-.676-.364-.858-.243-.182-.611-.277-1.105-.286l-1.482-.013v2.353l1.482.013Zm9.916-5.759V346h-1.456v-2.093h-1.833L640.533 346h-1.742l1.638-2.314c-.503-.173-.888-.437-1.157-.793-.26-.364-.39-.81-.39-1.339 0-.797.282-1.412.845-1.846.563-.433 1.339-.65 2.327-.65h3.185Zm-3.133 1.365c-1.049 0-1.573.395-1.573 1.183 0 .78.507 1.17 1.521 1.17h1.729v-2.353h-1.677Zm16.321 4.199v2.925h-1.521V346h-5.356v1.547h-1.508v-2.925h.325c.442-.017.741-.299.897-.845.165-.554.273-1.334.325-2.34l.091-2.379h5.72v5.564h1.027Zm-5.356-3.068c-.034.798-.099 1.448-.195 1.95-.095.503-.268.876-.52 1.118h3.419v-4.186h-2.665l-.039 1.118Zm10.656-2.574c.676 0 1.278.148 1.807.442.537.295.957.711 1.261 1.248.303.538.455 1.157.455 1.859s-.152 1.326-.455 1.872a3.174 3.174 0 0 1-1.261 1.248c-.529.295-1.131.442-1.807.442-.936 0-1.677-.312-2.223-.936v3.367h-1.625v-9.464h1.547v.91c.268-.329.598-.576.988-.741a3.416 3.416 0 0 1 1.313-.247Zm-.182 5.72c.598 0 1.087-.199 1.469-.598.39-.398.585-.923.585-1.573 0-.65-.195-1.174-.585-1.573-.382-.398-.871-.598-1.469-.598-.39 0-.741.091-1.053.273a1.887 1.887 0 0 0-.741.754 2.33 2.33 0 0 0-.273 1.144c0 .434.091.815.273 1.144.182.33.429.585.741.767.312.174.663.26 1.053.26Zm11.684-5.642-3.25 7.501c-.304.754-.672 1.283-1.105 1.586-.434.312-.958.468-1.573.468-.347 0-.689-.056-1.027-.169a2.245 2.245 0 0 1-.832-.468l.65-1.196a1.764 1.764 0 0 0 1.196.481c.286 0 .52-.073.702-.221.19-.147.364-.394.52-.741l.117-.273-3.029-6.968h1.69l2.184 5.135 2.197-5.135h1.56Zm5.11 3.328c.434.122.767.321 1.001.598.243.269.364.594.364.975 0 .425-.143.802-.429 1.131-.286.321-.68.572-1.183.754-.502.182-1.074.273-1.716.273a6.76 6.76 0 0 1-1.573-.182 5.68 5.68 0 0 1-1.391-.546l.468-1.209c.338.191.72.338 1.144.442.425.104.85.156 1.274.156.546 0 .971-.082 1.274-.247.312-.173.468-.407.468-.702 0-.268-.121-.476-.364-.624-.234-.147-.567-.221-1.001-.221h-1.352v-1.092h1.222c.408 0 .724-.069.949-.208.234-.138.351-.333.351-.585 0-.251-.138-.45-.416-.598-.277-.147-.658-.221-1.144-.221-.693 0-1.425.169-2.197.507l-.416-1.196c.91-.424 1.829-.637 2.756-.637.59 0 1.118.083 1.586.247.468.156.832.382 1.092.676a1.4 1.4 0 0 1 .403.988c0 .338-.104.642-.312.91-.208.26-.494.464-.858.611Zm9.552.182c0 .113-.009.273-.026.481h-5.447c.095.512.342.919.741 1.222.407.295.91.442 1.508.442.762 0 1.391-.251 1.885-.754l.871 1.001a2.93 2.93 0 0 1-1.183.845 4.304 4.304 0 0 1-1.612.286c-.763 0-1.435-.151-2.015-.455a3.322 3.322 0 0 1-1.352-1.261c-.312-.546-.468-1.161-.468-1.846 0-.676.151-1.282.455-1.82a3.31 3.31 0 0 1 1.287-1.274c.546-.303 1.161-.455 1.846-.455.676 0 1.278.152 1.807.455.537.295.953.715 1.248 1.261.303.538.455 1.162.455 1.872Zm-3.51-2.288c-.52 0-.962.156-1.326.468-.356.304-.572.711-.65 1.222h3.939c-.07-.502-.282-.91-.637-1.222-.356-.312-.798-.468-1.326-.468Zm5.287-1.222h1.625v4.576l3.835-4.576h1.482V346h-1.625v-4.576L693.163 346h-1.495v-6.942Zm3.367-.819c-.702 0-1.239-.16-1.612-.481-.364-.329-.55-.806-.559-1.43h1.079c.009.312.104.559.286.741.191.182.455.273.793.273.329 0 .589-.091.78-.273.199-.182.303-.429.312-.741h1.105c-.009.624-.199 1.101-.572 1.43-.373.321-.91.481-1.612.481Z" fill="#DCAD76"/><path d="M633.683 449.933h-1.612V452h-1.638v-2.067h-4.992v-1.17l4.485-5.863h1.807l-4.225 5.603h2.977v-1.833h1.586v1.833h1.612v1.43Zm11.376-4.875-3.25 7.501c-.303.754-.671 1.283-1.105 1.586-.433.312-.957.468-1.573.468-.346 0-.689-.056-1.027-.169a2.253 2.253 0 0 1-.832-.468l.65-1.196a1.764 1.764 0 0 0 1.196.481c.286 0 .52-.073.702-.221.191-.147.364-.394.52-.741l.117-.273-3.029-6.968h1.69l2.184 5.135 2.197-5.135h1.56Zm4.977-.078c.676 0 1.278.148 1.807.442a3.18 3.18 0 0 1 1.261 1.248c.303.538.455 1.157.455 1.859s-.152 1.326-.455 1.872a3.167 3.167 0 0 1-1.261 1.248c-.529.295-1.131.442-1.807.442-.936 0-1.677-.312-2.223-.936v3.367h-1.625v-9.464h1.547v.91c.269-.329.598-.576.988-.741a3.42 3.42 0 0 1 1.313-.247Zm-.182 5.72c.598 0 1.088-.199 1.469-.598.39-.398.585-.923.585-1.573 0-.65-.195-1.174-.585-1.573-.381-.398-.871-.598-1.469-.598-.39 0-.741.091-1.053.273a1.887 1.887 0 0 0-.741.754 2.33 2.33 0 0 0-.273 1.144c0 .434.091.815.273 1.144.182.33.429.585.741.767.312.174.663.26 1.053.26Zm8.416 1.391c-.702 0-1.334-.151-1.898-.455a3.374 3.374 0 0 1-1.326-1.261c-.312-.546-.468-1.161-.468-1.846 0-.684.156-1.295.468-1.833a3.388 3.388 0 0 1 1.326-1.261c.564-.303 1.196-.455 1.898-.455.711 0 1.348.152 1.911.455a3.288 3.288 0 0 1 1.313 1.261c.321.538.481 1.149.481 1.833 0 .685-.16 1.3-.481 1.846a3.275 3.275 0 0 1-1.313 1.261c-.563.304-1.2.455-1.911.455Zm0-1.391c.598 0 1.092-.199 1.482-.598.39-.398.585-.923.585-1.573 0-.65-.195-1.174-.585-1.573-.39-.398-.884-.598-1.482-.598s-1.092.2-1.482.598c-.381.399-.572.923-.572 1.573 0 .65.191 1.175.572 1.573.39.399.884.598 1.482.598Zm10.342-2.314c.858.26 1.287.815 1.287 1.664 0 .624-.234 1.105-.702 1.443-.468.338-1.162.507-2.08.507h-3.536v-6.942h3.393c.849 0 1.512.156 1.989.468.476.312.715.754.715 1.326 0 .356-.096.663-.286.923a1.8 1.8 0 0 1-.78.611Zm-3.484-.429h1.703c.84 0 1.261-.29 1.261-.871 0-.563-.421-.845-1.261-.845h-1.703v1.716Zm1.859 2.86c.892 0 1.339-.29 1.339-.871 0-.303-.104-.528-.312-.676-.208-.156-.533-.234-.975-.234h-1.911v1.781h1.859Zm11.142-2.249c0 .113-.008.273-.026.481h-5.447c.096.512.343.919.741 1.222.408.295.91.442 1.508.442.763 0 1.391-.251 1.885-.754l.871 1.001a2.923 2.923 0 0 1-1.183.845c-.476.191-1.014.286-1.612.286-.762 0-1.434-.151-2.015-.455a3.334 3.334 0 0 1-1.352-1.261c-.312-.546-.468-1.161-.468-1.846 0-.676.152-1.282.455-1.82a3.31 3.31 0 0 1 1.287-1.274c.546-.303 1.162-.455 1.846-.455.676 0 1.279.152 1.807.455.538.295.954.715 1.248 1.261.304.538.455 1.162.455 1.872Zm-3.51-2.288c-.52 0-.962.156-1.326.468-.355.304-.572.711-.65 1.222h3.939c-.069-.502-.281-.91-.637-1.222-.355-.312-.797-.468-1.326-.468Zm5.288-1.222h1.625v2.821h3.497v-2.821h1.625V452h-1.625v-2.743h-3.497V452h-1.625v-6.942Zm12.409 2.288c.884 0 1.56.2 2.028.598.476.399.715.962.715 1.69 0 .763-.26 1.352-.78 1.768-.52.416-1.253.62-2.197.611l-3.25-.013v-6.942h1.625v2.275l1.859.013Zm-.377 3.471c.476.009.84-.091 1.092-.299.251-.208.377-.511.377-.91 0-.39-.122-.676-.364-.858-.243-.182-.611-.277-1.105-.286l-1.482-.013v2.353l1.482.013Zm-55.521 97.606c1.283 0 2.232.252 2.847.754.615.494.923 1.17.923 2.028 0 .546-.134 1.04-.403 1.482-.269.442-.672.793-1.209 1.053-.537.26-1.2.39-1.989.39-.65 0-1.278-.091-1.885-.273-.607-.19-1.118-.45-1.534-.78l.715-1.313c.338.278.741.499 1.209.663.477.156.966.234 1.469.234.598 0 1.066-.121 1.404-.364a1.2 1.2 0 0 0 .52-1.027c0-.468-.186-.819-.559-1.053-.364-.242-.992-.364-1.885-.364h-2.197l.468-4.953h5.343v1.417h-3.913l-.195 2.106h.871Zm15.41-1.365-3.25 7.501c-.304.754-.672 1.283-1.105 1.586-.434.312-.958.468-1.573.468-.347 0-.689-.056-1.027-.169a2.245 2.245 0 0 1-.832-.468l.65-1.196a1.764 1.764 0 0 0 1.196.481c.286 0 .52-.073.702-.221.19-.147.364-.394.52-.741l.117-.273-3.029-6.968h1.69l2.184 5.135 2.197-5.135h1.56Zm4.976-.078c.676 0 1.279.148 1.807.442.538.295.958.711 1.261 1.248.304.538.455 1.157.455 1.859s-.151 1.326-.455 1.872a3.161 3.161 0 0 1-1.261 1.248c-.528.295-1.131.442-1.807.442-.936 0-1.677-.312-2.223-.936v3.367h-1.625v-9.464h1.547v.91c.269-.329.598-.576.988-.741a3.423 3.423 0 0 1 1.313-.247Zm-.182 5.72c.598 0 1.088-.199 1.469-.598.39-.398.585-.923.585-1.573 0-.65-.195-1.174-.585-1.573-.381-.398-.871-.598-1.469-.598-.39 0-.741.091-1.053.273a1.887 1.887 0 0 0-.741.754 2.33 2.33 0 0 0-.273 1.144c0 .434.091.815.273 1.144.182.33.429.585.741.767.312.174.663.26 1.053.26Zm8.416 1.391c-.702 0-1.334-.151-1.898-.455a3.374 3.374 0 0 1-1.326-1.261c-.312-.546-.468-1.161-.468-1.846 0-.684.156-1.295.468-1.833a3.388 3.388 0 0 1 1.326-1.261c.564-.303 1.196-.455 1.898-.455.711 0 1.348.152 1.911.455a3.288 3.288 0 0 1 1.313 1.261c.321.538.481 1.149.481 1.833 0 .685-.16 1.3-.481 1.846a3.275 3.275 0 0 1-1.313 1.261c-.563.304-1.2.455-1.911.455Zm0-1.391c.598 0 1.092-.199 1.482-.598.39-.398.585-.923.585-1.573 0-.65-.195-1.174-.585-1.573-.39-.398-.884-.598-1.482-.598s-1.092.2-1.482.598c-.381.399-.572.923-.572 1.573 0 .65.191 1.175.572 1.573.39.399.884.598 1.482.598Zm10.342-2.314c.858.26 1.287.815 1.287 1.664 0 .624-.234 1.105-.702 1.443-.468.338-1.162.507-2.08.507h-3.536v-6.942h3.393c.849 0 1.512.156 1.989.468.476.312.715.754.715 1.326 0 .356-.096.663-.286.923a1.8 1.8 0 0 1-.78.611Zm-3.484-.429h1.703c.84 0 1.261-.29 1.261-.871 0-.563-.421-.845-1.261-.845h-1.703v1.716Zm1.859 2.86c.892 0 1.339-.29 1.339-.871 0-.303-.104-.528-.312-.676-.208-.156-.533-.234-.975-.234h-1.911v1.781h1.859Zm11.143-2.249c0 .113-.009.273-.026.481h-5.447c.095.512.342.919.741 1.222.407.295.91.442 1.508.442.762 0 1.391-.251 1.885-.754l.871 1.001a2.93 2.93 0 0 1-1.183.845 4.304 4.304 0 0 1-1.612.286c-.763 0-1.435-.151-2.015-.455a3.322 3.322 0 0 1-1.352-1.261c-.312-.546-.468-1.161-.468-1.846 0-.676.151-1.282.455-1.82a3.31 3.31 0 0 1 1.287-1.274c.546-.303 1.161-.455 1.846-.455.676 0 1.278.152 1.807.455.537.295.953.715 1.248 1.261.303.538.455 1.162.455 1.872Zm-3.51-2.288c-.52 0-.962.156-1.326.468-.356.304-.572.711-.65 1.222h3.939c-.07-.502-.282-.91-.637-1.222-.356-.312-.798-.468-1.326-.468Zm5.287-1.222h1.625v2.821h3.497v-2.821h1.625V554h-1.625v-2.743H688.3V554h-1.625v-6.942Zm12.409 2.288c.884 0 1.56.2 2.028.598.476.399.715.962.715 1.69 0 .763-.26 1.352-.78 1.768-.52.416-1.253.62-2.197.611L695.6 554v-6.942h1.625v2.275l1.859.013Zm-.377 3.471c.476.009.84-.091 1.092-.299.251-.208.377-.511.377-.91 0-.39-.122-.676-.364-.858-.243-.182-.611-.277-1.105-.286l-1.482-.013v2.353l1.482.013Z" fill="#C1C7CA"/><path d="M37 318c0-9.389 7.611-17 17-17h30c9.389 0 17 7.611 17 17v31c0 9.389-7.611 17-17 17H54c-9.389 0-17-7.611-17-17v-31Zm319 0c0-9.389 7.611-17 17-17h31c9.389 0 17 7.611 17 17v31c0 9.389-7.611 17-17 17h-31c-9.389 0-17-7.611-17-17v-31Zm-162 0c0-9.389 7.611-17 17-17h30c9.389 0 17 7.611 17 17v31c0 9.389-7.611 17-17 17h-30c-9.389 0-17-7.611-17-17v-31Zm319 0c0-9.389 7.611-17 17-17h30c9.389 0 17 7.611 17 17v31c0 9.389-7.611 17-17 17h-30c-9.389 0-17-7.611-17-17v-31Z" fill="#EAEFF1"/><path d="m87.592 350.709-.299-2.313a5.374 5.374 0 0 0-3.07-4.201l-7.431-3.467a.634.634 0 0 0-.082-.427l-1.906-3.176a.64.64 0 0 0-.676-.295.635.635 0 0 0-.238.105l-.901.644v-.762a.652.652 0 0 0-.006-.08 6.78 6.78 0 0 0 1.733-1.685l.18-.253a6.763 6.763 0 0 0 1.264-3.699h.247a2.285 2.285 0 0 0 2.056-1.27 2.31 2.31 0 0 0 .242-1.028v-1.12a2.29 2.29 0 0 0-.555-1.496l.01-.04a11.18 11.18 0 0 0-.109-4.912l-.173-.692a3.066 3.066 0 0 0-2.62-2.309 7.22 7.22 0 0 0-5.973-3.197h-3.923a6.79 6.79 0 0 0-6.793 6.771 6.798 6.798 0 0 0 .894 3.393l.639 1.116a2.286 2.286 0 0 0-.452 1.366v1.12a2.31 2.31 0 0 0 1.089 1.957c.363.224.782.343 1.21.341h.247a6.764 6.764 0 0 0 1.263 3.699l.18.253a6.778 6.778 0 0 0 1.733 1.685.652.652 0 0 0-.005.08v.762l-.901-.644a.633.633 0 0 0-.499-.105.634.634 0 0 0-.415.295l-1.906 3.176a.634.634 0 0 0-.082.427l-7.43 3.468a5.363 5.363 0 0 0-3.072 4.2l-.299 2.313a.637.637 0 0 0 .63.717h35.57a.64.64 0 0 0 .63-.717Zm-31.753-5.908 6.385-2.979 1.98 2.969a.633.633 0 0 0 .528.283h.015a.639.639 0 0 0 .53-.308l.86-1.435a6.786 6.786 0 0 0 6.081 0l.861 1.435a.634.634 0 0 0 .53.308h.015a.639.639 0 0 0 .528-.283l1.98-2.969 6.384 2.979v5.354H55.84v-5.354Zm12.807-3.538h1.064l1.585.528.267.447a5.528 5.528 0 0 1-4.77 0l.269-.447 1.585-.528Zm5.422-2.894 1.345 2.241-1.76 2.641-1.39-2.315a.636.636 0 0 0-.344-.276l-.722-.24 2.871-2.051Zm-8.066-12.535a1.908 1.908 0 0 1 1.76 1.176 1.906 1.906 0 1 1-3.666.73 1.906 1.906 0 0 1 1.906-1.906Zm-2.54.002v-2.056l1.563.938a3.192 3.192 0 0 0-1.564 1.118Zm5.525.818a3.186 3.186 0 0 0-2.354-2.027.635.635 0 0 0 .004-.064v-.783l2.214 1.328a.64.64 0 0 0 .64.008.631.631 0 0 0 .322-.552v-.784l1.563.938a3.2 3.2 0 0 0-2.007 1.936h-.382Zm3.367-.82a1.908 1.908 0 0 1 1.76 1.176 1.906 1.906 0 1 1-3.666.73 1.906 1.906 0 0 1 1.906-1.906Zm.63-1.207a.446.446 0 0 0 .005-.063v-1.193a2.616 2.616 0 0 1 1.906 1.906v.559a3.183 3.183 0 0 0-1.91-1.209Zm4.45 4.175a1.035 1.035 0 0 1-.486.875c-.162.101-.35.154-.54.153h-.243v-3.176h.242a1.03 1.03 0 0 1 1.028 1.028v1.12Zm-17.012-9.443a5.491 5.491 0 0 1 4.94-3.053h3.923a5.94 5.94 0 0 1 5.065 2.868.635.635 0 0 0 .544.308 1.805 1.805 0 0 1 1.752 1.368l.173.692a9.91 9.91 0 0 1 .173 3.918 2.262 2.262 0 0 0-.585-.076h-.242v-.185a.643.643 0 0 0-.02-.154l-.018-.076a3.882 3.882 0 0 0-3.773-2.946.636.636 0 0 0-.636.635v.784l-2.214-1.328a.63.63 0 0 0-.64-.009.641.641 0 0 0-.322.553v.784l-2.213-1.328a.63.63 0 0 0-.64-.009.641.641 0 0 0-.322.553v.784l-2.214-1.328a.63.63 0 0 0-.64-.009.641.641 0 0 0-.322.553v2.726h-.243c-.283 0-.564.052-.828.155l-.554-.97a5.512 5.512 0 0 1-.144-5.21Zm.607 9.903a1.034 1.034 0 0 1-.109-.46v-1.12a1.03 1.03 0 0 1 1.028-1.028h.243v3.176h-.243a1.019 1.019 0 0 1-.92-.568Zm3.644 5.052-.18-.253a5.506 5.506 0 0 1-1.032-3.218v-1.2a3.177 3.177 0 0 0 2.091 1.24 3.168 3.168 0 0 0 2.355-.605v.822a.634.634 0 0 0 .636.635h1.27a.636.636 0 0 0 0-1.27h-.635v-2.541h.005a3.177 3.177 0 0 0 2.255 2.857 3.175 3.175 0 0 0 3.456-1.138v1.2a5.506 5.506 0 0 1-1.031 3.218l-.18.253a5.533 5.533 0 0 1-4.505 2.318 5.532 5.532 0 0 1-4.505-2.318Zm1.964 3.094a6.777 6.777 0 0 0 5.081 0v1.078l-2.109 1.507h-.863l-2.109-1.507v-1.078Zm-2.35.961 2.871 2.051-.722.241a.634.634 0 0 0-.344.275l-1.39 2.316-1.76-2.642 1.345-2.241Zm-11.965 10.19a4.101 4.101 0 0 1 2.247-3.16v4.756h-2.454l.207-1.596Zm31.465 1.596v-4.757a4.11 4.11 0 0 1 2.246 3.16l.207 1.597h-2.453Z" fill="#000"/><path d="M71.052 333.255a.638.638 0 0 0-.803-.402l-1.907.635a.634.634 0 0 0-.401.804.634.634 0 0 0 .803.401l1.906-.635a.624.624 0 0 0 .367-.318.638.638 0 0 0 .035-.485Z" fill="#000"/><path d="M423 174c0-13.807 11.193-25 25-25h41c13.807 0 25 11.193 25 25v41c0 13.807-11.193 25-25 25h-41c-13.807 0-25-11.193-25-25v-41Zm-320 0c0-13.807 11.193-25 25-25h41c13.807 0 25 11.193 25 25v41c0 13.807-11.193 25-25 25h-41c-13.807 0-25-11.193-25-25v-41Z" fill="#EAEFF1"/><path d="m474.239 184.207-1.763-.91a.91.91 0 1 0-.834 1.617l1.762.91a.915.915 0 0 0 .698.064.905.905 0 0 0 .418-1.461.912.912 0 0 0-.281-.22Zm-2.01 4.104a1.25 1.25 0 1 0 0-2.502 1.25 1.25 0 0 0 0 2.502Zm-7.04-3.392a.91.91 0 1 0-.814-1.627l-1.819.909a.91.91 0 1 0 .814 1.627l1.819-.909Zm-.692 3.392a1.25 1.25 0 1 0 0-2.502 1.25 1.25 0 0 0 0 2.502Zm5.163 5.256a2.373 2.373 0 0 1-1.511.544h-.638a.91.91 0 0 0 0 1.819h.638c.976 0 1.92-.341 2.672-.962a.911.911 0 0 0-.5-1.596.913.913 0 0 0-.661.195Zm-2.149-1.275h1.82a.912.912 0 0 0 .909-.91.912.912 0 0 0-.909-.909h-.91v-.91a.907.907 0 0 0-.91-.91.91.91 0 0 0-.909.91v1.819a.909.909 0 0 0 .909.91Z" fill="#000"/><path d="m445.22 216.366-.441 3.088a.9.9 0 0 0 .522.956.915.915 0 0 0 .378.082h45.484a.915.915 0 0 0 .687-.314.9.9 0 0 0 .213-.724l-.441-3.088a7.683 7.683 0 0 0-3.78-5.598l-10.364-6.001a.91.91 0 0 0-.324-.467l-3.332-2.499v-2.571c0-.023-.002-.045-.003-.067a7.708 7.708 0 0 0 1.017-1.24 21.33 21.33 0 0 0 2.885-6.54h.997a3.273 3.273 0 0 0 2.943-1.82c.228-.457.347-.961.348-1.472v-1.604a3.294 3.294 0 0 0-1.762-2.913v-5.14c0-.541-.071-1.08-.21-1.603l-.049-.185a6.218 6.218 0 0 0-3.701-4.188 7.407 7.407 0 0 0-6.451-3.817h-.721a13.443 13.443 0 0 0-9.56 3.989 13.442 13.442 0 0 0-3.889 9.602l.02 1.883.002.041a3.275 3.275 0 0 0-.969 2.331v.273a9.095 9.095 0 0 0-1.054 11.617c-1.726 1.389-2.968 3.442-3.464 5.769a10.21 10.21 0 0 0 .386 5.703l-1.587.919a7.677 7.677 0 0 0-3.78 5.598Zm21.018-12.651a9.486 9.486 0 0 0-.977-2.963l-.02-.04a7.698 7.698 0 0 0 3.153.675h.01a7.694 7.694 0 0 0 3.599-.89v1.541l-3.582 4.297-2.183-2.62Zm1.257 4.351a2.72 2.72 0 0 1-2.466 2.408c.51-.916.88-1.904 1.097-2.93.067-.311.118-.622.157-.933l1.212 1.455Zm9.597-1.42 9.839 5.696a5.882 5.882 0 0 1 2.89 4.281l.293 2.05h-3.499v-2.729a.91.91 0 1 0-1.82 0v2.729h-15.464v-7.275a4.54 4.54 0 0 0 6.004-.498 4.538 4.538 0 0 0 1.081-1.887l.676-2.367Zm-1.53-1.266-.895 3.133a2.722 2.722 0 0 1-4.513 1.202 2.712 2.712 0 0 1-.806-1.648l3.767-4.522 2.447 1.835Zm.989-19.233a19.517 19.517 0 0 1-3.235 10.777 5.866 5.866 0 0 1-4.912 2.644h-.01a5.88 5.88 0 0 1-4.878-2.597 19.506 19.506 0 0 1-3.339-10.929v-2.135l1.89-.468a10.501 10.501 0 0 0 6.353-4.608 10.497 10.497 0 0 0 6.327 4.619l1.805.455-.001 2.242Zm3.639.34v1.605a1.47 1.47 0 0 1-1.472 1.471h-.621a21.48 21.48 0 0 0 .273-3.416v-1.132h.348a1.47 1.47 0 0 1 1.472 1.472Zm-21.02-10.426a11.693 11.693 0 0 1 9.945-5.601h.721a5.57 5.57 0 0 1 4.987 3.126.91.91 0 0 0 .531.466 4.406 4.406 0 0 1 2.877 3.06l.049.186c.098.37.148.752.147 1.136v4.761h-.056a.909.909 0 0 0-.688-.882l-2.491-.627a8.676 8.676 0 0 1-5.918-5.176l-.009-.021a.907.907 0 0 0-1.354-.414.902.902 0 0 0-.334.415 8.67 8.67 0 0 1-5.949 5.183l-2.58.639a.91.91 0 0 0-.69.883h-.348c-.172 0-.344.014-.514.041l-.011-1.023a11.616 11.616 0 0 1 1.685-6.152Zm-2.632 10.426a1.472 1.472 0 0 1 1.472-1.472h.348v1.026c0 1.18.097 2.358.29 3.522h-.638a1.471 1.471 0 0 1-.775-.218 1.474 1.474 0 0 1-.697-1.254v-1.604Zm-4.558 18.039c.47-2.2 1.732-4.092 3.465-5.191a.896.896 0 0 0 .413-.618.902.902 0 0 0-.186-.72l-.037-.044a7.266 7.266 0 0 1-.665-8.602 3.282 3.282 0 0 0 1.308 1.543c.52.321 1.12.491 1.732.489h1.023a21.36 21.36 0 0 0 2.973 6.604c.069.101.139.2.212.297.006.017.011.035.018.052l.94 2.262c.142.342.301.678.476 1.004a7.733 7.733 0 0 1 .828 2.665 8.703 8.703 0 0 1-.133 2.897c-.77 3.609-3.611 6.149-6.631 6.149-.377 0-.752-.04-1.12-.119-3.41-.727-5.48-4.616-4.616-8.668Zm-.59 6.96c1.101 1.762 2.779 3.051 4.826 3.488.491.105.991.158 1.493.158 2.295 0 4.497-1.103 6.106-2.933a4.524 4.524 0 0 0 3.696-.802v7.276h-15.464v-2.729a.907.907 0 1 0-1.819 0v2.729h-3.5l.293-2.05a5.876 5.876 0 0 1 2.891-4.281l1.478-.856ZM172.518 216.1a9.385 9.385 0 0 0-6.52-8.025l-11.05-3.49-1.341-1.341v-3.052a8.643 8.643 0 0 0 1.885-2.88 22.438 22.438 0 0 0 1.37-5.07h.576a3.147 3.147 0 0 0 2.828-1.748c.219-.44.334-.924.334-1.415v-1.542a3.15 3.15 0 0 0-.88-2.186.872.872 0 0 0 .006-.102v-5.593a10.518 10.518 0 0 0-3.1-7.485l-.431-.43a10.511 10.511 0 0 0-7.484-3.1h-2.875a10.586 10.586 0 0 0-10.585 10.585v6.023c0 .034.002.068.006.102a3.155 3.155 0 0 0-.881 2.186v1.542c.001.491.115.975.334 1.415a3.148 3.148 0 0 0 2.829 1.748h.576a22.435 22.435 0 0 0 1.369 5.07 8.643 8.643 0 0 0 1.885 2.88v3.052l-1.341 1.341-11.049 3.49a9.388 9.388 0 0 0-6.521 8.025l-.315 3.152a.882.882 0 0 0 .87.962h48.951a.879.879 0 0 0 .83-.601.883.883 0 0 0 .04-.361l-.316-3.152Zm-13.666-28.563v1.542a1.42 1.42 0 0 1-.67 1.205 1.41 1.41 0 0 1-.744.21h-.388c.035-.514.053-1.03.054-1.548v-2.823h.334a1.418 1.418 0 0 1 1.414 1.414Zm-21.313 2.957a1.404 1.404 0 0 1-1.265-.782 1.42 1.42 0 0 1-.149-.633v-1.542a1.414 1.414 0 0 1 1.414-1.414h.334v2.823c0 .518.018 1.034.053 1.548h-.387Zm.455-8.311a.876.876 0 0 0-.121.444v1.748h-.334a3.15 3.15 0 0 0-.54.047v-5.196a8.84 8.84 0 0 1 8.837-8.837h2.875a8.782 8.782 0 0 1 6.248 2.588l.431.43a8.796 8.796 0 0 1 2.588 6.249v4.766a3.16 3.16 0 0 0-.54-.047h-.334v-1.748a.876.876 0 0 0-.121-.444l-2.623-4.451a.872.872 0 0 0-1.107-.355l-.027.012a14.239 14.239 0 0 1-11.475 0l-.028-.012a.87.87 0 0 0-1.107.355l-2.622 4.451Zm3.113 14.48a20.69 20.69 0 0 1-1.486-7.717v-6.081l2.116-3.59a16 16 0 0 0 11.503 0l2.115 3.59v6.081a20.67 20.67 0 0 1-1.486 7.717 6.923 6.923 0 0 1-1.05 1.792l-.055-2.859a3.318 3.318 0 0 0-2.087-3.02 8.58 8.58 0 0 0-3.189-.617v-2.339a.872.872 0 0 0-.874-.874.873.873 0 0 0-.874.874v2.522a8.714 8.714 0 0 0-1.44.434 3.321 3.321 0 0 0-2.087 3.02l-.055 2.859a6.926 6.926 0 0 1-1.051-1.792Zm6.381 6.071c1.52 0 3.018-.361 4.371-1.053v1.925a.88.88 0 0 0 .256.618l1.385 1.384-.167.582a6.08 6.08 0 0 1-11.69 0l-.166-.582 1.385-1.384a.877.877 0 0 0 .256-.618v-1.925a9.598 9.598 0 0 0 4.37 1.053Zm-3.61-2.768.083-4.336a1.568 1.568 0 0 1 .988-1.431 6.807 6.807 0 0 1 5.078 0 1.57 1.57 0 0 1 .989 1.431l.083 4.336a6.918 6.918 0 0 1-7.221 0Zm-16.495 17.92v.58h-3.404l.219-2.192a7.645 7.645 0 0 1 5.307-6.533l10.397-3.283.06.212c.147.513.346 1.01.595 1.482l-6.926 1.732a8.25 8.25 0 0 0-6.248 8.002Zm38.462.58H148.46a4.015 4.015 0 0 1 1.695-2.476l.441-.293a.891.891 0 0 0 .372-.556.87.87 0 0 0-.13-.657.891.891 0 0 0-.556-.372.87.87 0 0 0-.656.13l-.441.294a5.757 5.757 0 0 0-2.502 3.93h-17.551v-.58a6.497 6.497 0 0 1 4.923-6.306l7.526-1.882a.4.4 0 0 0 .037-.011 7.8 7.8 0 0 0 5.87 2.66 7.806 7.806 0 0 0 5.87-2.66c.013.004.025.009.037.011l7.526 1.882a6.498 6.498 0 0 1 4.924 6.306v.58Zm1.748 0v-.58a8.247 8.247 0 0 0-6.248-8.002l-6.926-1.732a7.69 7.69 0 0 0 .595-1.482l.061-.212 10.396 3.283a7.644 7.644 0 0 1 5.308 6.533l.219 2.192h-3.405Z" fill="#000"/><path d="M149.236 207.976c.136 0 .27-.032.391-.092l1.748-.874a.869.869 0 0 0 .443-.506.872.872 0 0 0-.555-1.11.87.87 0 0 0-.67.052l-1.748.874a.871.871 0 0 0-.46.983.87.87 0 0 0 .851.673Zm-5.635-.966 1.748.874a.875.875 0 0 0 .782-1.564l-1.748-.874a.886.886 0 0 0-.671-.052.882.882 0 0 0-.508.44.865.865 0 0 0 .124.967.884.884 0 0 0 .273.209Zm6.511-20.887h2.623a.873.873 0 1 0 0-1.748h-2.623a.875.875 0 0 0 0 1.748Zm1.09 3.058a1.093 1.093 0 1 0 0-2.186 1.093 1.093 0 0 0 0 2.186Zm-6.336-3.058a.875.875 0 0 0 0-1.748h-2.623a.873.873 0 1 0 0 1.748h2.623Zm-1.092 3.058a1.092 1.092 0 1 0 .001-2.185 1.092 1.092 0 0 0-.001 2.185Zm5.461 6.556a.875.875 0 0 0-.874-.874h-1.749a.875.875 0 0 0 0 1.749h1.749a.876.876 0 0 0 .874-.875Zm92.142 151.514a5.687 5.687 0 0 0-2.36-2.69l-5.558-3.244v-2.229c.118-.103.234-.212.348-.326a.696.696 0 0 1 .874-.087 2.479 2.479 0 0 0 2.863-.079l.605-.453a2.024 2.024 0 0 0 .469-2.74.694.694 0 0 1 .087-.874 3.033 3.033 0 0 0 .568-3.502l-.357-.715a.695.695 0 0 1-.06-.446l.155-.774a3.47 3.47 0 0 0-1.845-3.772.688.688 0 0 1-.383-.619 3.592 3.592 0 0 0-1.996-3.229l-.437-.219a.693.693 0 0 1-.369-.484 6.486 6.486 0 0 0-3.261-4.431l-.065-.035a10.755 10.755 0 0 0-10.346 0l-.065.035a6.483 6.483 0 0 0-3.261 4.431.682.682 0 0 1-.369.484l-.437.219a3.592 3.592 0 0 0-1.996 3.229.683.683 0 0 1-.383.619 3.464 3.464 0 0 0-1.845 3.772l.155.774a.701.701 0 0 1-.059.446l-.358.715a3.033 3.033 0 0 0 .569 3.502.699.699 0 0 1 .086.874 2.027 2.027 0 0 0 .469 2.74l.605.453a2.484 2.484 0 0 0 2.863.079.697.697 0 0 1 .874.087c.296.295.638.54 1.013.726v1.861l-5.502 3.212a5.687 5.687 0 0 0-2.36 2.69l-1.697 4.037a.663.663 0 0 0 .612.922h33.238a.666.666 0 0 0 .613-.922l-1.697-4.037Zm-23.28-9.429a2.026 2.026 0 0 0-2.551-.253 1.156 1.156 0 0 1-1.329-.037l-.604-.453a.692.692 0 0 1-.161-.938 2.031 2.031 0 0 0-.252-2.552 1.697 1.697 0 0 1-.32-1.967l.358-.715c.2-.403.262-.86.174-1.301l-.155-.775a2.131 2.131 0 0 1 1.136-2.322 2.015 2.015 0 0 0 1.118-1.808 2.259 2.259 0 0 1 1.26-2.04l.437-.219a2.008 2.008 0 0 0 1.079-1.412 5.167 5.167 0 0 1 2.594-3.525l.065-.035a9.436 9.436 0 0 1 9.072 0l.065.035a5.15 5.15 0 0 1 2.594 3.525 2.015 2.015 0 0 0 1.079 1.412l.437.219a2.263 2.263 0 0 1 1.26 2.04 2.013 2.013 0 0 0 1.118 1.808 2.134 2.134 0 0 1 1.136 2.322l-.155.775c-.087.441-.026.898.175 1.3l.357.716a1.699 1.699 0 0 1-.319 1.967 2.026 2.026 0 0 0-.253 2.552.692.692 0 0 1-.161.938l-.604.453a1.147 1.147 0 0 1-1.328.037 2.032 2.032 0 0 0-2.319.055 5.158 5.158 0 0 0-2.356-1.238c.185-.261.348-.536.49-.822a18.272 18.272 0 0 0 1.41-3.961h.723a2.393 2.393 0 0 0 2.151-1.33c.167-.334.253-.702.254-1.075v-1.173a2.408 2.408 0 0 0-2.405-2.405h-.573a.624.624 0 0 0-.154.019 3.926 3.926 0 0 0-2.51-1.953l-.822-.208a3.336 3.336 0 0 1-2.274-1.989l-.574-1.434a.67.67 0 0 0-.617-.418.669.669 0 0 0-.618.418l-.574 1.435a3.326 3.326 0 0 1-2.274 1.988l-.823.208a3.949 3.949 0 0 0-2.5 1.934h-.82a2.41 2.41 0 0 0-2.405 2.405v1.173c.001.373.088.741.254 1.075a2.39 2.39 0 0 0 2.151 1.33h.807c.316 1.37.789 2.7 1.41 3.961.14.283.301.554.482.812a5.164 5.164 0 0 0-2.566 1.402l-.001.001-.002.001-.052.059-.01.015a.618.618 0 0 0-.036.053l-.01.016-.016.03a2.52 2.52 0 0 1-.143-.131Zm7.745-.236a4.657 4.657 0 0 1-4.199-2.61 16.943 16.943 0 0 1-1.742-7.463c0-.287.047-.572.14-.844a.662.662 0 0 0 .114-.28 2.604 2.604 0 0 1 1.724-1.414l.823-.208a4.663 4.663 0 0 0 3.14-2.679 4.675 4.675 0 0 0 3.141 2.68l.822.207a2.616 2.616 0 0 1 1.978 2.538 16.943 16.943 0 0 1-1.742 7.463 4.65 4.65 0 0 1-4.199 2.61Zm2.618.736v.912a12.981 12.981 0 0 1-5.318-.003v-.951a6.056 6.056 0 0 0 5.318.042Zm-6.648-.729v1.285a12.697 12.697 0 0 1-1.78-.73 3.846 3.846 0 0 1 1.78-.555Zm7.977-.002a3.836 3.836 0 0 1 1.8.552c-.58.29-1.182.537-1.8.736v-1.288Zm3.283-10.642h.295a1.08 1.08 0 0 1 1.075 1.076v1.173a1.07 1.07 0 0 1-1.075 1.075h-.468c.141-.913.213-1.836.214-2.76 0-.189-.014-.377-.041-.564Zm-14.286 3.324h-.552a1.07 1.07 0 0 1-1.075-1.075v-1.173a1.08 1.08 0 0 1 1.075-1.076h.379a3.942 3.942 0 0 0-.041.564c.001.924.073 1.847.214 2.76Zm-4.909 20.608v-1.994a.665.665 0 1 0-1.33 0v1.994h-2.323l1.31-3.115a4.343 4.343 0 0 1 1.804-2.057l4.832-2.82v.015a.658.658 0 0 0 .322.57c.151.09.304.178.457.262l-2.301 3.452a.664.664 0 0 0 .083.839l2.853 2.854h-5.707Zm7.39-6.056-.586 5.273-2.625-2.626 2.098-3.147c.37.159.745.302 1.125.429a.808.808 0 0 0-.012.071Zm4.215 6.056h-3.55l.64-5.761c.955.221 1.93.343 2.91.365v5.396Zm5.983 0h-4.653v-5.427a14.224 14.224 0 0 0 4.653-1.134v6.561Zm.665-8.372-.161.087a12.928 12.928 0 0 1-12.47-.075v-3.151a14.279 14.279 0 0 0 12.631-.012v3.151Zm7.008 8.372v-1.994a.665.665 0 1 0-1.33 0v1.994h-5.014v-.694l2.16-2.16a.665.665 0 0 0 .084-.839l-2.323-3.484.398-.217a.659.659 0 0 0 .346-.583v-.048l4.887 2.853a4.34 4.34 0 0 1 1.805 2.057l1.31 3.115h-2.323Zm-6.344-2.574v-2.086l.835 1.251-.835.835Z" fill="#000"/><path d="m227.583 326.251 1.995.664a.662.662 0 0 0 .841-.42.667.667 0 0 0-.421-.841l-1.994-.665a.679.679 0 0 0-.508.036.674.674 0 0 0-.333.385.66.66 0 0 0 .42.841Zm1.044 2.442a.914.914 0 1 0 0-1.827.914.914 0 0 0 0 1.827Zm-4.192-3.287a.66.66 0 0 0-.336-.383.678.678 0 0 0-.507-.033l-1.953.665a.692.692 0 0 0-.227.129.678.678 0 0 0-.227.458.663.663 0 0 0 .882.672l1.953-.665a.663.663 0 0 0 .415-.843Zm-1.458 3.287a.914.914 0 1 0 0-1.829.914.914 0 0 0 0 1.829Zm4.029 3.769a1.592 1.592 0 0 1-1.135.47h-1.054a.665.665 0 0 0 0 1.33h1.054a2.907 2.907 0 0 0 2.075-.86.661.661 0 0 0 0-.94.666.666 0 0 0-.94 0Zm-1.83-.859h1.33a.665.665 0 0 0 0-1.329h-.665v-1.33a.668.668 0 0 0-.665-.665.665.665 0 0 0-.664.665v1.994a.664.664 0 0 0 .664.665Zm-1.477 10.005a.668.668 0 0 0-.805.928.668.668 0 0 0 .385.334 7.013 7.013 0 0 0 4.409 0 .673.673 0 0 0 .453-.584.66.66 0 0 0-.161-.483.662.662 0 0 0-.713-.195 5.67 5.67 0 0 1-3.568 0Zm166.077-14.013h1.866a.621.621 0 1 0 0-1.243h-1.866a.621.621 0 1 0 0 1.243Zm.779 2.177a.777.777 0 1 0 0-1.555.777.777 0 0 0 0 1.555Zm-3.889-2.799a.619.619 0 0 0-.622-.621h-1.865a.62.62 0 0 0-.622.621.62.62 0 0 0 .622.622h1.865a.621.621 0 0 0 .622-.622Zm-1.4 2.799a.777.777 0 1 0 0-1.555.777.777 0 0 0 0 1.555Zm3.266 4.832h-1.244a.621.621 0 1 0 0 1.243h1.244a.62.62 0 1 0 0-1.243Z" fill="#000"/><path d="M405.647 348.883a5.255 5.255 0 0 0-3.006-4.113l-7.854-3.665a7.678 7.678 0 0 0-2.489-3.212l-.093-.07a6.103 6.103 0 0 0 1.4-2.101 15.95 15.95 0 0 0 .998-3.774h.386a2.232 2.232 0 0 0 2.012-1.243c.156-.313.237-.657.238-1.006v-1.098c0-.554-.205-1.088-.575-1.5l1.215-3.645a5.276 5.276 0 0 0-.185-3.819l-.629-1.417a5.465 5.465 0 0 0-4.372-3.198l-.112-.012a5.473 5.473 0 0 0-4.671 1.796 5.456 5.456 0 0 0-4.67-1.796l-.112.012a5.465 5.465 0 0 0-4.372 3.198l-.63 1.417a5.276 5.276 0 0 0-.184 3.819l1.215 3.645a2.235 2.235 0 0 0-.575 1.5v1.097a2.255 2.255 0 0 0 1.066 1.916c.355.22.766.336 1.184.334h.386a15.95 15.95 0 0 0 .998 3.774c.314.791.79 1.507 1.396 2.104l-.09.067a7.675 7.675 0 0 0-2.488 3.212l-7.854 3.666a5.256 5.256 0 0 0-3.007 4.112l-.293 2.266a.624.624 0 0 0 .361.645c.08.037.167.056.256.056h34.827a.615.615 0 0 0 .467-.212.607.607 0 0 0 .127-.229.606.606 0 0 0 .022-.261l-.293-2.265Zm-11.982-7.237.168.42h-1.569a.62.62 0 0 0-.622.622v1.403l-3.316.995.086-.154 2.182-2.183a3.561 3.561 0 0 0 1.048-2.529v-1.263a6.434 6.434 0 0 1 2.023 2.689Zm-5.755 2.028-1.804-1.805a2.302 2.302 0 0 1-.683-1.649v-1.164a6.158 6.158 0 0 0 4.975-.005v1.169a2.316 2.316 0 0 1-.683 1.649l-1.805 1.805Zm8.085-13.975a1.006 1.006 0 0 1-1.006 1.006h-.266c.018-.31.028-.622.028-.935v-2.175h.238a1.006 1.006 0 0 1 1.006 1.006v1.098Zm-15.163 1.006a1.002 1.002 0 0 1-1.007-1.006v-1.098a1.011 1.011 0 0 1 1.007-1.006h.237v2.175c0 .313.01.624.028.935h-.265Zm.419-5.871a.636.636 0 0 0-.182.44v1.078h-.237c-.199 0-.396.026-.588.078l-1.122-3.368a4.03 4.03 0 0 1 .141-2.92l.629-1.416a4.215 4.215 0 0 1 3.373-2.468l.112-.012a4.21 4.21 0 0 1 3.822 1.653l.214.285a.614.614 0 0 0 .497.249.609.609 0 0 0 .278-.066.61.61 0 0 0 .22-.183l.214-.285a4.215 4.215 0 0 1 3.822-1.653l.112.012a4.207 4.207 0 0 1 3.372 2.468l.63 1.416c.41.922.461 1.964.141 2.92l-1.123 3.368a2.238 2.238 0 0 0-.587-.078h-.238v-1.078a.627.627 0 0 0-.182-.44l-1.866-1.865a.608.608 0 0 0-.439-.182h-.476a3.777 3.777 0 0 1-3.33-1.994.616.616 0 0 0-.548-.328.622.622 0 0 0-.548.328 3.77 3.77 0 0 1-3.329 1.994h-.476a.623.623 0 0 0-.44.182l-1.866 1.865Zm2.119 10.427a14.714 14.714 0 0 1-1.057-5.491v-4.238l1.501-1.502h.219a5.013 5.013 0 0 0 3.877-1.83 5.017 5.017 0 0 0 3.878 1.83h.218l1.501 1.502v4.238a14.714 14.714 0 0 1-1.057 5.491 4.888 4.888 0 0 1-9.08 0Zm-1.214 6.385a6.434 6.434 0 0 1 2.023-2.689v1.263a3.551 3.551 0 0 0 1.047 2.529l1.805 1.804-.303.302-2.549-.764v-1.403a.624.624 0 0 0-.622-.622h-1.569l.168-.42Zm3.449 4.334a.606.606 0 0 0-.181.439h-.001v4.187H374.85v-1.866a.621.621 0 1 0-1.244 0v1.866h-2.402l.202-1.564a4.029 4.029 0 0 1 2.3-3.144l6.745-3.148a.623.623 0 0 0 .618.559h1.866v1.244a.619.619 0 0 0 .443.596l2.351.705-.124.126Zm16.609 4.626v-1.866a.621.621 0 1 0-1.244 0v1.866h-14.304v-3.724l5.776-1.733a.626.626 0 0 0 .444-.596v-1.244h1.865a.623.623 0 0 0 .619-.559l6.745 3.148a4.024 4.024 0 0 1 2.299 3.144l.202 1.564h-2.402Z" fill="#000"/><path d="M387.288 332.571h1.244a.621.621 0 1 0 0-1.243h-.381l.349-1.047a.622.622 0 0 0-1.18-.394l-.622 1.866a.62.62 0 0 0 .59.818Zm.623 16.791a.622.622 0 1 0 0-1.244.622.622 0 0 0 0 1.244Zm9.948-1.077h-4.975a.626.626 0 0 0-.622.622.621.621 0 0 0 .622.622h4.975a.626.626 0 0 0 .622-.622.626.626 0 0 0-.622-.622Zm142.232-7.259-9.686 4.142a3.66 3.66 0 0 0-2.229 2.873l-.435 3.049a.652.652 0 0 0 .151.515.644.644 0 0 0 .489.223h32.325a.644.644 0 0 0 .639-.738l-.435-3.049a3.658 3.658 0 0 0-2.229-2.873l-9.78-4.182a11.938 11.938 0 0 1-.519-3.486l-.002-.037a5.918 5.918 0 0 0 1.015-1.151h.277c.662 0 1.315-.142 1.918-.415a4.643 4.643 0 0 0 2.521-2.889c.19-.634.242-1.301.153-1.956l-.2-1.467c.089-.252.135-.517.136-.784v-1.141c0-.584-.219-1.146-.614-1.577l-.644-4.728a.737.737 0 0 0-.016-.079l-.163-.61a4.419 4.419 0 0 0-2.63-2.976 5.266 5.266 0 0 0-4.584-2.712h-.512c-.084 0-.167.001-.25.003-3.934.102-7.37 2.741-8.551 6.564a4.194 4.194 0 0 0-.17.851l-.571 6.099-.252 2.763a4.635 4.635 0 0 0 4.409 5.048c.277.413.604.789.976 1.119a.63.63 0 0 0-.005.075 11.908 11.908 0 0 1-.532 3.526Zm-4.409 4.794 1.305 1.305-.491.246a.642.642 0 0 0-.344.705l.491 2.459h-3.737v-1.94a.647.647 0 0 0-1.293 0v1.94h-2.487l.33-2.312a2.362 2.362 0 0 1 1.457-1.866l6.131-2.622-1.326 1.137a.637.637 0 0 0-.181.726.642.642 0 0 0 .145.222Zm4.336 4.715h-2.056l-.446-2.229.851-.426a.634.634 0 0 0 .349-.474.631.631 0 0 0-.023-.302.637.637 0 0 0-.158-.259l-1.445-1.446 2.928-2.51v7.646Zm18.155-4.178a2.362 2.362 0 0 1 1.457 1.866l.33 2.312h-2.487v-1.94a.647.647 0 0 0-1.293 0v1.94h-3.737l.492-2.459a.647.647 0 0 0-.345-.705l-.491-.246 1.306-1.305a.653.653 0 0 0 .189-.482.647.647 0 0 0-.226-.466l-1.326-1.137 6.131 2.622Zm-9.104-1.911v-1.557l2.928 2.51-1.446 1.446a.648.648 0 0 0 .168 1.035l.851.426-.445 2.229h-2.056v-6.089Zm-1.293 6.089h-6.465v-5.267c2.127.491 4.338.491 6.465-.001v5.268Zm0-6.596a13.138 13.138 0 0 1-6.465-.002v-2.453l-.001-.023c.324-1.032.52-2.101.583-3.181a5.928 5.928 0 0 0 5.22.024c.069 1.152.29 2.29.655 3.384.002.007.005.012.008.018v2.233Zm5.16-13.059.047.346a3.345 3.345 0 0 1-.661 2.487 3.336 3.336 0 0 1-2.233 1.279 17.638 17.638 0 0 0 1.208-3.852h.564c.374 0 .742-.089 1.075-.26Zm-.029-3.22v1.141c0 .162-.038.322-.111.467a1.027 1.027 0 0 1-.385.423 1.03 1.03 0 0 1-.55.156h-.363c.077-.665.116-1.334.116-2.003v-1.23h.247a1.05 1.05 0 0 1 1.046 1.046Zm-15.516 6.271a3.306 3.306 0 0 1-.86-2.556l.251-2.761.571-6.097c.019-.2.059-.398.118-.59 1.017-3.293 3.97-5.565 7.349-5.653.072-.002.144-.003.217-.003h.512a3.958 3.958 0 0 1 3.544 2.221.643.643 0 0 0 .377.331 3.133 3.133 0 0 1 2.045 2.175l.152.572.514 3.773a2.446 2.446 0 0 0-.32-.022h-.507l-3.656-6.772a.648.648 0 0 0-1.015-.161.649.649 0 0 0-.188.342 5.841 5.841 0 0 1-3.278 4.147l-2.847 1.308a4.798 4.798 0 0 0-2.77 4.942c.272 2.254.746 4.294 1.33 5.762a3.315 3.315 0 0 1-1.539-.958Zm3.045 1.161c-.68-1.342-1.245-3.572-1.552-6.12a3.505 3.505 0 0 1 2.026-3.612l2.847-1.307a7.14 7.14 0 0 0 3.522-3.558l3.042 5.636v1.713a16.316 16.316 0 0 1-1.679 7.191l-.007.015a4.586 4.586 0 0 1-6.5 1.882 4.584 4.584 0 0 1-1.699-1.84Z" fill="#000"/><path d="m546.238 326.581 1.94.646a.634.634 0 0 0 .497-.031.65.65 0 0 0 .359-.628.64.64 0 0 0-.447-.568l-1.94-.646a.634.634 0 0 0-.497.031.65.65 0 0 0-.359.628.651.651 0 0 0 .447.568Zm1.014 2.377a.889.889 0 1 0 0-1.778.889.889 0 0 0 0 1.778Zm-4.482-2.378a.649.649 0 0 0 .279-1.04.654.654 0 0 0-.696-.184l-1.899.646a.656.656 0 0 0-.219.126.647.647 0 0 0 .636 1.098l1.899-.646Zm-1.014 2.378a.889.889 0 1 0 0-1.778.889.889 0 0 0 0 1.778Zm1.036 4.69a2.481 2.481 0 0 0 3.5 0 .651.651 0 0 0-.002-.912.645.645 0 0 0-.912-.003 1.18 1.18 0 0 1-1.672 0 .642.642 0 0 0-.456-.186.65.65 0 0 0-.458 1.101Zm1.104-1.861h1.293a.65.65 0 0 0 .647-.646.645.645 0 0 0-.647-.647h-.646v-.646a.645.645 0 1 0-1.293 0v1.293a.647.647 0 0 0 .646.646Z" fill="#000"/><path d="M7 439c0-8.284 6.716-15 15-15h18c8.284 0 15 6.716 15 15v19c0 8.284-6.716 15-15 15H22c-8.284 0-15-6.716-15-15v-19Zm159 0c0-8.284 6.716-15 15-15h18c8.284 0 15 6.716 15 15v19c0 8.284-6.716 15-15 15h-18c-8.284 0-15-6.716-15-15v-19Zm162 0c0-8.284 6.716-15 15-15h19c8.284 0 15 6.716 15 15v19c0 8.284-6.716 15-15 15h-19c-8.284 0-15-6.716-15-15v-19Zm157 0c0-8.284 6.716-15 15-15h18c8.284 0 15 6.716 15 15v19c0 8.284-6.716 15-15 15h-18c-8.284 0-15-6.716-15-15v-19Zm-407 0c0-8.284 6.716-15 15-15h19c8.284 0 15 6.716 15 15v19c0 8.284-6.716 15-15 15H93c-8.284 0-15-6.716-15-15v-19Zm159 0c0-8.284 6.716-15 15-15h19c8.284 0 15 6.716 15 15v19c0 8.284-6.716 15-15 15h-19c-8.284 0-15-6.716-15-15v-19Zm163 0c0-8.284 6.716-15 15-15h18c8.284 0 15 6.716 15 15v19c0 8.284-6.716 15-15 15h-18c-8.284 0-15-6.716-15-15v-19Zm157 0c0-8.284 6.716-15 15-15h18c8.284 0 15 6.716 15 15v19c0 8.284-6.716 15-15 15h-18c-8.284 0-15-6.716-15-15v-19Z" fill="#EAEFF1"/><path d="M30.805 450.857a4.762 4.762 0 0 1-4.754-4.754v-3.565a.597.597 0 0 1 .594-.595h8.319a.596.596 0 0 1 .594.595v3.565a4.76 4.76 0 0 1-4.753 4.754Zm-3.566-7.725v2.971a3.567 3.567 0 0 0 6.087 2.521 3.567 3.567 0 0 0 1.044-2.521v-2.971h-7.13Z" fill="#000"/><path d="M34.965 450.856a.592.592 0 0 1-.594-.594v-3.565h1.189v2.669c.297-.297.594-.891.594-2.075v-5.942a5.35 5.35 0 0 0-5.348-5.348 5.347 5.347 0 0 0-5.348 5.348v5.942c0 1.179.297 1.773.594 2.073v-2.667h1.189v3.565a.592.592 0 0 1-.595.594c-.023 0-2.377-.04-2.377-3.565v-5.942a6.536 6.536 0 1 1 13.073 0v5.942c0 3.525-2.353 3.565-2.377 3.565Z" fill="#000"/><path d="m27.24 442.544-1.19-.007a4.275 4.275 0 0 1 1.363-2.797l.84.84a3.124 3.124 0 0 0-1.014 1.964Zm7.13-.001a3.124 3.124 0 0 0-1.014-1.961l.84-.84a4.275 4.275 0 0 1 1.362 2.795h-.594l-.594.006Zm4.755 20.792H22.487a.596.596 0 0 1-.594-.594v-7.12a2.983 2.983 0 0 1 2.154-2.857l3.676-.708a.524.524 0 0 1 .112-.011.596.596 0 0 0 .594-.594v-1.783h1.188v1.783a1.785 1.785 0 0 1-1.723 1.782l-3.574.687a1.78 1.78 0 0 0-1.239 1.701v6.526h15.45v-6.526a1.793 1.793 0 0 0-1.293-1.715l-3.52-.673a1.783 1.783 0 0 1-1.724-1.782v-1.783h1.189v1.783a.596.596 0 0 0 .594.594c.037 0 .075.003.112.011l3.624.695a2.994 2.994 0 0 1 2.206 2.87v7.12a.596.596 0 0 1-.594.594Z" fill="#000"/><path d="M26.052 458.581h-1.189v4.16h1.189v-4.16Zm10.695 0h-1.188v4.16h1.188v-4.16Zm-5.942-3.565a2.864 2.864 0 0 1-2.97-2.971h.593l.595-.004a1.698 1.698 0 0 0 1.085 1.676c.222.085.46.123.697.11a1.693 1.693 0 0 0 1.783-1.786l1.188.004a2.862 2.862 0 0 1-1.816 2.775c-.368.144-.76.211-1.155.196Z" fill="#000"/><path d="M31.4 454.422h-1.19v8.319h1.19v-8.319Zm70.767.419a.589.589 0 0 1-.416-.172l-2.357-2.357.834-.833 1.939 1.94 1.94-1.94.833.833-2.356 2.357a.591.591 0 0 1-.417.172Z" fill="#000"/><path d="M104.524 456.02a.603.603 0 0 1-.264-.059l-2.093-1.05-2.093 1.05a.592.592 0 0 1-.84-.413l-.59-2.945 1.155-.231.438 2.189 1.667-.839a.588.588 0 0 1 .527 0l1.666.834.439-2.189 1.154.231-.589 2.946a.588.588 0 0 1-.577.476Z" fill="#000"/><path d="M102.756 454.252h-1.178v2.945h1.178v-2.945Zm0 3.535h-1.178v1.178h1.178v-1.178Zm-.588-7.07a4.717 4.717 0 0 1-4.713-4.712v-4.124a.591.591 0 0 1 .59-.589c.189-.006 1.177-.118 1.177-1.767a.591.591 0 0 1 .517-.585.59.59 0 0 1 .644.441s.673 1.911 5.909 1.911a.589.589 0 0 1 .589.589v4.124a4.72 4.72 0 0 1-4.713 4.712Zm-3.535-8.339v3.627a3.535 3.535 0 0 0 7.069 0v-3.543c-3.069-.084-4.691-.825-5.544-1.524a2.355 2.355 0 0 1-1.525 1.44Z" fill="#000"/><path d="M110.416 463.088H93.921a.59.59 0 0 1-.589-.589v-7.059a2.963 2.963 0 0 1 2.136-2.832l3.644-.702a.588.588 0 0 1 .111-.011.59.59 0 0 0 .59-.589v-1.767h1.177v1.767a1.768 1.768 0 0 1-1.708 1.768l-3.543.68a1.766 1.766 0 0 0-1.228 1.686v6.47h15.316v-6.47a1.779 1.779 0 0 0-1.282-1.699l-3.49-.667a1.768 1.768 0 0 1-1.708-1.768v-1.767h1.178v1.767a.591.591 0 0 0 .589.589c.037 0 .074.004.111.011l3.593.69a2.973 2.973 0 0 1 2.187 2.844v7.059a.59.59 0 0 1-.589.589Z" fill="#000"/><path d="M97.456 458.377h-1.179v4.124h1.178v-4.124Zm10.603 0h-1.178v4.124h1.178v-4.124Zm-1.768-15.317v-1.178c1.128 0 1.178-2.333 1.178-2.357 0-.07-.024-1.767-1.178-1.767a.586.586 0 0 1-.416-.173.586.586 0 0 1-.173-.416v-.589a.593.593 0 0 0-.172-.417.593.593 0 0 0-.417-.172h-7.414l1.94 1.94-.834.833-2.945-2.946a.586.586 0 0 1-.128-.642.593.593 0 0 1 .544-.364h8.837a1.77 1.77 0 0 1 1.767 1.768v.072c1.382.358 1.768 1.971 1.768 2.873 0 1.313-.496 3.535-2.357 3.535Z" fill="#000"/><path d="M98.044 443.06c-1.86 0-2.356-2.221-2.356-3.534 0-1.019.492-2.946 2.356-2.946v1.178c-1.154 0-1.178 1.697-1.178 1.768 0 .021.039 2.356 1.178 2.356v1.178Zm8.249 3.534v-1.179a1.179 1.179 0 0 0 0-2.356v-1.178a2.355 2.355 0 1 1 0 4.713Z" fill="#000"/><path d="M98.044 446.594a2.357 2.357 0 0 1 0-4.713v1.178a1.178 1.178 0 1 0 0 2.356v1.179Zm91.629 4.075a4.682 4.682 0 0 1-4.677-4.677V441.9a.59.59 0 0 1 .171-.414.59.59 0 0 1 .414-.171 1.666 1.666 0 0 0 1.754-1.754.581.581 0 0 1 .584-.584.585.585 0 0 1 .585.584s.212 1.754 5.262 1.754a.587.587 0 0 1 .584.585v4.092a4.68 4.68 0 0 1-4.677 4.677Zm-3.508-8.243v3.566a3.51 3.51 0 0 0 5.989 2.481 3.513 3.513 0 0 0 1.027-2.481v-3.516c-2.821-.078-4.282-.727-5.038-1.395a2.845 2.845 0 0 1-1.978 1.345Z" fill="#000"/><path d="M197.859 462.947h-16.37a.582.582 0 0 1-.413-.172.582.582 0 0 1-.172-.413v-7.005a2.939 2.939 0 0 1 2.12-2.812l3.617-.696a.577.577 0 0 1 .11-.01.584.584 0 0 0 .584-.585V449.5h1.17v1.754a1.757 1.757 0 0 1-1.696 1.754l-3.514.674a1.749 1.749 0 0 0-1.221 1.675v6.42h15.2v-6.42a1.761 1.761 0 0 0-1.273-1.687l-3.462-.662a1.755 1.755 0 0 1-1.696-1.754V449.5h1.169v1.754c0 .155.062.304.172.413.109.11.258.172.413.172.037 0 .074.003.11.01l3.566.684a2.95 2.95 0 0 1 2.17 2.824v7.005a.584.584 0 0 1-.584.585Z" fill="#000"/><path d="M196.69 453.008h-1.169a55.766 55.766 0 0 0-1.152-12.136.561.561 0 0 1-.017-.141 4.676 4.676 0 0 0-7.985-3.307 4.676 4.676 0 0 0-1.37 3.307.561.561 0 0 1-.017.141 55.766 55.766 0 0 0-1.152 12.136h-1.169a56.712 56.712 0 0 1 1.169-12.349c0-1.551.616-3.038 1.713-4.134a5.843 5.843 0 0 1 8.268 0 5.846 5.846 0 0 1 1.712 4.134 56.712 56.712 0 0 1 1.169 12.349Z" fill="#000"/><path d="M189.675 454.763a2.828 2.828 0 0 1-2.099-.824 2.808 2.808 0 0 1-.824-2.1h.585l.584-.003a1.668 1.668 0 0 0 1.754 1.757 1.66 1.66 0 0 0 1.647-1.071 1.67 1.67 0 0 0 .107-.686l1.169.003a2.824 2.824 0 0 1-.823 2.1 2.824 2.824 0 0 1-2.1.824Zm4.676-2.339h-1.169v9.939h1.169v-9.939Zm-8.186 0h-1.169v9.939h1.169v-9.939Zm83.263 10.668h-16.495a.591.591 0 0 1-.589-.59v-7.059a2.959 2.959 0 0 1 2.136-2.832l3.644-.702a.597.597 0 0 1 .111-.011.589.589 0 0 0 .589-.589v-1.767h1.178v1.767c0 .459-.178.9-.496 1.23a1.776 1.776 0 0 1-1.212.538l-3.541.679a1.766 1.766 0 0 0-1.231 1.687v6.47h15.317v-6.47a1.779 1.779 0 0 0-1.282-1.699l-3.49-.667a1.764 1.764 0 0 1-1.708-1.768v-1.767h1.178v1.767a.591.591 0 0 0 .589.589c.037 0 .074.004.111.011l3.593.69a2.969 2.969 0 0 1 2.187 2.844v7.059a.588.588 0 0 1-.589.59Zm-4.123-17.084v-1.178a1.18 1.18 0 0 0 0-2.357v-1.178a2.355 2.355 0 1 1 0 4.713Zm-8.249 0a2.358 2.358 0 1 1 0-4.713v1.178a1.18 1.18 0 0 0 0 2.357v1.178Z" fill="#000"/><path d="M261.179 450.72a4.718 4.718 0 0 1-4.713-4.712v-5.891h1.178v5.891a3.535 3.535 0 0 0 7.07 0v-8.248a1.69 1.69 0 0 0-.49-1.278 1.688 1.688 0 0 0-1.278-.489h-6.568l1.635 1.307-.737.92-2.945-2.356a.588.588 0 0 1 .368-1.049h8.247a2.835 2.835 0 0 1 2.116.829 2.845 2.845 0 0 1 .83 2.116v8.248a4.72 4.72 0 0 1-4.713 4.712Z" fill="#000"/><path d="M264.126 440.706h-7.069a.59.59 0 0 1-.417-.173l-2.356-2.356a.586.586 0 0 1 .089-.907l1.768-1.178.654.98-1.17.779 1.676 1.676h6.581l1.006-1.005.833.833-1.178 1.178a.59.59 0 0 1-.417.173Z" fill="#000"/><path d="m267.013 442.736-1.054-.526.53-1.054v-2.807c-.007-.084-.094-.589-1.178-.589v-1.178c1.863 0 2.356 1.156 2.356 1.767v2.946a.585.585 0 0 1-.059.263l-.595 1.178Zm-11.663.001-.589-1.179a.582.582 0 0 1-.062-.263v-2.945h1.178v2.806l.528 1.054-1.055.527Zm8.775 6.217h-1.768a2.176 2.176 0 0 1-1.06-.339 2.144 2.144 0 0 1-1.296.339h-1.767a.59.59 0 0 1-.417-1.006c.213-.206.358-.472.417-.762a1.767 1.767 0 0 1 1.767-1.767h2.356a1.765 1.765 0 0 1 1.768 1.767c.058.292.204.559.418.766a.594.594 0 0 1 .123.64.594.594 0 0 1-.541.362Zm-2.946-1.768a.59.59 0 0 1 .417.173c.201.225.476.373.775.416h.687a1.715 1.715 0 0 1-.112-.589.589.589 0 0 0-.589-.589h-2.356a.59.59 0 0 0-.589.589c-.003.202-.04.401-.112.589h.701c.206.021.414-.018.6-.11a.585.585 0 0 1 .578-.479Zm.001 7.658a2.83 2.83 0 0 1-2.116-.83 2.853 2.853 0 0 1-.83-2.116h1.179a1.676 1.676 0 0 0 1.767 1.768 1.677 1.677 0 0 0 1.658-1.077c.085-.22.122-.455.109-.691h1.179a2.853 2.853 0 0 1-.83 2.116 2.836 2.836 0 0 1-2.116.83Zm-4.713 3.535h-1.178v4.124h1.178v-4.124Zm10.606 0h-1.178v4.124h1.178v-4.124Z" fill="#000"/><path d="M261.768 454.256h-1.178v1.767h1.178v-1.767Zm98.835 9.079h-16.638a.598.598 0 0 1-.594-.594v-7.121a2.98 2.98 0 0 1 2.155-2.857l3.676-.707a.516.516 0 0 1 .111-.011.594.594 0 0 0 .594-.594v-1.783h1.189v1.783a1.784 1.784 0 0 1-1.723 1.782l-3.575.687a1.78 1.78 0 0 0-1.238 1.7v6.527h15.449v-6.527a1.788 1.788 0 0 0-1.293-1.714l-3.52-.673a1.782 1.782 0 0 1-1.723-1.782v-1.783h1.188v1.783a.598.598 0 0 0 .594.594c.038 0 .075.003.112.011l3.625.695a3 3 0 0 1 2.206 2.869v7.121a.598.598 0 0 1-.595.594Zm-2.377-20.798h-1.188v-1.782a4.754 4.754 0 0 0-9.508 0v1.782h-1.188v-1.782a5.943 5.943 0 1 1 11.884 0v1.782Z" fill="#000"/><path d="M352.285 450.857a4.757 4.757 0 0 1-4.754-4.754v-.075a2.379 2.379 0 0 1-1.766-2.601 2.378 2.378 0 0 1 2.36-2.077.59.59 0 0 1 .42.174.59.59 0 0 1 .175.42v4.159a3.563 3.563 0 0 0 6.086 2.521 3.566 3.566 0 0 0 1.044-2.521v-4.159a.594.594 0 0 1 .594-.594 2.378 2.378 0 0 1 2.361 2.077 2.376 2.376 0 0 1-1.766 2.601v.075a4.761 4.761 0 0 1-4.754 4.754Zm4.754-8.159v2.057a1.184 1.184 0 0 0 .593-1.029 1.187 1.187 0 0 0-.593-1.028Zm-9.508 0a1.184 1.184 0 0 0-.593 1.028 1.188 1.188 0 0 0 .593 1.029v-2.057Zm-.001 15.883h-1.188v4.16h1.188v-4.16Zm10.697 0h-1.188v4.16h1.188v-4.16Z" fill="#000"/><path d="m356.022 442.363-1.014-1.014h-5.45l-1.015 1.014-.84-.84 1.189-1.189a.594.594 0 0 1 .42-.174h5.942c.157 0 .309.063.42.174l1.188 1.189-.84.84Z" fill="#000"/><path d="m350.471 438.783-1.127.376.594 1.783 1.127-.376-.594-1.783Zm2.377 0-1.127.376.594 1.783 1.127-.376-.594-1.783Zm2.377 0-1.127.376.594 1.783 1.127-.376-.594-1.783Zm-2.939 16.233a2.864 2.864 0 0 1-2.971-2.971h1.188a1.693 1.693 0 0 0 1.783 1.783 1.705 1.705 0 0 0 1.288-.495 1.69 1.69 0 0 0 .494-1.288h1.189a2.862 2.862 0 0 1-1.817 2.775c-.367.144-.76.211-1.154.196Zm79.61 8.072h-16.494a.591.591 0 0 1-.59-.589v-7.058a2.964 2.964 0 0 1 2.137-2.833l3.644-.702a.578.578 0 0 1 .11-.011.59.59 0 0 0 .59-.589v-1.767h1.178v1.767a1.77 1.77 0 0 1-1.709 1.768l-3.543.68a1.77 1.77 0 0 0-1.228 1.687v6.469h15.316v-6.469a1.777 1.777 0 0 0-1.282-1.701l-3.49-.666a1.77 1.77 0 0 1-1.708-1.768v-1.767h1.178v1.767a.588.588 0 0 0 .589.589.58.58 0 0 1 .111.011l3.594.689a2.973 2.973 0 0 1 2.186 2.846v7.058a.593.593 0 0 1-.172.417.593.593 0 0 1-.417.172Zm-4.123-17.084v-1.178a1.18 1.18 0 0 0 .834-2.012 1.18 1.18 0 0 0-.834-.345v-1.178a2.358 2.358 0 1 1 0 4.713Zm-8.249 0a2.355 2.355 0 1 1 0-4.713v1.178a1.179 1.179 0 0 0 0 2.357v1.178Z" fill="#000"/><path d="M423.648 450.718a4.712 4.712 0 0 1-3.33-1.382 4.713 4.713 0 0 1-1.382-3.331v-4.133c-.192.01-.388.01-.589.01a.592.592 0 0 1-.548-.37c-.04-.101-.966-2.475.349-4.419 1.023-1.515 3.073-2.28 6.09-2.28.156 0 .306.062.416.172l.289.289.799-.4a.58.58 0 0 1 .263-.061h.589c1.06 0 1.767 1.418 1.767 2.356v8.836a4.713 4.713 0 0 1-1.382 3.331 4.713 4.713 0 0 1-3.331 1.382Zm-3.534-8.928v4.215a3.535 3.535 0 1 0 7.069 0v-4.285a3.865 3.865 0 0 1-2.098-1.68 9.894 9.894 0 0 1-4.971 1.75Zm3.881-5.799c-2.466.036-4.104.628-4.872 1.761a3.707 3.707 0 0 0-.346 2.946c4.559-.118 6.155-2.099 6.171-2.121a.591.591 0 0 1 .947.015c.072.101.11.221.11.344a1.82 1.82 0 0 0 1.178 1.498v-3.265c0-.483-.401-1.153-.589-1.178h-.448l-1.054.53a.59.59 0 0 1-.68-.111l-.417-.419Zm-5.059 22.386h-1.178v4.124h1.178v-4.124Zm10.604 0h-1.179v4.124h1.179v-4.124Z" fill="#000"/><path d="M421.294 446.004a2.354 2.354 0 0 1-2.311-2.816 2.357 2.357 0 0 1 4.27-.85 2.357 2.357 0 0 1-1.959 3.666Zm0-3.535a1.176 1.176 0 0 0-1.156 1.408 1.176 1.176 0 0 0 .926.926 1.185 1.185 0 0 0 1.21-.501 1.183 1.183 0 0 0-.147-1.488 1.179 1.179 0 0 0-.833-.345Z" fill="#000"/><path d="M426.005 446.004a2.354 2.354 0 0 1-2.311-2.816 2.357 2.357 0 0 1 4.27-.85 2.357 2.357 0 0 1-1.959 3.666Zm0-3.535a1.176 1.176 0 0 0-1.156 1.408 1.176 1.176 0 0 0 .926.926 1.173 1.173 0 0 0 1.209-.501 1.176 1.176 0 0 0-.979-1.833Z" fill="#000"/><path d="M424.237 443.06h-1.178v1.178h1.178v-1.178Zm-.587 11.781a.593.593 0 0 1-.417-.172l-2.356-2.357.833-.833 1.94 1.94 1.94-1.94.833.833-2.357 2.357a.589.589 0 0 1-.416.172Z" fill="#000"/><path d="M426.004 456.609a.588.588 0 0 1-.589-.589c0-.46-1.13-1.002-1.911-1.196l.287-1.143a5.75 5.75 0 0 1 2.053.955l.779-2.337 1.119.372-1.178 3.535a.59.59 0 0 1-.56.403Z" fill="#000"/><path d="M424.237 462.5h-1.178v-7.428c-.61.255-1.178.621-1.178.948a.592.592 0 0 1-1.148.186l-1.178-3.535 1.119-.372.779 2.337a5.75 5.75 0 0 1 2.053-.955.57.57 0 0 1 .506.107.593.593 0 0 1 .225.464v8.248Zm77.045-2.357h-1.178v-4.702a2.956 2.956 0 0 1 2.136-2.833l3.644-.702a.578.578 0 0 1 .11-.011.59.59 0 0 0 .59-.589v-1.767h1.178v1.767a1.77 1.77 0 0 1-1.709 1.768l-3.543.68a1.77 1.77 0 0 0-1.228 1.687v4.702Zm16.493 0h-1.178v-4.702a1.777 1.777 0 0 0-1.282-1.701l-3.489-.666a1.77 1.77 0 0 1-1.709-1.768v-1.767h1.178v1.767a.588.588 0 0 0 .589.589.58.58 0 0 1 .111.011l3.594.689a2.97 2.97 0 0 1 2.186 2.846v4.702Zm-13.546-1.766h-1.178v1.767h1.178v-1.767Zm10.602 0h-1.179v1.767h1.179v-1.767Z" fill="#000"/><path d="M508.941 454.841a.593.593 0 0 1-.417-.172l-2.356-2.357.833-.833 1.94 1.94 1.94-1.94.833.833-2.357 2.357a.589.589 0 0 1-.416.172Z" fill="#000"/><path d="M510.707 456.61a.588.588 0 0 1-.417-.173l-1.351-1.35-1.35 1.35a.59.59 0 0 1-.833 0l-2.357-2.356a.589.589 0 0 1-.172-.416v-1.179h1.178v.935l1.767 1.767 1.351-1.351a.589.589 0 0 1 .833 0l1.351 1.351 1.767-1.767v-.935h1.178v1.179a.586.586 0 0 1-.173.416l-2.356 2.356a.586.586 0 0 1-.416.173Z" fill="#000"/><path d="M509.53 454.252h-1.178v8.247h1.178v-8.247Zm8.835 8.837h-4.124a.589.589 0 0 1-.589-.589v-2.356a.59.59 0 0 1 .589-.589h4.124c.156 0 .306.062.417.172.11.111.172.261.172.417v2.356a.593.593 0 0 1-.172.417.593.593 0 0 1-.417.172Zm-3.534-1.178h2.945v-1.178h-2.945v1.178Zm-11.192 1.178h-4.124a.593.593 0 0 1-.417-.172.593.593 0 0 1-.172-.417v-2.356c0-.156.062-.306.172-.417a.593.593 0 0 1 .417-.172h4.124a.589.589 0 0 1 .589.589v2.356a.59.59 0 0 1-.589.589Zm-3.535-1.178h2.945v-1.178h-2.945v1.178Z" fill="#000"/><path d="M514.242 461.91h-10.603v1.178h10.603v-1.178Zm-5.303-11.192a4.72 4.72 0 0 1-4.712-4.713v-4.124a.589.589 0 0 1 .589-.589c2.215-.19 4.34-.969 6.153-2.257a.579.579 0 0 1 .605-.03.592.592 0 0 1 .311.52c0 .07.025 1.767 1.178 1.767a.59.59 0 0 1 .589.589v4.124a4.716 4.716 0 0 1-4.713 4.713Zm-3.534-8.288v3.575a3.534 3.534 0 1 0 7.069 0v-3.607a2.425 2.425 0 0 1-1.638-1.889 13.947 13.947 0 0 1-5.431 1.921Z" fill="#000"/><path d="M512.476 448.951v-1.178c1.333 0 1.739-.407 1.767-.623v-5.857a5.301 5.301 0 1 0-10.604 0v5.89c.028.183.434.59 1.767.59v1.178c-2.911 0-2.945-1.696-2.945-1.768v-5.89a6.484 6.484 0 0 1 6.48-6.481 6.48 6.48 0 0 1 6.48 6.481v5.89c0 .072-.034 1.768-2.945 1.768Z" fill="#000"/><path d="M511.298 447.183a2.354 2.354 0 0 1-2.357-2.356v-1.178a.588.588 0 0 1 .589-.589h3.535a.591.591 0 0 1 .589.589v1.178a2.355 2.355 0 0 1-2.356 2.356Zm-1.178-2.945v.589a1.179 1.179 0 0 0 2.356 0v-.589h-2.356Zm-3.537 2.945a2.355 2.355 0 0 1-2.356-2.356v-1.178a.591.591 0 0 1 .589-.589h3.534a.591.591 0 0 1 .589.589v1.178a2.355 2.355 0 0 1-2.356 2.356Zm-1.178-2.945v.589a1.179 1.179 0 0 0 2.356 0v-.589h-2.356Z" fill="#000"/><path d="M509.53 444.238h-1.178v1.178h1.178v-1.178Zm8.258 0a.636.636 0 0 1-.198-.032c-.195-.064-1.919-.652-2.587-1.32a2.936 2.936 0 0 1-.762-2.182 1.77 1.77 0 0 1 1.768-1.767 1.767 1.767 0 0 1 1.767 1.767c0 1.976.435 2.548.44 2.554a.57.57 0 0 1 .073.714.587.587 0 0 1-.501.266Zm-1.779-4.123a.593.593 0 0 0-.417.172.593.593 0 0 0-.172.417 1.835 1.835 0 0 0 .416 1.351c.279.23.59.417.924.555a9.828 9.828 0 0 1-.162-1.906.59.59 0 0 0-.589-.589Zm-15.904 4.123a.587.587 0 0 1-.417-1.005c-.004 0 .417-.585.417-2.529a1.767 1.767 0 1 1 3.535 0 2.937 2.937 0 0 1-.762 2.184c-.668.668-2.392 1.256-2.587 1.32a.589.589 0 0 1-.186.03Zm1.767-4.123a.589.589 0 0 0-.589.589 9.906 9.906 0 0 1-.161 1.906 3.61 3.61 0 0 0 .923-.555 1.835 1.835 0 0 0 .417-1.351.59.59 0 0 0-.59-.589Zm78.418 10.555a4.684 4.684 0 0 1-4.677-4.677v-2.339a.584.584 0 0 1 .585-.584c.143 0 3.508-.038 3.508-2.339a.584.584 0 1 1 1.169 0c.005.234.139 2.339 3.508 2.339a.581.581 0 0 1 .584.584v2.339a4.686 4.686 0 0 1-4.677 4.677Zm-3.507-6.46v1.783a3.507 3.507 0 1 0 7.015 0v-1.773c-1.912-.133-2.932-.913-3.474-1.702-.812 1.124-2.362 1.581-3.541 1.692Z" fill="#000"/><path d="M588.474 462.947h-16.37a.582.582 0 0 1-.584-.585v-7.005a2.938 2.938 0 0 1 2.119-2.812l3.617-.696a.577.577 0 0 1 .11-.01.582.582 0 0 0 .584-.585V449.5h1.17v1.754a1.757 1.757 0 0 1-1.696 1.754l-3.513.674a1.747 1.747 0 0 0-1.222 1.675v6.42h15.2v-6.42a1.761 1.761 0 0 0-1.272-1.687l-3.463-.662a1.757 1.757 0 0 1-1.696-1.754V449.5h1.17v1.754a.582.582 0 0 0 .584.585c.037 0 .074.003.11.01l3.566.684a2.947 2.947 0 0 1 2.171 2.824v7.005a.582.582 0 0 1-.172.413.582.582 0 0 1-.413.172Z" fill="#000"/><path d="M587.303 453.008h-1.169a55.704 55.704 0 0 0-1.152-12.136.611.611 0 0 1-.017-.141 4.676 4.676 0 1 0-9.354 0 .611.611 0 0 1-.017.141 55.766 55.766 0 0 0-1.153 12.136h-1.169a56.712 56.712 0 0 1 1.169-12.349c0-1.551.616-3.038 1.713-4.134a5.843 5.843 0 0 1 8.268 0 5.846 5.846 0 0 1 1.712 4.134 56.65 56.65 0 0 1 1.169 12.349Z" fill="#000"/><path d="M580.289 454.762a.581.581 0 0 1-.413-.171l-2.339-2.339.827-.826 1.925 1.925 1.925-1.925.827.826-2.339 2.339a.581.581 0 0 1-.413.171Z" fill="#000"/><path d="M582.044 455.931a.585.585 0 0 1-.324-.098l-1.43-.954-1.429.953a.576.576 0 0 1-.453.084.585.585 0 0 1-.373-.27l-1.754-2.923 1.002-.602 1.439 2.397 1.244-.829a.585.585 0 0 1 .649 0l1.243.829 1.439-2.397 1.002.602-1.754 2.923a.584.584 0 0 1-.501.285Z" fill="#000"/><path d="M580.872 454.177h-1.169v8.185h1.169v-8.185Zm-5.261 4.093h-1.17v4.092h1.17v-4.092Zm10.523 0h-1.169v4.092h1.169v-4.092Z" fill="#000"/><path d="M0 540a5 5 0 0 1 5-5h18a5 5 0 0 1 5 5v18a5 5 0 0 1-5 5H5a5 5 0 0 1-5-5v-18Zm321 0a5 5 0 0 1 5-5h18a5 5 0 0 1 5 5v18a5 5 0 0 1-5 5h-18a5 5 0 0 1-5-5v-18Zm-162 0a5 5 0 0 1 5-5h18a5 5 0 0 1 5 5v18a5 5 0 0 1-5 5h-18a5 5 0 0 1-5-5v-18Zm319 0a5 5 0 0 1 5-5h18a5 5 0 0 1 5 5v18a5 5 0 0 1-5 5h-18a5 5 0 0 1-5-5v-18Zm-407 0a5 5 0 0 1 5-5h18a5 5 0 0 1 5 5v18a5 5 0 0 1-5 5H76a5 5 0 0 1-5-5v-18Zm322 0a5 5 0 0 1 5-5h18a5 5 0 0 1 5 5v18a5 5 0 0 1-5 5h-18a5 5 0 0 1-5-5v-18Zm-163 0a5 5 0 0 1 5-5h18a5 5 0 0 1 5 5v18a5 5 0 0 1-5 5h-18a5 5 0 0 1-5-5v-18Zm320 0a5 5 0 0 1 5-5h17a5 5 0 0 1 5 5v18a5 5 0 0 1-5 5h-17a5 5 0 0 1-5-5v-18Zm-514 0a5 5 0 0 1 5-5h17a5 5 0 0 1 5 5v18a5 5 0 0 1-5 5H41a5 5 0 0 1-5-5v-18Zm321 0a5 5 0 0 1 5-5h18a5 5 0 0 1 5 5v18a5 5 0 0 1-5 5h-18a5 5 0 0 1-5-5v-18Zm-162 0a5 5 0 0 1 5-5h17a5 5 0 0 1 5 5v18a5 5 0 0 1-5 5h-17a5 5 0 0 1-5-5v-18Zm319 0a5 5 0 0 1 5-5h18a5 5 0 0 1 5 5v18a5 5 0 0 1-5 5h-18a5 5 0 0 1-5-5v-18Zm-407 0a5 5 0 0 1 5-5h18a5 5 0 0 1 5 5v18a5 5 0 0 1-5 5h-18a5 5 0 0 1-5-5v-18Zm322 0a5 5 0 0 1 5-5h17a5 5 0 0 1 5 5v18a5 5 0 0 1-5 5h-17a5 5 0 0 1-5-5v-18Zm-163 0a5 5 0 0 1 5-5h18a5 5 0 0 1 5 5v18a5 5 0 0 1-5 5h-18a5 5 0 0 1-5-5v-18Zm319 0a5 5 0 0 1 5-5h18a5 5 0 0 1 5 5v18a5 5 0 0 1-5 5h-18a5 5 0 0 1-5-5v-18Z" fill="#EAEFF1"/><path fill-rule="evenodd" clip-rule="evenodd" d="M16.127 548.181a4.36 4.36 0 0 1 3.462 4.253v2.712c0 .588-.477 1.066-1.065 1.066H9.131a1.066 1.066 0 0 1-1.065-1.066v-2.712a4.356 4.356 0 0 1 3.462-4.253c-.568-.703-.876-1.635-.876-2.536 0-1.803 1.23-3.673 3.176-3.673 1.945 0 3.175 1.87 3.175 3.673 0 .901-.307 1.833-.876 2.536Zm-2.3-5.35c-1.456 0-2.315 1.492-2.315 2.814 0 1.323.86 2.814 2.316 2.814s2.315-1.492 2.315-2.814-.859-2.814-2.315-2.814Zm1.418 6.119H12.41a3.494 3.494 0 0 0-3.484 3.484v2.712c0 .114.092.206.205.206h1.729v-1.961c0-.037.03-.068.068-.068h.676c.038 0 .068.031.068.068v1.961h4.311v-1.961c0-.037.03-.068.069-.068h.675c.038 0 .069.031.069.068v1.961h1.728a.205.205 0 0 0 .205-.206v-2.712a3.496 3.496 0 0 0-3.484-3.484Zm322.361-.769a4.36 4.36 0 0 1 3.461 4.253v2.712c0 .588-.477 1.066-1.064 1.066h-9.393a1.067 1.067 0 0 1-1.065-1.066v-2.712a4.356 4.356 0 0 1 3.462-4.253c-.568-.703-.876-1.635-.876-2.536 0-1.803 1.23-3.673 3.175-3.673 1.946 0 3.176 1.87 3.176 3.673 0 .901-.308 1.833-.876 2.536Zm-2.3-5.35c-1.456 0-2.315 1.492-2.315 2.814 0 1.323.86 2.814 2.315 2.814 1.457 0 2.316-1.492 2.316-2.814s-.859-2.814-2.316-2.814Zm1.418 6.119h-2.835a3.494 3.494 0 0 0-3.484 3.484v2.712c0 .114.091.206.205.206h1.728v-1.961c0-.037.031-.068.068-.068h.677c.037 0 .068.031.068.068v1.961h4.311v-1.961c0-.037.03-.068.068-.068h.676c.038 0 .068.031.068.068v1.961h1.729a.205.205 0 0 0 .205-.206v-2.712a3.496 3.496 0 0 0-3.484-3.484Zm-161.585-.769a4.36 4.36 0 0 1 3.462 4.253v2.712c0 .588-.478 1.066-1.065 1.066h-9.393a1.067 1.067 0 0 1-1.065-1.066v-2.712a4.356 4.356 0 0 1 3.462-4.253c-.568-.703-.876-1.635-.876-2.536 0-1.803 1.23-3.673 3.175-3.673 1.946 0 3.176 1.87 3.176 3.673 0 .901-.308 1.833-.876 2.536Zm-2.3-5.35c-1.456 0-2.315 1.492-2.315 2.814 0 1.323.861 2.814 2.315 2.814 1.457 0 2.316-1.492 2.316-2.814s-.859-2.814-2.316-2.814Zm1.418 6.119h-2.835a3.494 3.494 0 0 0-3.484 3.484v2.712c0 .114.091.206.205.206h1.728v-1.961c0-.037.031-.068.069-.068h.676c.037 0 .068.031.068.068v1.961h4.311v-1.961c0-.037.031-.068.068-.068h.676c.038 0 .068.031.068.068v1.961h1.729a.205.205 0 0 0 .205-.206v-2.712a3.496 3.496 0 0 0-3.484-3.484Zm320.056-.769a4.36 4.36 0 0 1 3.462 4.253v2.712c0 .588-.478 1.066-1.065 1.066h-9.393a1.067 1.067 0 0 1-1.065-1.066v-2.712a4.356 4.356 0 0 1 3.462-4.253c-.568-.703-.876-1.635-.876-2.536 0-1.803 1.23-3.673 3.175-3.673 1.946 0 3.176 1.87 3.176 3.673 0 .901-.308 1.833-.876 2.536Zm-2.3-5.35c-1.456 0-2.315 1.492-2.315 2.814 0 1.323.86 2.814 2.315 2.814 1.457 0 2.316-1.492 2.316-2.814s-.859-2.814-2.316-2.814Zm1.418 6.119h-2.835a3.494 3.494 0 0 0-3.484 3.484v2.712c0 .114.091.206.205.206h1.728v-1.961c0-.037.031-.068.068-.068h.677c.037 0 .068.031.068.068v1.961h4.311v-1.961c0-.037.03-.068.068-.068h.676c.038 0 .068.031.068.068v1.961h1.729a.205.205 0 0 0 .205-.206v-2.712a3.496 3.496 0 0 0-3.484-3.484Zm-441.585-.769a4.36 4.36 0 0 1 3.462 4.253v2.712c0 .588-.478 1.066-1.065 1.066H44.85a1.066 1.066 0 0 1-1.065-1.066v-2.712a4.356 4.356 0 0 1 3.462-4.253c-.568-.703-.876-1.635-.876-2.536 0-1.803 1.23-3.673 3.175-3.673 1.946 0 3.176 1.87 3.176 3.673 0 .901-.308 1.833-.876 2.536Zm-2.3-5.35c-1.456 0-2.315 1.492-2.315 2.814 0 1.323.86 2.814 2.315 2.814 1.457 0 2.316-1.492 2.316-2.814s-.859-2.814-2.316-2.814Zm1.418 6.119H48.13a3.494 3.494 0 0 0-3.484 3.484v2.712c0 .114.091.206.205.206h1.728v-1.961c0-.037.031-.068.069-.068h.676c.037 0 .068.031.068.068v1.961h4.311v-1.961c0-.037.03-.068.068-.068h.676c.038 0 .069.031.069.068v1.961h1.728a.205.205 0 0 0 .205-.206v-2.712a3.496 3.496 0 0 0-3.484-3.484Zm322.362-.769a4.36 4.36 0 0 1 3.462 4.253v2.712c0 .588-.477 1.066-1.065 1.066h-9.392a1.066 1.066 0 0 1-1.065-1.066v-2.712a4.355 4.355 0 0 1 3.462-4.253c-.569-.703-.877-1.635-.877-2.536 0-1.803 1.23-3.673 3.176-3.673 1.946 0 3.175 1.87 3.175 3.673 0 .901-.307 1.833-.876 2.536Zm-2.299-5.35c-1.456 0-2.316 1.492-2.316 2.814 0 1.323.861 2.814 2.316 2.814 1.456 0 2.316-1.492 2.316-2.814s-.86-2.814-2.316-2.814Zm1.418 6.119h-2.836a3.493 3.493 0 0 0-3.483 3.484v2.712c0 .114.091.206.205.206h1.728v-1.961c0-.037.031-.068.068-.068h.676c.038 0 .069.031.069.068v1.961h4.311v-1.961c0-.037.03-.068.068-.068h.676c.037 0 .068.031.068.068v1.961h1.728a.206.206 0 0 0 .206-.206v-2.712a3.496 3.496 0 0 0-3.484-3.484Zm-161.587-.769a4.36 4.36 0 0 1 3.461 4.253v2.712c0 .588-.477 1.066-1.064 1.066h-9.393a1.066 1.066 0 0 1-1.065-1.066v-2.712a4.356 4.356 0 0 1 3.462-4.253c-.568-.703-.876-1.635-.876-2.536 0-1.803 1.229-3.673 3.175-3.673 1.946 0 3.176 1.87 3.176 3.673 0 .901-.308 1.833-.876 2.536Zm-2.3-5.35c-1.456 0-2.315 1.492-2.315 2.814 0 1.323.86 2.814 2.315 2.814 1.457 0 2.316-1.492 2.316-2.814s-.859-2.814-2.316-2.814Zm1.418 6.119h-2.835a3.494 3.494 0 0 0-3.484 3.484v2.712c0 .114.091.206.205.206h1.728v-1.961c0-.037.031-.068.068-.068h.677c.037 0 .068.031.068.068v1.961h4.311v-1.961c0-.037.03-.068.068-.068h.676c.038 0 .068.031.068.068v1.961h1.729a.205.205 0 0 0 .205-.206v-2.712a3.496 3.496 0 0 0-3.484-3.484Zm320.057-.769a4.36 4.36 0 0 1 3.462 4.253v2.712c0 .588-.477 1.066-1.065 1.066h-9.392a1.066 1.066 0 0 1-1.065-1.066v-2.712a4.355 4.355 0 0 1 3.462-4.253c-.569-.703-.877-1.635-.877-2.536 0-1.803 1.23-3.673 3.176-3.673 1.946 0 3.175 1.87 3.175 3.673 0 .901-.307 1.833-.876 2.536Zm-2.299-5.35c-1.456 0-2.316 1.492-2.316 2.814 0 1.323.861 2.814 2.316 2.814 1.456 0 2.316-1.492 2.316-2.814s-.86-2.814-2.316-2.814Zm1.418 6.119h-2.836a3.494 3.494 0 0 0-3.483 3.484v2.712c0 .114.091.206.205.206h1.728v-1.961c0-.037.031-.068.068-.068h.676c.038 0 .069.031.069.068v1.961h4.311v-1.961c0-.037.03-.068.068-.068h.676c.037 0 .068.031.068.068v1.961h1.728a.206.206 0 0 0 .206-.206v-2.712a3.496 3.496 0 0 0-3.484-3.484Zm-441.585-.769a4.36 4.36 0 0 1 3.461 4.253v2.712c0 .588-.477 1.066-1.064 1.066H80.57a1.066 1.066 0 0 1-1.065-1.066v-2.712a4.356 4.356 0 0 1 3.462-4.253c-.568-.703-.876-1.635-.876-2.536 0-1.803 1.23-3.673 3.175-3.673 1.946 0 3.176 1.87 3.176 3.673 0 .901-.308 1.833-.876 2.536Zm-2.3-5.35c-1.456 0-2.315 1.492-2.315 2.814 0 1.323.86 2.814 2.315 2.814 1.457 0 2.316-1.492 2.316-2.814s-.86-2.814-2.316-2.814Zm1.418 6.119H83.85a3.494 3.494 0 0 0-3.484 3.484v2.712c0 .114.091.206.205.206h1.728v-1.961c0-.037.03-.068.068-.068h.676c.038 0 .069.031.069.068v1.961h4.31v-1.961a.07.07 0 0 1 .07-.068h.675c.038 0 .068.031.068.068v1.961h1.729a.205.205 0 0 0 .205-.206v-2.712a3.496 3.496 0 0 0-3.484-3.484Zm322.36-.769a4.36 4.36 0 0 1 3.462 4.253v2.712c0 .588-.477 1.066-1.065 1.066h-9.393a1.067 1.067 0 0 1-1.065-1.066v-2.712a4.356 4.356 0 0 1 3.462-4.253c-.568-.703-.876-1.635-.876-2.536 0-1.803 1.23-3.673 3.176-3.673 1.945 0 3.175 1.87 3.175 3.673 0 .901-.307 1.833-.876 2.536Zm-2.299-5.35c-1.457 0-2.316 1.492-2.316 2.814 0 1.323.861 2.814 2.316 2.814 1.456 0 2.315-1.492 2.315-2.814s-.859-2.814-2.315-2.814Zm1.417 6.119h-2.835a3.494 3.494 0 0 0-3.484 3.484v2.712c0 .114.092.206.205.206h1.729v-1.961c0-.037.03-.068.068-.068h.676c.037 0 .068.031.068.068v1.961h4.311v-1.961c0-.037.031-.068.069-.068h.675c.038 0 .069.031.069.068v1.961h1.728a.205.205 0 0 0 .205-.206v-2.712a3.496 3.496 0 0 0-3.484-3.484Zm-161.587-.769a4.36 4.36 0 0 1 3.462 4.253v2.712c0 .588-.477 1.066-1.065 1.066h-9.392a1.066 1.066 0 0 1-1.065-1.066v-2.712a4.355 4.355 0 0 1 3.462-4.253c-.569-.703-.877-1.635-.877-2.536 0-1.803 1.23-3.673 3.176-3.673 1.946 0 3.175 1.87 3.175 3.673 0 .901-.307 1.833-.876 2.536Zm-2.299-5.35c-1.456 0-2.316 1.492-2.316 2.814 0 1.323.861 2.814 2.316 2.814 1.456 0 2.316-1.492 2.316-2.814s-.86-2.814-2.316-2.814Zm1.418 6.119h-2.836a3.493 3.493 0 0 0-3.483 3.484v2.712c0 .114.091.206.205.206h1.728v-1.961c0-.037.031-.068.068-.068h.676c.038 0 .069.031.069.068v1.961h4.311v-1.961c0-.037.03-.068.068-.068h.676c.037 0 .068.031.068.068v1.961h1.728a.206.206 0 0 0 .206-.206v-2.712a3.496 3.496 0 0 0-3.484-3.484Zm320.057-.769a4.36 4.36 0 0 1 3.462 4.253v2.712c0 .588-.477 1.066-1.065 1.066h-9.393a1.067 1.067 0 0 1-1.065-1.066v-2.712a4.356 4.356 0 0 1 3.462-4.253c-.568-.703-.876-1.635-.876-2.536 0-1.803 1.23-3.673 3.176-3.673 1.945 0 3.175 1.87 3.175 3.673 0 .901-.307 1.833-.876 2.536Zm-2.299-5.35c-1.457 0-2.316 1.492-2.316 2.814 0 1.323.861 2.814 2.316 2.814 1.456 0 2.315-1.492 2.315-2.814s-.859-2.814-2.315-2.814Zm1.417 6.119h-2.835a3.494 3.494 0 0 0-3.484 3.484v2.712c0 .114.092.206.205.206h1.729v-1.961c0-.037.03-.068.068-.068h.676c.037 0 .068.031.068.068v1.961h4.311v-1.961c0-.037.031-.068.069-.068h.675c.038 0 .069.031.069.068v1.961h1.728a.205.205 0 0 0 .205-.206v-2.712a3.496 3.496 0 0 0-3.484-3.484Zm-441.583-.769a4.36 4.36 0 0 1 3.462 4.253v2.712c0 .588-.477 1.066-1.065 1.066h-9.393a1.066 1.066 0 0 1-1.064-1.066v-2.712a4.355 4.355 0 0 1 3.462-4.253c-.569-.703-.877-1.635-.877-2.536 0-1.803 1.23-3.673 3.176-3.673 1.945 0 3.175 1.87 3.175 3.673 0 .901-.307 1.833-.876 2.536Zm-2.299-5.35c-1.457 0-2.316 1.492-2.316 2.814 0 1.323.861 2.814 2.316 2.814 1.456 0 2.315-1.492 2.315-2.814s-.859-2.814-2.315-2.814Zm1.418 6.119h-2.836a3.493 3.493 0 0 0-3.483 3.484v2.712c0 .114.091.206.204.206h1.729v-1.961c0-.037.03-.068.068-.068h.676c.038 0 .068.031.068.068v1.961h4.312v-1.961c0-.037.03-.068.068-.068h.676c.037 0 .068.031.068.068v1.961h1.728a.205.205 0 0 0 .205-.206v-2.712a3.496 3.496 0 0 0-3.483-3.484Zm322.36-.769a4.36 4.36 0 0 1 3.462 4.253v2.712c0 .588-.478 1.066-1.065 1.066h-9.393a1.067 1.067 0 0 1-1.065-1.066v-2.712a4.356 4.356 0 0 1 3.462-4.253c-.568-.703-.876-1.635-.876-2.536 0-1.803 1.23-3.673 3.175-3.673 1.946 0 3.176 1.87 3.176 3.673 0 .901-.308 1.833-.876 2.536Zm-2.3-5.35c-1.456 0-2.315 1.492-2.315 2.814 0 1.323.861 2.814 2.315 2.814 1.457 0 2.316-1.492 2.316-2.814s-.859-2.814-2.316-2.814Zm1.418 6.119h-2.835a3.494 3.494 0 0 0-3.484 3.484v2.712c0 .114.091.206.205.206h1.728v-1.961c0-.037.031-.068.069-.068h.676c.037 0 .068.031.068.068v1.961h4.311v-1.961c0-.037.031-.068.068-.068h.676c.038 0 .068.031.068.068v1.961h1.729a.205.205 0 0 0 .205-.206v-2.712a3.496 3.496 0 0 0-3.484-3.484Zm-161.585-.769a4.36 4.36 0 0 1 3.462 4.253v2.712c0 .588-.478 1.066-1.065 1.066h-9.393a1.067 1.067 0 0 1-1.065-1.066v-2.712a4.356 4.356 0 0 1 3.462-4.253c-.568-.703-.876-1.635-.876-2.536 0-1.803 1.23-3.673 3.176-3.673 1.945 0 3.175 1.87 3.175 3.673 0 .901-.308 1.833-.876 2.536Zm-2.299-5.35c-1.457 0-2.316 1.492-2.316 2.814 0 1.323.861 2.814 2.316 2.814 1.456 0 2.315-1.492 2.315-2.814s-.859-2.814-2.315-2.814Zm1.417 6.119h-2.835a3.494 3.494 0 0 0-3.484 3.484v2.712c0 .114.092.206.205.206h1.729v-1.961c0-.037.03-.068.068-.068h.676c.037 0 .068.031.068.068v1.961h4.311v-1.961c0-.037.031-.068.069-.068h.675c.038 0 .069.031.069.068v1.961h1.728a.205.205 0 0 0 .205-.206v-2.712a3.496 3.496 0 0 0-3.484-3.484Zm320.056-.769a4.36 4.36 0 0 1 3.462 4.253v2.712c0 .588-.478 1.066-1.065 1.066h-9.393a1.067 1.067 0 0 1-1.065-1.066v-2.712a4.356 4.356 0 0 1 3.462-4.253c-.568-.703-.876-1.635-.876-2.536 0-1.803 1.23-3.673 3.175-3.673 1.946 0 3.176 1.87 3.176 3.673 0 .901-.308 1.833-.876 2.536Zm-2.3-5.35c-1.456 0-2.315 1.492-2.315 2.814 0 1.323.861 2.814 2.315 2.814 1.457 0 2.316-1.492 2.316-2.814s-.859-2.814-2.316-2.814Zm1.418 6.119h-2.835a3.494 3.494 0 0 0-3.484 3.484v2.712c0 .114.091.206.205.206h1.728v-1.961c0-.037.031-.068.069-.068h.676c.037 0 .068.031.068.068v1.961h4.311v-1.961c0-.037.031-.068.068-.068h.676c.038 0 .068.031.068.068v1.961h1.729a.205.205 0 0 0 .205-.206v-2.712a3.496 3.496 0 0 0-3.484-3.484Z" fill="#000"/><path fill-rule="evenodd" clip-rule="evenodd" d="m279.999 93.168-100.246 74.896-1.796-2.403 100.246-74.897 1.796 2.404Zm57.612 0 100.246 74.896 1.795-2.403-100.246-74.897-1.795 2.404Z" fill="#252525"/><path fill-rule="evenodd" clip-rule="evenodd" d="M126.748 230.286 89.3 309.792l-2.714-1.278 37.448-79.506 2.714 1.278Zm322.055 0-37.448 79.506-2.714-1.278 37.448-79.506 2.714 1.278Zm-280.575 0 37.449 79.506 2.714-1.278-37.449-79.506-2.714 1.278Zm322.057 0 37.448 79.506 2.714-1.278-37.448-79.506-2.714 1.278ZM59.917 356.459l-23.045 73.744-1.91-.597 23.046-73.744 1.909.597Zm157.859 0-23.045 73.744-1.909-.597 23.045-73.744 1.909.597Zm162.467 0-23.045 73.744-1.909-.597 23.045-73.744 1.909.597Zm156.707 0-23.045 73.744-1.909-.597 23.045-73.744 1.909.597Zm-460.9 0 23.045 73.744 1.909-.597-23.045-73.744-1.91.597Zm157.859 0 23.045 73.744 1.909-.597-23.045-73.744-1.909.597Zm162.467 0 23.045 73.744 1.909-.597-23.045-73.744-1.909.597Zm156.707 0 23.045 73.744 1.909-.597-23.045-73.744-1.909.597ZM27.656 469.38l-10.37 67.983-.99-.151 10.371-67.983.989.151Zm71.437 0-10.37 67.983-.989-.151 10.37-67.983.99.151Zm87.573 0-10.371 67.983-.988-.151 10.37-67.983.989.151Zm70.287 0-10.371 67.983-.988-.151 10.37-67.983.989.151Zm92.179 0-10.37 67.983-.989-.151 10.371-67.983.988.151Zm71.442 0-10.371 67.983-.988-.151 10.37-67.983.989.151Zm85.265 0-10.37 67.983-.989-.151 10.371-67.983.988.151Zm71.442 0-10.371 67.983-.988-.151 10.37-67.983.989.151Zm-542.714 0 10.37 67.983.989-.151-10.37-67.983-.99.151Zm71.441 0 10.371 67.983.988-.151-10.37-67.983-.989.151Zm87.571 0 10.37 67.983.989-.151-10.371-67.983-.988.151Zm70.289 0 10.37 67.983.989-.151-10.371-67.983-.988.151Zm92.179 0 10.371 67.983.988-.151-10.37-67.983-.989.151Zm71.44 0 10.37 67.983.989-.151-10.371-67.983-.988.151Zm85.267 0 10.371 67.983.988-.151-10.37-67.983-.989.151Zm71.438 0 10.37 67.983.989-.151-10.371-67.983-.988.151Z" fill="#EAEFF1"/><path d="M444 167c0 2.761-2.462 5-5.5 5s-5.5-2.239-5.5-5 2.462-5 5.5-5 5.5 2.239 5.5 5Zm-261 0a5 5 0 1 1-10.001-.001A5 5 0 0 1 183 167Z" fill="#252525"/><defs><filter id="a" x="226" y="0" width="171" height="171" filterUnits="userSpaceOnUse" color-interpolation-filters="sRGB"><feFlood flood-opacity="0" result="BackgroundImageFix"/><feColorMatrix in="SourceAlpha" values="0 0 0 0 0 0 0 0 0 0 0 0 0 0 0 0 0 0 127 0" result="hardAlpha"/><feOffset dy="20"/><feGaussianBlur stdDeviation="20"/><feComposite in2="hardAlpha" operator="out"/><feColorMatrix values="0 0 0 0 0.129412 0 0 0 0 0.129412 0 0 0 0 0.129412 0 0 0 0.35 0"/><feBlend in2="BackgroundImageFix" result="effect1_dropShadow"/><feBlend in="SourceGraphic" in2="effect1_dropShadow" result="shape"/></filter></defs></svg>