<svg width="29" height="39" fill="none" xmlns="http://www.w3.org/2000/svg"><path d="M20.813 15.713h5.05v1.263h-5.05v-1.263Zm0 2.525h5.05v1.263h-5.05v-1.263Zm0 2.525h5.05v1.262h-5.05v-1.262Zm0 2.525h5.05v1.263h-5.05v-1.263Zm0 2.526h5.05v1.262h-5.05v-1.262Zm0 2.524h5.05V29.6h-5.05v-1.262Zm0 2.525h5.05v1.263h-5.05v-1.263Z" fill="#DCAD76"/><path d="M9.45 3.087h4.42V.562h1.262v2.525h4.419v10.1h8.838V38.44H.612V22.025H9.45V3.087Zm14.52 34.09V34.65h-1.263v2.525h1.263Zm-4.42 0h1.895v-3.789h3.787v3.788h1.894V14.45h-7.575v22.726Zm-4.418 0V34.65h-1.263v2.525h1.263Zm-4.42 0h1.895v-3.789h3.787v3.788h1.894V4.35h-7.575v32.827Zm-4.418 0V34.65H5.03v2.525h1.263Zm-4.42-13.89v13.89H3.77v-3.789h3.787v3.788H9.45V23.288H1.875Z" fill="#DCAD76"/><path d="M15.132 5.611h1.893v1.263h-1.893V5.61Zm-3.157 0h1.894v1.263h-1.894V5.61Zm3.157 2.526h1.893v1.262h-1.893V8.137Zm-3.157 0h1.894v1.262h-1.894V8.137Zm3.157 2.525h1.893v1.263h-1.893v-1.263Zm-3.157 0h1.894v1.263h-1.894v-1.263Zm3.157 2.526h1.893v1.262h-1.893v-1.262Zm-3.157 0h1.894v1.262h-1.894v-1.262Zm3.157 2.525h1.893v1.263h-1.893v-1.263Zm-3.157 0h1.894v1.263h-1.894v-1.263Zm3.157 2.525h1.893v1.263h-1.893v-1.263Zm-3.157 0h1.894v1.263h-1.894v-1.263Zm3.157 2.525h1.893v1.262h-1.893v-1.262Zm-3.157 0h1.894v1.262h-1.894v-1.262Zm3.157 2.525h1.893v1.263h-1.893v-1.263Zm-3.157 0h1.894v1.263h-1.894v-1.263Zm3.157 2.526h1.893v1.262h-1.893v-1.262Zm-3.157 0h1.894v1.262h-1.894v-1.262Zm3.157 2.524h1.893V29.6h-1.893v-1.262Zm-3.157 0h1.894V29.6h-1.894v-1.262Zm3.157 2.525h1.893v1.263h-1.893v-1.263Zm-3.157 0h1.894v1.263h-1.894v-1.263ZM6.294 24.55h1.894v1.262H6.293V24.55Zm-3.157 0h1.894v1.262H3.137V24.55Zm3.157 2.525h1.894v1.263H6.293v-1.263Zm-3.157 0h1.894v1.263H3.137v-1.263ZM6.294 29.6h1.894v1.263H6.293v-1.262Zm-3.157 0h1.894v1.263H3.137v-1.262Z" fill="#DCAD76"/></svg>