<svg width="76" height="77" fill="none" xmlns="http://www.w3.org/2000/svg"><path d="M60.726 30.545h10.182v2.546H60.726v-2.546Zm0 5.091h10.182v2.546H60.726v-2.546Zm0 5.091h10.182v2.546H60.726v-2.546Zm0 5.091h10.182v2.546H60.726v-2.546Zm0 5.092h10.182v2.545H60.726v-2.546Zm0 5.09h10.182v2.545H60.726V56Zm0 5.09h10.182v2.546H60.726v-2.545Z" fill="#000"/><path d="M37.818 5.09h8.91V0h2.545v5.09h8.909v20.364H76v50.91H20V43.273h17.818V5.09Zm29.273 68.728v-5.09h-2.545v5.09h2.545Zm-8.91 0H62v-7.636h7.636v7.636h3.819V28H58.181v45.818Zm-8.908 0v-5.09h-2.546v5.09h2.546Zm-8.91 0h3.819v-7.636h7.636v7.636h3.818V7.636H40.364v66.182Zm-8.909 0v-5.09H28.91v5.09h2.546Zm-8.909-28v28h3.819v-7.636H34v7.636h3.818v-28H22.546Z" fill="#000"/><path d="M49.274 10.182h3.818v2.545h-3.818v-2.545Zm-6.366 0h3.819v2.545h-3.819v-2.545Zm6.366 5.091h3.818v2.545h-3.818v-2.545Zm-6.366 0h3.819v2.545h-3.819v-2.545Zm6.366 5.091h3.818v2.545h-3.818v-2.545Zm-6.366 0h3.819v2.545h-3.819v-2.545Zm6.366 5.091h3.818V28h-3.818v-2.545Zm-6.366 0h3.819V28h-3.819v-2.545Zm6.366 5.09h3.818v2.546h-3.818v-2.546Zm-6.366 0h3.819v2.546h-3.819v-2.546Zm6.366 5.091h3.818v2.546h-3.818v-2.546Zm-6.366 0h3.819v2.546h-3.819v-2.546Zm6.366 5.091h3.818v2.546h-3.818v-2.546Zm-6.366 0h3.819v2.546h-3.819v-2.546Zm6.366 5.091h3.818v2.546h-3.818v-2.546Zm-6.366 0h3.819v2.546h-3.819v-2.546Zm6.366 5.092h3.818v2.545h-3.818v-2.546Zm-6.366 0h3.819v2.545h-3.819v-2.546ZM49.274 56h3.818v2.545h-3.818V56Zm-6.366 0h3.819v2.545h-3.819V56Zm6.366 5.09h3.818v2.546h-3.818v-2.545Zm-6.366 0h3.819v2.546h-3.819v-2.545ZM31.455 48.364h3.818v2.545h-3.818v-2.545Zm-6.365 0h3.818v2.545H25.09v-2.545Zm6.365 5.091h3.818V56h-3.818v-2.545Zm-6.365 0h3.818V56H25.09v-2.545Zm6.365 5.09h3.818v2.546h-3.818v-2.546Zm-6.365 0h3.818v2.546H25.09v-2.546ZM5 76V53h2v23z" fill="#000"/><path fill="#000" d="M0 56.842 5.842 51l1.414 1.414-5.842 5.842z"/><path fill="#000" d="M12.256 56.842 6.414 51 5 52.414l5.842 5.842z"/></svg>