<svg width="43" height="45" fill="none" xmlns="http://www.w3.org/2000/svg"><path fill-rule="evenodd" clip-rule="evenodd" d="M6.821 9.625a3.153 3.153 0 1 0 0-6.307 3.153 3.153 0 0 0 0 6.307Zm0 3a6.153 6.153 0 1 0 0-12.307 6.153 6.153 0 0 0 0 12.307Zm29.355-3a3.153 3.153 0 1 0 0-6.307 3.153 3.153 0 0 0 0 6.307Zm0 3a6.153 6.153 0 1 0 0-12.307 6.153 6.153 0 0 0 0 12.307Z" fill="#DCAD76"/><path d="M20.25 28.697h3V42.25h-3V28.697Z" fill="#DCAD76"/><path d="m25.986 36.027 2.078 2.164-6.076 5.834-2.078-2.164 6.076-5.834Z" fill="#DCAD76"/><path d="m17.75 36.027-2.078 2.164 6.077 5.834 2.077-2.164-6.076-5.834ZM34.678 10.5h3v12h-3v-12Z" fill="#DCAD76"/><path d="m36.178 19.902 1.5 2.598-15.233 8.795-1.5-2.598 15.233-8.795Z" fill="#DCAD76"/><path d="M6.82 19.902 5.32 22.5l15.167 8.757 1.5-2.598L6.82 19.902Z" fill="#DCAD76"/><path d="M5.32 10.5h3v12h-3v-12Z" fill="#DCAD76"/></svg>