<svg width="36" height="36" fill="none" xmlns="http://www.w3.org/2000/svg"><path fill="#DCAD76" d="M0 0h3v33H0zm33 0h3v18h-3zM16 12h3v24h-3zm0-12h3v8h-3z"/><path fill="#DCAD76" d="M20 16v3h-8v-3zM8 16v3H0v-3zM33 0v3H3V0z"/><path fill="#DCAD76" d="M36 16v3H16v-3zM16 33v3H0v-3zm14.818-.926c3.188 0 5.182-1.354 5.182-4.028C36 25.354 34.006 24 30.818 24h-5.165v9.034H24v1.423h1.653V36h2.779v-1.543h3.682v-1.423h-3.682v-.96h2.386Zm2.387-4.011c0 1.183-.87 1.834-2.404 1.834h-2.37v-3.634h2.37c1.534 0 2.404.634 2.404 1.8Z"/></svg>