<svg width="36" height="25" fill="none" xmlns="http://www.w3.org/2000/svg"><path d="M34.8 3.6h-4.303L27.249.352A1.195 1.195 0 0 0 26.4 0H18c-.319 0-.624.126-.848.352l-5.503 5.503a3.602 3.602 0 0 0 0 5.09l.206.207a3.602 3.602 0 0 0 5.09 0l4.304-4.304a1.199 1.199 0 1 0-1.697-1.696l-4.303 4.303c-.45.447-1.247.447-1.697 0l-.207-.207a1.192 1.192 0 0 1-.348-.848c0-.323.125-.624.348-.848L18.497 2.4h7.406l3.249 3.248c.224.226.529.352.848.352h3.6v9.6H30a1.199 1.199 0 1 0 0 2.4h4.8c.664 0 1.2-.537 1.2-1.2v-12c0-.664-.536-1.2-1.2-1.2Z" fill="#DCAD76"/><path d="M22.448 9.952a1.199 1.199 0 1 0-1.697 1.696l4.308 4.308c.354.354.492.735.423 1.164-.127.792-.92 1.659-2.018 2.207-1.426.714-3.251 1.045-4.121.937a1.186 1.186 0 0 0-1.017.369c-1.011 1.074-2.449 1.725-3.846 1.746-.81.008-1.41-.207-1.632-.426l-5.998-6a1.22 1.22 0 0 0-.392-.26A1.169 1.169 0 0 0 6 15.6H2.4V6H6c.32 0 .624-.126.848-.352L10.097 2.4H13.2a1.199 1.199 0 1 0 0-2.4H9.6c-.32 0-.624.126-.848.352L5.503 3.6H1.2C.536 3.6 0 4.136 0 4.8v12c0 .663.536 1.2 1.2 1.2h4.303l5.649 5.648c.72.721 1.906 1.13 3.266 1.13.032 0 .066 0 .098-.002 1.877-.026 3.725-.783 5.148-2.094h.03c1.44 0 3.364-.47 4.842-1.21 1.82-.909 3.06-2.393 3.315-3.969.193-1.193-.196-2.346-1.095-3.245l-4.308-4.306Z" fill="#DCAD76"/></svg>