<svg width="36" height="36" fill="none" xmlns="http://www.w3.org/2000/svg"><path fill-rule="evenodd" clip-rule="evenodd" d="M33 24a1.5 1.5 0 1 1-2.998.002A1.5 1.5 0 0 1 33 24Zm3 0a4.5 4.5 0 0 0-4.5-4.5A4.499 4.499 0 0 0 27 24a4.5 4.5 0 1 0 9 0Zm-20.318 1.5c-.255 0-.682-.588-.682-1.5 0-.913.427-1.5.682-1.5H18a1.5 1.5 0 0 0 1.5-1.5V1.5A1.5 1.5 0 0 0 18 0H1.5A1.5 1.5 0 0 0 0 1.5v33A1.5 1.5 0 0 0 1.5 36H18a1.5 1.5 0 0 0 1.5-1.5V27a1.5 1.5 0 0 0-1.5-1.5h-2.318ZM16.5 33H3V3h13.5v16.5h-.818C13.527 19.5 12 21.599 12 24c0 2.4 1.527 4.5 3.682 4.5h.818V33Z" fill="#DCAD76"/><path fill-rule="evenodd" clip-rule="evenodd" d="M30 24c0-.83.67-1.5 1.5-1.5v-3H15.682C13.526 19.5 12 21.598 12 24s1.526 4.5 3.682 4.5H31.5v-3A1.5 1.5 0 0 1 30 24Zm-14.318 1.5c-.255 0-.682-.587-.682-1.5s.427-1.5.682-1.5h11.574c-.166.47-.256.974-.256 1.5s.09 1.03.256 1.5H15.682Z" fill="#DCAD76"/><path fill-rule="evenodd" clip-rule="evenodd" d="M16.5 1.5V21a1.5 1.5 0 0 0 1.5 1.5h13.5c.829 0 1.5.67 1.5 1.5h3V1.5A1.5 1.5 0 0 0 34.5 0H18a1.5 1.5 0 0 0-1.5 1.5ZM33 3v16.756a4.493 4.493 0 0 0-1.5-.256h-12V3H33Z" fill="#DCAD76"/></svg>