<svg width="36" height="36" fill="none" xmlns="http://www.w3.org/2000/svg"><path d="M25.5 13.5h-21A4.5 4.5 0 0 1 0 9V4.5A4.5 4.5 0 0 1 4.5 0h21A4.5 4.5 0 0 1 30 4.5V9a4.5 4.5 0 0 1-4.5 4.5ZM4.5 3A1.5 1.5 0 0 0 3 4.5V9a1.5 1.5 0 0 0 1.5 1.5h21A1.5 1.5 0 0 0 27 9V4.5A1.5 1.5 0 0 0 25.5 3h-21Z" fill="#DCAD76"/><path d="M16.5 24a1.5 1.5 0 0 1-1.5-1.5v-3a4.5 4.5 0 0 1 4.5-4.5h12a1.5 1.5 0 0 0 1.5-1.5V9a1.5 1.5 0 0 0-1.5-1.5h-3a1.5 1.5 0 0 1 0-3h3A4.5 4.5 0 0 1 36 9v4.5a4.5 4.5 0 0 1-4.5 4.5h-12a1.5 1.5 0 0 0-1.5 1.5v3a1.5 1.5 0 0 1-1.5 1.5Z" fill="#DCAD76"/><path d="M21 36h-9a1.5 1.5 0 0 1-1.5-1.5v-9A4.5 4.5 0 0 1 15 21h3a4.5 4.5 0 0 1 4.5 4.5v9A1.5 1.5 0 0 1 21 36Zm-7.5-3h6v-7.5A1.5 1.5 0 0 0 18 24h-3a1.5 1.5 0 0 0-1.5 1.5V33Z" fill="#DCAD76"/></svg>