<svg width="103" height="49" fill="none" xmlns="http://www.w3.org/2000/svg"><path d="M72.578.395v33.589h7.868V17.189l21.638 16.795V.786h-7.869v16.599L72.578.395Z" fill="#DCAD76"/><path fill-rule="evenodd" clip-rule="evenodd" d="M39.094 34.023V.39H58.06c6.257 0 9.973 5.475 9.973 11.146 0 5.67-3.52 11.145-9.973 11.145H46.915v11.34h-7.821Zm7.82-26.201H57.67c1.565 0 2.542 1.564 2.542 3.52 0 2.346-.782 3.91-2.542 3.91H46.915v-7.43ZM17.011 34.023c9.396 0 17.012-7.617 17.012-17.012S26.406 0 17.01 0 0 7.616 0 17.011c0 9.396 7.616 17.012 17.011 17.012Zm-.195-7.43a9.386 9.386 0 1 0 0-18.771 9.386 9.386 0 0 0 0 18.77Z" fill="#DCAD76"/><path d="M5.755 46.336V49H4.158v-7.561h3.023c.582 0 1.093.104 1.533.312.443.207.784.503 1.022.888.237.38.356.815.356 1.303 0 .74-.26 1.326-.782 1.755-.518.426-1.237.639-2.156.639h-1.4Zm0-1.262H7.18c.422 0 .743-.097.963-.29.224-.195.336-.472.336-.832 0-.37-.112-.67-.336-.898-.223-.229-.532-.346-.926-.353H5.755v2.373Zm17.261 2.368h-2.858L19.614 49h-1.733l2.945-7.561h1.51l2.962 7.56h-1.733l-.549-1.557Zm-2.418-1.262h1.978l-.995-2.83-.983 2.83Zm17.164.052h-1.25V49h-1.57v-7.561h2.83c.9 0 1.595.199 2.083.597.488.398.733.96.733 1.688 0 .516-.114.947-.34 1.293-.224.342-.564.616-1.021.82l1.648 3.09V49H39.19l-1.428-2.768Zm-1.25-1.262h1.266c.394 0 .699-.099.915-.296.217-.2.325-.476.325-.826 0-.356-.103-.637-.309-.84-.202-.205-.515-.307-.937-.307h-1.26v2.269ZM55.71 42.7h-2.372V49h-1.595v-6.3h-2.339v-1.26h6.305v1.262ZM71.656 49H70.06l-3.11-4.975V49h-1.597v-7.561h1.597l3.115 4.985v-4.985h1.592v7.56Zm14.674-3.277h-3.064v2.025h3.596V49H81.67v-7.561h5.181v1.262h-3.585v1.802h3.064v1.22Zm12.625.509h-1.25V49h-1.57v-7.561h2.83c.9 0 1.595.199 2.083.597.489.398.733.96.733 1.688 0 .516-.114.947-.34 1.293-.224.342-.564.616-1.021.82l1.649 3.09V49h-1.685l-1.429-2.768Zm-1.25-1.262h1.266c.394 0 .7-.099.916-.296.216-.2.324-.476.324-.826 0-.356-.103-.637-.309-.84-.202-.205-.514-.307-.936-.307h-1.261v2.269Z" fill="#DCAD76"/></svg>