<svg width="30" height="20" fill="none" xmlns="http://www.w3.org/2000/svg"><mask id="a" fill="#fff"><path fill-rule="evenodd" clip-rule="evenodd" d="M0 20h30V4.5L21 9l-6-9-6 9-9-5v16Z"/></mask><path d="M0 20h-2v2h2v-2Zm30 0v2h2v-2h-2Zm0-15.5h2V1.264L29.106 2.71 30 4.5ZM21 9l-1.664 1.11.98 1.468 1.578-.79L21 9Zm-6-9 1.664-1.11L15-3.605l-1.664 2.497L15 0ZM9 9l-.971 1.748 1.612.896 1.023-1.535L9 9ZM0 4l.971-1.748L-2 .6V4h2Zm15 14H0v4h15v-4Zm0 4h15v-4H15v4Zm17-2V4.5h-4V20h4ZM29.106 2.711l-9 4.5 1.788 3.578 9-4.5-1.788-3.578Zm-6.442 5.18-6-9-3.328 2.218 6 9 3.328-2.218Zm-12 2.218 6-9-3.328-2.218-6 9 3.328 2.218ZM-.97 5.75l9 5 1.94-3.499-9-5-1.94 3.497ZM2 20V4h-4v16h4Z" fill="#DCAD76" mask="url(#a)"/><path fill="#DCAD76" d="M5 14h2v5H5zm9 0h2v5h-2zm9 0h2v5h-2z"/></svg>