<svg width="22" height="32" fill="none" xmlns="http://www.w3.org/2000/svg"><path d="M0 15.549c0 8.718 3.768 15.548 8.578 15.548h4.29c4.81 0 8.579-6.83 8.579-15.548C21.447 6.83 17.679 0 12.869 0h-4.29C3.767 0 0 6.83 0 15.55Zm1.693 0c0-7.51 3.153-13.856 6.885-13.856.59 0 1.172.157 1.736.47 3.037 1.656 5.158 7.16 5.158 13.386a27.205 27.205 0 0 1-.058 1.77c-.358 5.476-2.355 10.118-5.108 11.618a3.523 3.523 0 0 1-1.728.466c-3.732 0-6.885-6.344-6.885-13.854Zm18.06 0c0 7.51-3.152 13.855-6.884 13.855-.107 0-.213-.011-.319-.022.015-.013.028-.03.043-.043a8.92 8.92 0 0 0 .455-.457l.043-.049c.146-.16.29-.33.43-.505l.043-.054c.142-.18.28-.37.414-.565l.069-.1a12.815 12.815 0 0 0 .44-.701 13.748 13.748 0 0 0 .727-1.406l.045-.097c.107-.239.21-.484.308-.735l.051-.131c.098-.254.192-.511.282-.776l.031-.097c.09-.267.174-.539.254-.816l.013-.044c.08-.28.155-.567.226-.857l.035-.144c.067-.282.13-.568.188-.859l.03-.156c.058-.298.112-.6.16-.906l.01-.075c.046-.3.087-.603.123-.91l.014-.116c.035-.31.065-.622.09-.938l.013-.18c.023-.313.042-.629.054-.948l.006-.159c.011-.335.019-.671.019-1.01 0-.34-.008-.677-.02-1.012l-.005-.159a29.262 29.262 0 0 0-.053-.948l-.014-.179a28.135 28.135 0 0 0-.228-1.968l-.01-.07a25.471 25.471 0 0 0-.16-.912l-.029-.148a23.41 23.41 0 0 0-.19-.868 21.973 21.973 0 0 0-.532-1.875l-.023-.068a19.663 19.663 0 0 0-.65-1.667l-.025-.054a15.326 15.326 0 0 0-.759-1.467l-.024-.042a13.09 13.09 0 0 0-.413-.65l-.034-.049a10.048 10.048 0 0 0-1.426-1.678l-.021-.021c.106-.01.212-.022.318-.022 3.733.002 6.886 6.348 6.886 13.858Z" fill="#000"/></svg>