<svg width="27" height="36" fill="none" xmlns="http://www.w3.org/2000/svg"><path d="M26.26 3.13 20.123.183a1.352 1.352 0 0 0-.932-.135 1.352 1.352 0 0 0-.27 0H8.106a1.352 1.352 0 0 0-.27 0 1.352 1.352 0 0 0-.933.081l-6.137 3a1.352 1.352 0 0 0-.595 1.88L7.66 18.282a9.462 9.462 0 1 0 11.678 0l7.49-13.272a1.352 1.352 0 0 0-.595-1.88h.027Zm-9.056-.379-3.69 6.394-3.69-6.394h7.38ZM3.24 4.941l3.703-1.784 7.178 12.449.378.649H9.62L3.24 4.94Zm17.031 20.79a6.758 6.758 0 1 1-13.517 0 6.758 6.758 0 0 1 13.517 0Zm-2.703-9.652-2.433-4.23 4.947-8.692 3.704 1.784-6.218 11.138Zm-4.055 5.596a4.056 4.056 0 1 0 0 8.112 4.056 4.056 0 0 0 0-8.112Zm0 5.407a1.35 1.35 0 1 1 0-2.702 1.35 1.35 0 0 1 0 2.702Z" fill="#000"/></svg>